SplineFontDB: 1.0
FontName: NimbusSansL-Bold
FullName: Nimbus Sans L Bold
FamilyName: Nimbus Sans L
Weight: Bold
Copyright: Copyright (URW)++,Copyright 1999 by (URW)++ Design & Development; Cyrillic glyphs added by Valek Filippov (C) 2001-2004
Version: 1.06
ItalicAngle: 0
UnderlinePosition: -155
UnderlineWidth: 69
Ascent: 800
Descent: 200
NeedsXUIDChange: 1
UniqueID: 4052336
FSType: 12
OS2WinAscent: 0
OS2WinAOffset: 1
OS2WinDescent: 0
OS2WinDOffset: 1
HheadAscent: 0
HheadAOffset: 1
HheadDescent: 0
HheadDOffset: 1
ScriptLang: 2
 1 latn 1 dflt 
 1 DFLT 1 dflt 
Encoding: adobestandard
UnicodeInterp: none
DisplaySize: -36
AntiAlias: 1
FitToEm: 1
WinInfo: 88 22 14
BeginPrivate: 7
BlueValues 31 [-23 0 540 560 729 749 701 724]
BlueScale 8 0.039625
StdHW 5 [118]
StdVW 5 [141]
StemSnapH 200 [106 114 118 127] 
systemdict /internaldict known
{1183615869 systemdict /internaldict get exec
/StemSnapLength 2 copy known { get 4 lt } { pop pop true } ifelse }
{ true } ifelse { pop [118 127] } if
StemSnapV 9 [141 151]
ForceBold 5 false
EndPrivate
BeginChars: 767 661
StartChar: uniFFFD
Encoding: 0 65533 0
Width: 333
Flags: W
HStem: -234 51<100 124> -20 20G<69 144>
Fore
144 0 m 1
 69 0 l 1
 154 -53 178 -82 178 -133 c 0
 178 -167 155 -183 102 -183 c 0
 82 -183 63 -181 45 -177 c 1
 45 -224 l 1
 72 -231 96 -234 124 -234 c 0
 213 -234 268 -197 268 -139 c 0
 268 -80 221 -28 144 0 c 1
EndSplineSet
Colour: ffffff
EndChar
StartChar: exclam
Encoding: 33 33 2
Width: 333
Flags: W
HStem: 0 146<112 262>
VStem: 112 150<0 146 515 726>
Fore
262 726 m 1
 262 516 l 1
 220 207 l 1
 153 207 l 1
 112 516 l 1
 112 726 l 1
 262 726 l 1
262 146 m 1
 262 0 l 1
 112 0 l 1
 112 146 l 1
 262 146 l 1
EndSplineSet
EndChar
StartChar: quotedbl
Encoding: 34 34 3
Width: 474
Flags: W
HStem: 709 20G<50 188 286 424>
Fore
188 729 m 1
 188 599 l 1
 146 470 l 1
 90 470 l 1
 50 599 l 1
 50 729 l 1
 188 729 l 1
424 729 m 1
 424 599 l 1
 382 470 l 1
 326 470 l 1
 286 599 l 1
 286 729 l 1
 424 729 l 1
EndSplineSet
EndChar
StartChar: numbersign
Encoding: 35 35 4
Width: 556
Flags: W
HStem: 172 99<3 80 205 289 413 513> 424 99<31 130 255 338 463 553> 424 273<184 338 392 553>
DStem: 80 172 186 172 40 -32 146 -32 130 424 235 424 100 271 205 271 184 697 289 697 150 523 255 523 289 172 394 172 249 -32 354 -32 338 424 444 424 308 271 413 271 392 697 497 697 358 523 463 523
Fore
146 -32 m 1xa0
 40 -32 l 1
 80 172 l 1
 3 172 l 1
 3 271 l 1
 100 271 l 1
 130 424 l 1
 31 424 l 1
 31 523 l 1
 150 523 l 1xc0
 184 697 l 1
 289 697 l 1xa0
 255 523 l 1
 358 523 l 1xc0
 392 697 l 1
 497 697 l 1xa0
 463 523 l 1
 553 523 l 1
 553 424 l 1xc0
 444 424 l 1
 413 271 l 1
 513 271 l 1
 513 172 l 1
 394 172 l 1
 354 -32 l 1
 249 -32 l 1
 289 172 l 1
 186 172 l 1
 146 -32 l 1xa0
205 271 m 1
 308 271 l 1
 338 424 l 1xc0
 235 424 l 1xa0
 205 271 l 1
EndSplineSet
EndChar
StartChar: dollar
Encoding: 36 36 5
Width: 556
Flags: W
VStem: 39 123<510 531> 243 68<-126 -21 86 282 427 608 708 763> 395 132<177 199>
Fore
517 498 m 1
 389 498 l 1
 391 559 362 601 311 608 c 1
 311 407 l 1
 466 364 527 305 527 195 c 0
 527 120 495 55 441 20 c 0
 408 -1 366 -15 311 -21 c 1
 311 -126 l 1
 243 -126 l 1
 243 -21 l 1
 183 -15 146 -2 108 25 c 0
 52 65 22 125 22 198 c 2
 22 207 l 1
 153 207 l 1
 156 137 187 96 243 86 c 1
 243 299 l 1
 108 330 39 401 39 512 c 0
 39 624 114 697 243 709 c 1
 243 763 l 1
 311 763 l 1
 311 709 l 1
 437 702 515 623 517 498 c 1
243 427 m 1
 243 608 l 1
 188 597 162 567 162 516 c 0
 162 472 187 445 243 427 c 1
311 282 m 1
 311 86 l 1
 367 100 395 133 395 183 c 0
 395 231 367 265 311 282 c 1
EndSplineSet
EndChar
StartChar: percent
Encoding: 37 37 6
Width: 889
Flags: W
HStem: -13 98<665.894 684> 253 99<665.894 684> 337 98<206 215> 602 99<206 215>
VStem: 22 99<519 525> 291 99<507 525> 495 99<165 172> 764 99<155 172>
DStem: 606 709 682 709 210 -20 287 -20
Fore
206 701 m 0xbf
 309 701 390 620 390 517 c 0
 390 419 306 337 206 337 c 0
 105 337 22 419 22 519 c 0
 22 619 105 701 206 701 c 0xbf
206 602 m 0
 159 602 121 564 121 519 c 0
 121 473 159 435 206 435 c 0
 252 435 291 473 291 518 c 0
 291 565 253 602 206 602 c 0
606 709 m 1
 682 709 l 1
 287 -20 l 1
 210 -20 l 1
 606 709 l 1
679 352 m 0xdf
 782 352 863 271 863 167 c 0
 863 69 779 -13 679 -13 c 0
 578 -13 495 69 495 170 c 0
 495 270 578 352 679 352 c 0xdf
679 253 m 0
 632 253 594 215 594 169 c 0
 594 123 632 85 679 85 c 0
 725 85 764 123 764 168 c 0
 764 215 726 253 679 253 c 0
EndSplineSet
EndChar
StartChar: ampersand
Encoding: 38 38 7
Width: 722
Flags: W
HStem: -23 116<290 296> 614 109<310 328>
VStem: 55 133<193 218> 130 132<552 570> 377 120<552 570> 526 113<357 373>
DStem: 278 319 380 392 414 148 496 248
Fore
526 373 m 1xdc
 639 373 l 1
 639 362 l 1
 639 357 l 1
 637 281 611 200 571 154 c 1
 694 0 l 1
 533 0 l 1
 487 56 l 1
 406 -5 360 -23 292 -23 c 0
 150 -23 55 63 55 193 c 0xec
 55 287 95 340 212 401 c 1
 206 409 202 414 200 416 c 2
 172 450 l 2
 144 483 130 519 130 556 c 0
 130 650 212 723 319 723 c 0
 426 723 497 661 497 568 c 0
 497 496 469 453 380 392 c 1
 496 248 l 1
 518 290 526 320 526 363 c 2
 526 373 l 1xdc
278 319 m 1
 231 290 l 2
 204 272 188 243 188 210 c 0
 188 150 240 93 294 93 c 0
 325 93 367 112 414 148 c 1
 278 319 l 1
317 470 m 1
 357 492 377 521 377 556 c 0
 377 593 356 614 320 614 c 0
 286 614 262 594 262 566 c 0xdc
 262 541 267 533 317 470 c 1
EndSplineSet
EndChar
StartChar: quoteright
Encoding: 39 8217 8
Width: 278
Flags: W
HStem: 709 20G<66 201>
Fore
66 729 m 1
 201 729 l 1
 201 620 l 2
 201 563 188 530 156 503 c 0
 132 483 100 471 66 469 c 1
 66 515 l 1
 122 525 148 554 146 604 c 1
 66 604 l 1
 66 729 l 1
EndSplineSet
KernsSLIF: 65 -77 1 0 225 -66 1 0 257 -77 1 0 256 -77 1 0 262 -77 1 0 44 -46 1 0 100 -27 1 0 111 -30 1 0 46 -45 1 0 114 -15 1 0 115 -22 1 0 116 -4 1 0 118 -5 1 0 119 1 1 0 121 -3 1 0
EndChar
StartChar: parenleft
Encoding: 40 40 9
Width: 333
Flags: W
HStem: 709 20G<203 303>
Fore
203 729 m 1
 303 729 l 1
 197 525 163 411 163 265 c 0
 163 118 197 6 303 -200 c 1
 203 -200 l 1
 88 -27 40 111 40 265 c 0
 40 418 88 556 203 729 c 1
EndSplineSet
EndChar
StartChar: parenright
Encoding: 41 41 10
Width: 333
Flags: W
HStem: 709 20G<22 122>
Fore
122 -200 m 1
 22 -200 l 1
 128 4 162 118 162 264 c 0
 162 411 128 523 22 729 c 1
 122 729 l 1
 237 556 285 418 285 264 c 0
 285 111 237 -27 122 -200 c 1
EndSplineSet
EndChar
StartChar: asterisk
Encoding: 42 42 11
Width: 389
Flags: W
HStem: 709 20G<154 226>
VStem: 154 72<613 729>
DStem: 132 544 190 501 65 450 123 407 190 501 248 544 257 407 315 450
Fore
132 544 m 1
 23 580 l 1
 45 649 l 1
 154 613 l 1
 154 729 l 1
 226 729 l 1
 226 613 l 1
 335 649 l 1
 357 579 l 1
 248 544 l 1
 315 450 l 1
 257 407 l 1
 190 501 l 1
 123 407 l 1
 65 450 l 1
 132 544 l 1
EndSplineSet
EndChar
StartChar: plus
Encoding: 43 43 12
Width: 584
Flags: W
HStem: -10 21G<232 351> 172 119<50 232 351 533>
VStem: 232 119<-10 172 291 473>
Fore
533 291 m 1
 533 172 l 1
 351 172 l 1
 351 -10 l 1
 232 -10 l 1
 232 172 l 1
 50 172 l 1
 50 291 l 1
 232 291 l 1
 232 473 l 1
 351 473 l 1
 351 291 l 1
 533 291 l 1
EndSplineSet
EndChar
StartChar: comma
Encoding: 44 44 13
Width: 278
Flags: W
HStem: -20 20G<64 150>
Fore
64 146 m 1
 214 146 l 1
 214 9 l 2
 214 -69 200 -106 160 -137 c 0
 133 -158 105 -169 64 -174 c 1
 64 -118 l 1
 123 -106 150 -71 150 -3 c 2
 150 0 l 1
 64 0 l 1
 64 146 l 1
EndSplineSet
KernsSLIF: 49 -73 1 0 186 -33 1 0 39 -30 1 0
EndChar
StartChar: hyphen
Encoding: 45 45 14
Width: 333
Flags: W
HStem: 207 135<26 298>
Fore
298 342 m 1
 298 207 l 1
 26 207 l 1
 26 342 l 1
 298 342 l 1
EndSplineSet
KernsSLIF: 65 -1 1 0 225 10 1 0 257 -1 1 0 256 -1 1 0 262 -1 1 0 84 -57 1 0 86 -27 1 0 87 -9 1 0 89 -64 1 0
EndChar
StartChar: period
Encoding: 46 46 15
Width: 278
Flags: W
HStem: 0 146<64 214>
Fore
214 146 m 1
 214 0 l 1
 64 0 l 1
 64 146 l 1
 214 146 l 1
EndSplineSet
KernsSLIF: 49 -73 1 0 186 -32 1 0 39 -29 1 0
EndChar
StartChar: slash
Encoding: 47 47 16
Width: 278
Flags: W
HStem: -14 21G<2 69> 694 20G<208 275>
DStem: 208 714 275 714 2 -14 69 -14
Fore
208 714 m 1
 275 714 l 1
 69 -14 l 1
 2 -14 l 1
 208 714 l 1
EndSplineSet
EndChar
StartChar: zero
Encoding: 48 48 17
Width: 556
Flags: W
HStem: -23 120<273 286> 611 113<273 286>
VStem: 29 140<312 394> 377 140<312 394>
Fore
273 724 m 0
 356 724 425 687 467 619 c 0
 501 564 517 476 517 346 c 0
 517 214 497 122 457 68 c 0
 413 8 350 -23 273 -23 c 0
 190 -23 121 15 79 82 c 0
 46 136 29 225 29 350 c 0
 29 487 48 578 89 633 c 0
 132 692 197 724 273 724 c 0
273 611 m 0
 233 611 203 587 187 544 c 0
 177 515 169 434 169 351 c 0
 169 257 177 182 191 152 c 0
 208 116 236 97 273 97 c 0
 313 97 343 120 359 162 c 0
 369 190 377 270 377 349 c 0
 377 446 369 524 355 554 c 0
 338 591 309 611 273 611 c 0
EndSplineSet
KernsSLIF: 52 5 1 0 49 -19 1 0 55 -10 1 0
EndChar
StartChar: one
Encoding: 49 49 18
Width: 556
Flags: W
HStem: 0 21G<238 378> 489 93<68 99.0515> 689 20G<285 378>
VStem: 238 140<0 709>
Fore
238 489 m 1
 68 489 l 1
 68 582 l 1
 190 582 263 625 285 709 c 1
 378 709 l 1
 378 0 l 1
 238 0 l 1
 238 489 l 1
EndSplineSet
KernsSLIF: 44 -42 1 0 56 -37 1 0 53 -43 1 0 52 -56 1 0 57 -39 1 0 49 -85 1 0 46 -42 1 0 55 -65 1 0 54 -37 1 0 51 -44 1 0 50 -47 1 0 48 -34 1 0
EndChar
StartChar: two
Encoding: 50 50 19
Width: 556
Flags: W
HStem: 0 125<212 512> 610 114<269 287>
VStem: 39 135<462 502> 375 140<479 513>
Fore
512 125 m 1
 512 0 l 1
 30 0 l 1
 37 131 74 194 194 276 c 1
 350 387 375 418 375 496 c 0
 375 567 337 610 275 610 c 0
 211 610 174 564 174 485 c 2
 174 462 l 1
 40 462 l 1
 39 473 39 481 39 487 c 0
 39 637 125 724 272 724 c 0
 421 724 515 636 515 499 c 0
 515 403 479 349 356 259 c 0
 252 183 230 163 212 125 c 1
 512 125 l 1
EndSplineSet
KernsSLIF: 52 -9 1 0 49 -16 1 0 55 -3 1 0
EndChar
StartChar: three
Encoding: 51 51 20
Width: 556
Flags: W
HStem: -23 120<263 286> 317 94<217 238> 611 113<252 274>
VStem: 353 140<516 533> 376 140<187.831 218>
Fore
217 317 m 1xe8
 217 411 l 1
 229 411 l 2
 312 411 353 447 353 518 c 0
 353 577 321 611 265 611 c 0
 224 611 192 592 179 561 c 0
 172 543 169 524 168 486 c 1
 38 486 l 1
 38 498 l 2
 38 561 51 609 79 644 c 0
 119 696 187 724 268 724 c 0
 405 724 493 649 493 531 c 0xf0
 493 466 466 421 400 380 c 1
 480 341 516 287 516 204 c 0
 516 66 419 -23 268 -23 c 0
 123 -23 30 66 29 208 c 1
 165 208 l 1
 169 135 205 97 271 97 c 0
 332 97 376 142 376 204 c 0
 376 256 346 297 299 310 c 0
 275 316 266 317 217 317 c 1xe8
EndSplineSet
KernsSLIF: 52 6 1 0 49 -27 1 0 55 -10 1 0
EndChar
StartChar: four
Encoding: 52 52 21
Width: 556
Flags: W
HStem: 0 21G<308 448> 157 116<123 308 448 522> 689 20G<283 448>
VStem: 308 140<0 157 273 709>
DStem: 283 709 308 576 24 275 123 273
Fore
522 273 m 1
 522 157 l 1
 448 157 l 1
 448 0 l 1
 308 0 l 1
 308 157 l 1
 24 157 l 1
 24 275 l 1
 283 709 l 1
 448 709 l 1
 448 273 l 1
 522 273 l 1
308 273 m 1
 308 576 l 1
 123 273 l 1
 308 273 l 1
EndSplineSet
KernsSLIF: 52 9 1 0 49 -50 1 0 55 -28 1 0
EndChar
StartChar: five
Encoding: 53 53 22
Width: 556
Flags: W
HStem: -23 120<250 268> 368 111<263 296> 584 125<110 489>
VStem: 377 140<216 250>
DStem: 110 709 196 584 47 314 173 436
Fore
489 709 m 1
 489 584 l 1
 196 584 l 1
 173 436 l 1
 214 467 249 479 296 479 c 0
 427 479 517 379 517 234 c 0
 517 81 413 -23 261 -23 c 0
 123 -23 29 61 27 185 c 1
 165 185 l 1
 168 128 202 97 263 97 c 0
 333 97 377 148 377 231 c 0
 377 317 334 368 263 368 c 0
 220 368 188 349 173 314 c 1
 47 314 l 1
 110 709 l 1
 489 709 l 1
EndSplineSet
KernsSLIF: 52 6 1 0 49 -29 1 0 55 -10 1 0
EndChar
StartChar: six
Encoding: 54 54 23
Width: 556
Flags: W
HStem: -23 120<271 293> 357 110<279 313> 548 21G<377 507> 611 113<276 305>
VStem: 32 138<225 337> 386 133<216 239>
Fore
507 548 m 1
 377 548 l 1
 359 593 335 611 290 611 c 0
 234 611 194 573 181 509 c 0
 175 479 175 479 172 404 c 1
 216 450 255 467 313 467 c 0
 435 467 519 373 519 237 c 0
 519 83 423 -23 282 -23 c 0
 198 -23 124 16 83 82 c 0
 47 139 32 215 32 337 c 0
 32 466 49 545 91 614 c 0
 134 685 206 724 294 724 c 0
 371 724 436 694 473 643 c 0
 491 617 500 594 507 548 c 1
279 357 m 0
 214 357 170 303 170 225 c 0
 170 150 214 97 278 97 c 0
 340 97 386 152 386 228 c 0
 386 306 344 357 279 357 c 0
EndSplineSet
KernsSLIF: 52 7 1 0 49 -21 1 0 55 -3 1 0
EndChar
StartChar: seven
Encoding: 55 55 24
Width: 556
Flags: W
HStem: 0 21G<133 274> 584 125<29 382>
Fore
528 709 m 1
 528 599 l 1
 360 396 287 224 274 0 c 1
 133 0 l 1
 152 151 177 244 226 347 c 0
 254 409 339 538 382 584 c 1
 29 584 l 1
 29 709 l 1
 528 709 l 1
EndSplineSet
KernsSLIF: 58 -63 1 0 44 -88 1 0 56 -3 1 0 53 -21 1 0 52 -62 1 0 49 -14 1 0 46 -87 1 0 55 9 1 0 54 -13 1 0 50 -4 1 0
EndChar
StartChar: eight
Encoding: 56 56 25
Width: 556
Flags: W
HStem: -23 120<261 278> 330 95<261 279> 611 113<261 279>
VStem: 22 140<200 218> 46 123<516 533> 380 121<516 532> 385 140<200 218>
Fore
409 386 m 1xec
 491 342 525 288 525 204 c 0
 525 70 422 -23 274 -23 c 0
 125 -23 22 70 22 204 c 0xf2
 22 288 56 342 138 386 c 1
 74 420 46 463 46 531 c 0
 46 643 142 724 274 724 c 0
 405 724 501 643 501 532 c 0
 501 486 484 443 455 416 c 0
 444 406 433 399 409 386 c 1xec
275 611 m 0
 212 611 169 573 169 519 c 0
 169 464 213 425 275 425 c 0
 336 425 380 464 380 518 c 0xec
 380 573 337 611 275 611 c 0
273 330 m 0
 206 330 162 284 162 212 c 0
 162 142 205 97 273 97 c 0
 341 97 385 142 385 210 c 0xf2
 385 284 342 330 273 330 c 0
EndSplineSet
KernsSLIF: 52 10 1 0 49 -23 1 0 55 -6 1 0
EndChar
StartChar: nine
Encoding: 57 57 26
Width: 556
Flags: W
HStem: -24 120<251 269> 228 116<240 265> 610 114<251 269>
VStem: 28 133<455 489> 373 143<370 474>
Fore
38 165 m 1
 173 165 l 1
 176 123 210 96 259 96 c 0
 338 96 376 163 376 298 c 1
 353 272 345 263 332 254 c 0
 310 238 276 228 240 228 c 0
 114 228 28 328 28 474 c 0
 28 622 125 724 267 724 c 0
 352 724 422 684 467 608 c 0
 499 555 516 473 516 370 c 0
 516 256 494 149 457 86 c 0
 415 14 346 -24 255 -24 c 0
 133 -24 41 56 38 165 c 1
263 610 m 0
 201 610 161 558 161 476 c 0
 161 395 201 344 265 344 c 0
 329 344 373 396 373 474 c 0
 373 557 331 610 263 610 c 0
EndSplineSet
KernsSLIF: 52 4 1 0 49 -21 1 0 55 -17 1 0
EndChar
StartChar: colon
Encoding: 58 58 27
Width: 333
Flags: W
HStem: 0 146<113 263> 374 146<113 263>
VStem: 113 150<0 146 374 520>
Fore
263 146 m 1
 263 0 l 1
 113 0 l 1
 113 146 l 1
 263 146 l 1
263 520 m 1
 263 374 l 1
 113 374 l 1
 113 520 l 1
 263 520 l 1
EndSplineSet
EndChar
StartChar: semicolon
Encoding: 59 59 28
Width: 333
Flags: W
HStem: -20 20G<113 199> 374 146<113 263>
VStem: 113 150<0 146 374 520>
Fore
113 146 m 1
 263 146 l 1
 263 9 l 2
 263 -69 249 -106 209 -137 c 0
 182 -158 154 -169 113 -174 c 1
 113 -118 l 1
 172 -106 199 -71 199 -3 c 2
 199 0 l 1
 113 0 l 1
 113 146 l 1
263 520 m 1
 263 374 l 1
 113 374 l 1
 113 520 l 1
 263 520 l 1
EndSplineSet
EndChar
StartChar: less
Encoding: 60 60 29
Width: 584
Flags: W
DStem: 40 172 147 232 529 -10 529 101 529 474 529 365 40 293 147 232
Fore
529 474 m 1
 529 365 l 1
 147 232 l 1
 529 101 l 1
 529 -10 l 1
 40 172 l 1
 40 293 l 1
 529 474 l 1
EndSplineSet
EndChar
StartChar: equal
Encoding: 61 61 30
Width: 584
Flags: W
HStem: 52 119<50 534> 292 119<50 534>
Fore
534 411 m 1
 534 292 l 1
 50 292 l 1
 50 411 l 1
 534 411 l 1
534 171 m 1
 534 52 l 1
 50 52 l 1
 50 171 l 1
 534 171 l 1
EndSplineSet
EndChar
StartChar: greater
Encoding: 62 62 31
Width: 584
Flags: W
DStem: 422 232 529 171 40 99 40 -10
Fore
40 -10 m 1
 40 99 l 1
 422 232 l 1
 40 363 l 1
 40 474 l 1
 529 292 l 1
 529 171 l 1
 40 -10 l 1
EndSplineSet
EndChar
StartChar: question
Encoding: 63 63 32
Width: 611
Flags: W
HStem: 0 146<235 385> 626 118<303 321>
VStem: 64 136<481 483> 415 141<495 516>
Fore
369 201 m 1
 245 201 l 1
 242 286 265 331 344 399 c 1
 403 447 415 466 415 511 c 0
 415 576 370 626 310 626 c 0
 244 626 196 564 200 483 c 1
 200 481 l 1
 64 481 l 1
 65 563 78 611 111 655 c 0
 154 714 221 744 307 744 c 0
 454 744 556 650 556 514 c 0
 556 430 529 386 436 320 c 0
 376 278 369 267 369 201 c 1
385 146 m 1
 385 0 l 1
 235 0 l 1
 235 146 l 1
 385 146 l 1
EndSplineSet
EndChar
StartChar: at
Encoding: 64 64 33
Width: 975
Flags: W
HStem: -138 78<458 519> 56 81<422 444 697 699> 447 71<506 524> 668 77<482 540>
VStem: 27 97<242 279> 258 97<227 246> 595 53<186 345> 858 89<346 375>
Fore
644 508 m 1
 734 508 l 1
 656 228 l 1
 648 198 648 198 648 186 c 0
 648 156 667 137 697 137 c 0
 732 137 774 165 807 209 c 0
 840 255 858 312 858 370 c 0
 858 449 826 517 760 576 c 0
 690 638 609 668 511 668 c 0
 395 668 299 625 227 542 c 0
 162 467 124 366 124 266 c 0
 124 166 164 82 242 21 c 0
 309 -31 395 -60 486 -60 c 0
 558 -60 635 -45 693 -19 c 1
 721 -92 l 1
 651 -124 578 -138 484 -138 c 0
 357 -138 261 -108 178 -43 c 0
 82 32 27 145 27 264 c 0
 27 380 82 510 170 601 c 0
 262 696 380 745 516 745 c 0
 642 745 751 702 836 620 c 0
 912 546 947 462 947 355 c 0
 947 272 920 203 865 140 c 0
 817 86 757 56 697 56 c 0
 664 56 633 65 608 82 c 0
 588 96 580 106 572 131 c 1
 533 84 477 56 422 56 c 0
 331 56 258 132 258 227 c 0
 258 294 286 370 332 427 c 0
 377 483 446 518 514 518 c 0
 570 518 604 496 628 446 c 1
 644 508 l 1
511 447 m 0
 433 447 355 346 355 244 c 0
 355 184 394 137 444 137 c 0
 473 137 508 156 532 184 c 0
 569 227 595 294 595 345 c 0
 595 408 563 447 511 447 c 0
EndSplineSet
EndChar
StartChar: A
Encoding: 65 65 34
Width: 722
Flags: W
HStem: 0 21G<26 179 549 703> 147 125<270 501> 709 20G<285 451>
DStem: 285 729 365 557 26 0 270 272 285 729 228 147 26 0 179 0 365 557 451 729 460 272 703 0
Fore
501 147 m 1
 228 147 l 1
 179 0 l 1
 26 0 l 1
 285 729 l 1
 451 729 l 1
 703 0 l 1
 549 0 l 1
 501 147 l 1
460 272 m 1
 365 557 l 1
 270 272 l 1
 460 272 l 1
EndSplineSet
KernsSLIF: 67 -33 0 0 264 -33 0 0 71 -35 0 0 79 -34 0 0 286 -34 0 0 81 -35 0 0 84 -81 0 0 85 -32 0 0 299 -32 0 0 301 -32 0 0 298 -32 0 0 300 -32 0 0 86 -66 0 0 87 -51 0 0 89 -90 0 0 97 -1 0 0 98 -1 0 0 99 -14 0 0 332 -14 0 0 44 19 0 0 100 -13 0 0 101 -9 0 0 103 -14 0 0 171 -43 0 0 172 -40 0 0 45 7 0 0 111 -16 0 0 46 19 0 0 113 -12 0 0 186 -65 0 0 39 -61 0 0 116 -18 0 0 117 -12 0 0 118 -37 0 0 119 -23 0 0 121 -35 0 0
EndChar
StartChar: B
Encoding: 66 66 35
Width: 722
Flags: W
HStem: 0 125<232 419> 314 125<232 413> 604 125<82 413>
VStem: 82 150<0 314 0 604> 501 144<519 537> 522 144<207 225>
Fore
82 0 m 1xf4
 82 729 l 1
 407 729 l 2
 485 729 536 713 579 676 c 0
 620 640 645 587 645 537 c 0xf8
 645 475 617 433 545 387 c 1
 627 339 666 282 666 210 c 0
 666 152 638 90 594 53 c 0
 550 16 494 0 410 0 c 2
 82 0 l 1xf4
232 604 m 1
 232 439 l 1
 395 439 l 2
 464 439 501 468 501 521 c 0
 501 575 464 604 395 604 c 2
 232 604 l 1
232 314 m 1
 232 125 l 1
 411 125 l 2
 484 125 522 158 522 219 c 0xf4
 522 281 484 314 411 314 c 2
 232 314 l 1
EndSplineSet
KernsSLIF: 65 -32 0 0 225 -20 0 0 257 -32 0 0 259 -32 0 0 256 -32 0 0 262 -32 0 0 261 -32 0 0 79 -11 0 0 234 -2 0 0 287 -11 0 0 289 -11 0 0 286 -11 0 0 288 -11 0 0 233 -5 0 0 86 -39 0 0 87 -27 0 0 89 -51 0 0
EndChar
StartChar: C
Encoding: 67 67 36
Width: 722
Flags: W
HStem: -23 126<363 397> 613 128<363 397>
VStem: 44 150<328 378>
Fore
682 482 m 1
 539 482 l 1
 530 521 522 540 506 560 c 0
 478 595 435 613 383 613 c 0
 265 613 194 517 194 356 c 0
 194 197 262 103 378 103 c 0
 471 103 530 156 539 249 c 1
 685 249 l 1
 676 82 555 -23 374 -23 c 0
 171 -23 44 124 44 358 c 0
 44 594 172 741 378 741 c 0
 487 741 577 700 633 626 c 0
 664 585 677 545 682 482 c 1
EndSplineSet
KernsSLIF: 65 -29 0 0 225 -17 0 0 257 -29 0 0 256 -29 0 0 262 -29 0 0 72 5 0 0 75 2 0 0 79 -6 0 0 287 -6 0 0 286 -6 0 0
EndChar
StartChar: D
Encoding: 68 68 37
Width: 722
Flags: W
HStem: 0 125<227 382> 604 125<77 382>
VStem: 77 150<0 604> 531 150<335 385>
Fore
77 0 m 1
 77 729 l 1
 362 729 l 2
 474 729 543 704 592 645 c 0
 650 576 681 477 681 365 c 0
 681 252 650 153 592 85 c 0
 543 26 473 0 362 0 c 2
 77 0 l 1
227 125 m 1
 362 125 l 2
 475 125 531 204 531 364 c 0
 531 525 475 604 362 604 c 2
 227 604 l 1
 227 125 l 1
EndSplineSet
KernsSLIF: 65 -37 0 0 257 -37 0 0 259 -37 0 0 256 -37 0 0 258 -37 0 0 262 -37 0 0 261 -37 0 0 74 2 0 0 84 -17 0 0 86 -35 0 0 87 -20 0 0 88 -35 0 0 89 -56 0 0
EndChar
StartChar: E
Encoding: 69 69 38
Width: 667
Flags: W
HStem: 0 125<229 624> 314 125<229 578> 604 125<79 606>
VStem: 79 150<0 314 0 604>
Fore
229 314 m 1
 229 125 l 1
 624 125 l 1
 624 0 l 1
 79 0 l 1
 79 729 l 1
 606 729 l 1
 606 604 l 1
 229 604 l 1
 229 439 l 1
 578 439 l 1
 578 314 l 1
 229 314 l 1
EndSplineSet
EndChar
StartChar: F
Encoding: 70 70 39
Width: 611
Flags: W
HStem: 0 21G<74 224> 314 125<224 543> 604 125<74 586>
VStem: 74 150<0 314 0 604>
Fore
224 314 m 1
 224 0 l 1
 74 0 l 1
 74 729 l 1
 586 729 l 1
 586 604 l 1
 224 604 l 1
 224 439 l 1
 543 439 l 1
 543 314 l 1
 224 314 l 1
EndSplineSet
KernsSLIF: 65 -63 0 0 257 -63 0 0 259 -63 0 0 256 -63 0 0 258 -63 0 0 262 -63 0 0 261 -63 0 0 74 -25 0 0 79 -16 0 0 286 -16 0 0 97 -15 0 0 323 -15 0 0 322 -15 0 0 241 -17 0 0 328 -15 0 0 44 -76 0 0 101 -7 0 0 335 -7 0 0 45 11 0 0 105 -7 0 0 106 -9 0 0 111 -14 0 0 352 -14 0 0 351 -14 0 0 250 -8 0 0 249 -15 0 0 46 -75 0 0 114 -27 0 0 117 -24 0 0
EndChar
StartChar: G
Encoding: 71 71 40
Width: 778
Flags: W
HStem: -23 128<381 411> 267 125<419 585> 613 128<377 419>
VStem: 42 150<344 392>
Fore
711 392 m 1
 711 -2 l 1
 621 -2 l 1
 603 94 l 1
 547 12 481 -23 383 -23 c 0
 186 -23 42 138 42 359 c 0
 42 586 185 741 395 741 c 0
 571 741 693 646 711 496 c 1
 570 496 l 1
 557 534 546 551 525 569 c 0
 492 598 448 613 396 613 c 0
 269 613 192 518 192 361 c 0
 192 211 279 105 400 105 c 0
 458 105 513 131 549 175 c 0
 571 201 581 226 585 267 c 1
 419 267 l 1
 419 392 l 1
 711 392 l 1
EndSplineSet
KernsSLIF: 65 -8 0 0 225 4 0 0 257 -8 0 0 259 -8 0 0 256 -8 0 0 258 -8 0 0 262 -8 0 0 261 -8 0 0 84 -17 0 0 86 -36 0 0 87 -20 0 0 89 -56 0 0
EndChar
StartChar: H
Encoding: 72 72 41
Width: 722
Flags: W
HStem: 0 21G<68 218 507 657> 331 125<218 507> 709 20G<68 218 506 657>
VStem: 68 150<0 331 0 729> 507 150<0 729>
Fore
507 331 m 1
 218 331 l 1
 218 0 l 1
 68 0 l 1
 68 729 l 1
 218 729 l 1
 218 456 l 1
 506 456 l 1
 506 729 l 1
 657 729 l 1
 657 0 l 1
 507 0 l 1
 507 331 l 1
EndSplineSet
EndChar
StartChar: I
Encoding: 73 73 42
Width: 278
Flags: W
HStem: 0 21G<63 213> 709 20G<63 213>
VStem: 63 150<0 729>
Fore
213 729 m 1
 213 0 l 1
 63 0 l 1
 63 729 l 1
 213 729 l 1
EndSplineSet
EndChar
StartChar: J
Encoding: 74 74 43
Width: 556
Flags: W
HStem: -23 128<247 265> 709 20G<336 486>
VStem: 24 150<184 270> 336 150<190 729>
Fore
336 729 m 1
 486 729 l 1
 486 190 l 2
 486 54 401 -23 252 -23 c 0
 183 -23 127 -3 85 35 c 0
 42 75 24 122 24 198 c 2
 24 270 l 1
 174 270 l 1
 174 200 l 2
 174 133 198 105 255 105 c 0
 307 105 336 135 336 190 c 2
 336 729 l 1
EndSplineSet
KernsSLIF: 65 -32 0 0 225 -20 0 0 256 -32 0 0 262 -32 0 0
EndChar
StartChar: K
Encoding: 75 75 44
Width: 722
Flags: W
HStem: 0 21G<74 224 538 717> 709 20G<74 224 509 686>
VStem: 74 150<0 244 0 729>
Fore
224 244 m 1
 224 0 l 1
 74 0 l 1
 74 729 l 1
 224 729 l 1
 224 409 l 1
 509 729 l 1
 686 729 l 1
 395 415 l 1
 717 0 l 1
 538 0 l 1
 299 322 l 1
 224 244 l 1
EndSplineSet
KernsSLIF: 67 -53 0 0 71 -55 0 0 79 -54 0 0 234 -44 0 0 287 -54 0 0 286 -54 0 0 83 -30 0 0 84 13 0 0 97 -3 0 0 322 -3 0 0 328 -3 0 0 101 -25 0 0 45 -44 0 0 111 -33 0 0 352 -33 0 0 351 -33 0 0 117 -23 0 0 362 -23 0 0 121 -65 0 0
EndChar
StartChar: L
Encoding: 76 76 45
Width: 611
Flags: W
HStem: 0 125<229 579> 709 20G<80 230>
VStem: 80 150<0 729>
Fore
230 729 m 1
 230 125 l 1
 579 125 l 1
 579 0 l 1
 80 0 l 1
 80 729 l 1
 230 729 l 1
EndSplineSet
KernsSLIF: 65 9 0 0 225 21 0 0 257 9 0 0 256 9 0 0 262 9 0 0 67 -26 0 0 264 -26 0 0 71 -30 0 0 79 -29 0 0 287 -29 0 0 289 -29 0 0 286 -29 0 0 288 -29 0 0 290 -29 0 0 83 -2 0 0 84 -95 0 0 85 -24 0 0 298 -24 0 0 86 -90 0 0 87 -68 0 0 89 -112 0 0 45 -12 0 0 186 -141 0 0 39 -138 0 0 117 -7 0 0 362 -7 0 0 121 -55 0 0
EndChar
StartChar: M
Encoding: 77 77 46
Width: 833
Flags: W
HStem: 0 21G<66 216 347 497 626 776> 709 20G<66 290 550 776>
VStem: 66 150<0 568> 626 150<0 729>
DStem: 216 568 290 729 347 0 422 149 550 729 626 568 422 149 497 0
Fore
216 568 m 1
 216 0 l 1
 66 0 l 1
 66 729 l 1
 290 729 l 1
 422 149 l 1
 550 729 l 1
 776 729 l 1
 776 0 l 1
 626 0 l 1
 626 568 l 1
 497 0 l 1
 347 0 l 1
 216 568 l 1
EndSplineSet
EndChar
StartChar: N
Encoding: 78 78 47
Width: 722
Flags: W
HStem: 0 21G<68 218 511 661> 709 20G<68 222 511 661>
VStem: 68 150<0 504> 511 150<233 729>
DStem: 218 504 222 729 511 0 511 233
Fore
511 0 m 1
 218 504 l 1
 218 0 l 1
 68 0 l 1
 68 729 l 1
 222 729 l 1
 511 233 l 1
 511 729 l 1
 661 729 l 1
 661 0 l 1
 511 0 l 1
EndSplineSet
KernsSLIF: 65 -5 0 0 225 7 0 0 257 -5 0 0 256 -5 0 0 262 -5 0 0 67 9 0 0 264 9 0 0 71 8 0 0 79 8 0 0 287 8 0 0 286 8 0 0 97 13 0 0 323 13 0 0 322 13 0 0 241 13 0 0 328 13 0 0 44 15 0 0 101 18 0 0 335 18 0 0 111 11 0 0 352 11 0 0 351 11 0 0 249 11 0 0 46 16 0 0 117 12 0 0 362 12 0 0
EndChar
StartChar: O
Encoding: 79 79 48
Width: 778
Flags: W
HStem: -23 128<391 409> 613 128<375 409>
VStem: 40 150<359 378> 592 150<328 378>
Fore
390 741 m 0
 495 741 576 709 640 640 c 0
 705 570 742 468 742 354 c 0
 742 251 703 145 640 78 c 0
 577 10 495 -23 391 -23 c 0
 287 -23 205 10 142 78 c 0
 77 147 40 250 40 359 c 0
 40 468 77 570 142 640 c 0
 204 707 288 741 390 741 c 0
391 613 m 0
 270 613 190 512 190 359 c 0
 190 206 270 105 391 105 c 0
 511 105 592 206 592 355 c 0
 592 513 514 613 391 613 c 0
EndSplineSet
KernsSLIF: 65 -37 0 0 225 -26 0 0 257 -37 0 0 256 -37 0 0 262 -37 0 0 84 -20 0 0 86 -36 0 0 87 -21 0 0 88 -36 0 0 89 -59 0 0
EndChar
StartChar: P
Encoding: 80 80 49
Width: 667
Flags: W
HStem: 0 21G<76 226> 260 125<226 413> 604 125<76 381>
VStem: 76 150<0 260 0 604> 483 150<479 513>
Fore
226 260 m 1
 226 0 l 1
 76 0 l 1
 76 729 l 1
 398 729 l 2
 550 729 633 649 633 503 c 0
 633 355 547 260 413 260 c 2
 226 260 l 1
226 385 m 1
 366 385 l 2
 446 385 483 420 483 494 c 0
 483 569 446 604 366 604 c 2
 226 604 l 1
 226 385 l 1
EndSplineSet
KernsSLIF: 65 -65 0 0 225 -54 0 0 257 -65 0 0 256 -65 0 0 262 -65 0 0 74 -44 0 0 97 -7 0 0 323 -7 0 0 322 -7 0 0 241 -8 0 0 328 -7 0 0 44 -94 0 0 101 -8 0 0 335 -8 0 0 111 -14 0 0 352 -14 0 0 351 -14 0 0 250 -8 0 0 249 -17 0 0 46 -94 0 0
EndChar
StartChar: Q
Encoding: 81 81 50
Width: 778
Flags: W
HStem: -23 128<378 412> 613 128<394 412>
VStem: 43 150<359 379> 595 150<345 379>
Fore
665 103 m 1
 745 27 l 1
 669 -54 l 1
 583 27 l 1
 525 -8 469 -23 394 -23 c 0
 291 -23 208 10 145 78 c 0
 81 147 43 250 43 359 c 0
 43 468 81 571 145 640 c 0
 208 708 290 741 394 741 c 0
 498 741 580 708 643 640 c 0
 707 571 745 468 745 361 c 0
 745 263 714 163 665 103 c 1
480 278 m 1
 562 200 l 1
 584 244 595 298 595 358 c 0
 595 513 516 613 394 613 c 0
 273 613 193 512 193 359 c 0
 193 206 273 105 393 105 c 0
 425 105 458 112 481 124 c 1
 404 197 l 1
 480 278 l 1
EndSplineSet
EndChar
StartChar: R
Encoding: 82 82 51
Width: 722
Flags: W
HStem: 0 21G<80 230 516 677> 289 125<230 417> 604 125<80 433>
VStem: 80 150<0 289 0 604> 493 152<85 129> 517 150<509 532>
Fore
230 289 m 1xf8
 230 0 l 1
 80 0 l 1
 80 729 l 1
 471 729 l 2
 533 729 579 713 612 679 c 0
 647 643 667 590 667 532 c 0xf4
 667 443 626 384 544 352 c 1
 637 312 641 302 645 87 c 0
 645 55 654 40 677 27 c 1
 677 0 l 1
 516 0 l 1
 497 35 493 57 493 125 c 0
 493 136 493 154 494 173 c 0
 495 186 495 196 495 202 c 0
 495 263 467 289 402 289 c 2
 230 289 l 1xf8
230 414 m 1
 411 414 l 2
 454 414 474 419 490 433 c 0
 507 448 517 476 517 511 c 0
 517 545 508 570 490 585 c 0
 472 600 454 604 411 604 c 2
 230 604 l 1
 230 414 l 1
EndSplineSet
KernsSLIF: 67 -5 0 0 264 -5 0 0 71 -6 0 0 79 -6 0 0 234 3 0 0 287 -6 0 0 286 -6 0 0 85 -4 0 0 298 -4 0 0 86 -26 0 0 87 -17 0 0 89 -37 0 0 101 2 0 0 335 2 0 0 45 15 0 0 111 -4 0 0 352 -4 0 0 351 -4 0 0 250 1 0 0 121 5 0 0
EndChar
StartChar: S
Encoding: 83 83 52
Width: 667
Flags: W
HStem: -23 120<319 354> 621 120<303 336>
VStem: 45 143<515 538> 489 144<193 213>
Fore
607 507 m 1
 467 507 l 1
 462 581 409 621 314 621 c 0
 237 621 188 586 188 531 c 0
 188 478 219 457 326 436 c 2
 440 414 l 2
 575 388 633 328 633 213 c 0
 633 65 522 -23 334 -23 c 0
 148 -23 41 62 32 218 c 1
 178 218 l 1
 183 140 240 97 342 97 c 0
 433 97 489 134 489 195 c 0
 489 254 452 282 352 301 c 2
 250 321 l 2
 102 349 45 404 45 517 c 0
 45 659 146 741 321 741 c 0
 426 741 507 712 556 658 c 0
 592 618 607 574 607 507 c 1
EndSplineSet
KernsSLIF: 65 -20 0 0 225 -8 0 0 257 -20 0 0 256 -20 0 0 262 -20 0 0 84 -5 0 0 86 -31 0 0 87 -17 0 0 89 -43 0 0 116 1 0 0
EndChar
StartChar: T
Encoding: 84 84 53
Width: 611
Flags: W
HStem: 0 21G<235 385> 604 125<14 235 14 598>
VStem: 235 150<0 604>
Fore
385 604 m 1
 385 0 l 1
 235 0 l 1
 235 604 l 1
 14 604 l 1
 14 729 l 1
 598 729 l 1
 598 604 l 1
 385 604 l 1
EndSplineSet
KernsSLIF: 65 -87 0 0 225 -75 0 0 257 -87 0 0 259 -87 0 0 256 -87 0 0 258 -87 0 0 262 -87 0 0 261 -87 0 0 67 -20 0 0 71 -22 0 0 74 -87 0 0 79 -22 0 0 234 -11 0 0 287 -22 0 0 289 -22 0 0 286 -22 0 0 288 -22 0 0 233 -23 0 0 290 -22 0 0 83 3 0 0 86 18 0 0 87 24 0 0 89 16 0 0 97 -73 0 0 241 -73 0 0 99 -74 0 0 58 -97 0 0 44 -67 0 0 101 -69 0 0 103 -75 0 0 171 -101 0 0 172 -98 0 0 45 -48 0 0 105 -1 0 0 106 -3 0 0 111 -76 0 0 249 -73 0 0 46 -67 0 0 114 -71 0 0 115 -74 0 0 59 -98 0 0 117 -72 0 0 118 -82 0 0 119 -77 0 0 121 -80 0 0
EndChar
StartChar: U
Encoding: 85 85 54
Width: 722
Flags: W
HStem: -23 128<365 381> 709 20G<76 226 504 654>
VStem: 76 150<235 729> 504 150<235 729>
Fore
504 729 m 1
 654 729 l 1
 654 235 l 2
 654 153 632 95 583 51 c 0
 530 3 453 -23 365 -23 c 0
 277 -23 200 3 147 51 c 0
 98 95 76 153 76 235 c 2
 76 729 l 1
 226 729 l 1
 226 235 l 2
 226 147 271 105 365 105 c 0
 459 105 504 147 504 235 c 2
 504 729 l 1
EndSplineSet
KernsSLIF: 65 -34 0 0 225 -22 0 0 257 -34 0 0 259 -34 0 0 256 -34 0 0 262 -34 0 0 261 -34 0 0 44 -7 0 0 109 6 0 0 110 5 0 0 112 7 0 0 46 -4 0 0 114 5 0 0
EndChar
StartChar: V
Encoding: 86 86 55
Width: 667
Flags: W
HStem: 0 21G<270 397> 709 20G<24 175 496 647>
Fore
397 0 m 1
 270 0 l 1
 24 729 l 1
 175 729 l 1
 337 180 l 1
 496 729 l 1
 647 729 l 1
 397 0 l 1
EndSplineSet
KernsSLIF: 65 -71 0 0 225 -59 0 0 257 -71 0 0 259 -71 0 0 256 -71 0 0 258 -71 0 0 262 -71 0 0 261 -71 0 0 67 -36 0 0 71 -38 0 0 79 -37 0 0 287 -37 0 0 289 -37 0 0 286 -37 0 0 288 -37 0 0 233 -31 0 0 290 -37 0 0 83 -21 0 0 84 21 0 0 97 -47 0 0 241 -48 0 0 58 -65 0 0 44 -69 0 0 101 -43 0 0 103 -49 0 0 171 -74 0 0 172 -72 0 0 45 -21 0 0 105 -5 0 0 111 -50 0 0 249 -48 0 0 46 -69 0 0 114 -34 0 0 59 -67 0 0 117 -34 0 0 121 -10 0 0
EndChar
StartChar: W
Encoding: 87 87 56
Width: 944
Flags: W
HStem: 0 21G<219 354 595 730> 709 20G<13 172 398 546 773 932>
DStem: 398 729 473 569 285 183 354 0 473 569 546 729 595 0 664 182
Fore
730 0 m 1
 595 0 l 1
 473 569 l 1
 354 0 l 1
 219 0 l 1
 13 729 l 1
 172 729 l 1
 285 183 l 1
 398 729 l 1
 546 729 l 1
 664 182 l 1
 773 729 l 1
 932 729 l 1
 730 0 l 1
EndSplineSet
KernsSLIF: 65 -54 0 0 225 -43 0 0 257 -54 0 0 259 -54 0 0 256 -54 0 0 258 -54 0 0 262 -54 0 0 261 -54 0 0 67 -20 0 0 71 -22 0 0 79 -21 0 0 287 -21 0 0 289 -21 0 0 286 -21 0 0 288 -21 0 0 233 -15 0 0 290 -21 0 0 83 -12 0 0 84 25 0 0 97 -29 0 0 241 -29 0 0 58 -53 0 0 44 -45 0 0 101 -24 0 0 103 -30 0 0 171 -55 0 0 172 -53 0 0 45 -3 0 0 105 -1 0 0 111 -31 0 0 249 -29 0 0 46 -45 0 0 114 -24 0 0 59 -54 0 0 117 -23 0 0
EndChar
StartChar: X
Encoding: 88 88 57
Width: 667
Flags: W
HStem: 0 21G<22 196 475 653> 709 20G<30 208 470 644>
Fore
419 372 m 1
 653 0 l 1
 475 0 l 1
 335 253 l 1
 196 0 l 1
 22 0 l 1
 252 367 l 1
 30 729 l 1
 208 729 l 1
 336 489 l 1
 470 729 l 1
 644 729 l 1
 419 372 l 1
EndSplineSet
KernsSLIF: 67 -34 0 0 79 -35 0 0 286 -35 0 0 81 -37 0 0 97 -5 0 0 101 -25 0 0 45 -27 0 0 111 -32 0 0 117 -25 0 0 121 -40 0 0
EndChar
StartChar: Y
Encoding: 89 89 58
Width: 667
Flags: W
HStem: 0 21G<269 419> 709 20G<27 194 482 650>
VStem: 269 150<0 270>
Fore
419 270 m 1
 419 0 l 1
 269 0 l 1
 269 270 l 1
 27 729 l 1
 194 729 l 1
 343 407 l 1
 482 729 l 1
 650 729 l 1
 419 270 l 1
EndSplineSet
KernsSLIF: 65 -86 0 0 225 -74 0 0 257 -86 0 0 259 -86 0 0 256 -86 0 0 258 -86 0 0 262 -86 0 0 261 -86 0 0 67 -52 0 0 71 -54 0 0 79 -54 0 0 287 -54 0 0 289 -54 0 0 286 -54 0 0 288 -54 0 0 233 -47 0 0 290 -54 0 0 83 -29 0 0 84 22 0 0 97 -66 0 0 241 -67 0 0 58 -81 0 0 44 -78 0 0 101 -63 0 0 103 -68 0 0 171 -98 0 0 172 -96 0 0 45 -50 0 0 105 -3 0 0 111 -70 0 0 249 -67 0 0 112 -45 0 0 46 -78 0 0 59 -83 0 0 117 -48 0 0 118 -27 0 0
EndChar
StartChar: Z
Encoding: 90 90 59
Width: 611
Flags: W
HStem: 0 125<206 578> 604 125<30 403>
DStem: 403 604 578 604 30 125 206 125
Fore
578 729 m 1
 578 604 l 1
 206 125 l 1
 578 125 l 1
 578 0 l 1
 30 0 l 1
 30 125 l 1
 403 604 l 1
 30 604 l 1
 30 729 l 1
 578 729 l 1
EndSplineSet
KernsSLIF: 118 -11 0 0 121 -9 0 0
EndChar
StartChar: bracketleft
Encoding: 91 91 60
Width: 333
Flags: W
HStem: -200 102<196 308> 627 102<66 308>
VStem: 66 130<-200 627>
Fore
308 729 m 1
 308 627 l 1
 196 627 l 1
 196 -98 l 1
 308 -98 l 1
 308 -200 l 1
 66 -200 l 1
 66 729 l 1
 308 729 l 1
EndSplineSet
EndChar
StartChar: backslash
Encoding: 92 92 61
Width: 278
Flags: W
HStem: -14 21G<222 289> 694 20G<-12 55>
DStem: -12 714 55 714 222 -14 289 -14
Fore
55 714 m 1
 289 -14 l 1
 222 -14 l 1
 -12 714 l 1
 55 714 l 1
EndSplineSet
EndChar
StartChar: bracketright
Encoding: 93 93 62
Width: 333
Flags: W
HStem: -200 102<18 260> 627 102<18 130>
VStem: 130 130<-98 729>
Fore
18 -200 m 1
 18 -98 l 1
 130 -98 l 1
 130 627 l 1
 18 627 l 1
 18 729 l 1
 260 729 l 1
 260 -200 l 1
 18 -200 l 1
EndSplineSet
EndChar
StartChar: asciicircum
Encoding: 94 94 63
Width: 584
Flags: W
DStem: 226 695 288 570 61 270 173 270 288 570 351 695 409 270 522 270
Fore
522 270 m 1
 409 270 l 1
 288 570 l 1
 173 270 l 1
 61 270 l 1
 226 695 l 1
 351 695 l 1
 522 270 l 1
EndSplineSet
EndChar
StartChar: underscore
Encoding: 95 95 64
Width: 556
Flags: W
HStem: -189 69<-22 578>
Fore
578 -120 m 1
 578 -189 l 1
 -22 -189 l 1
 -22 -120 l 1
 578 -120 l 1
EndSplineSet
EndChar
StartChar: quoteleft
Encoding: 96 8216 65
Width: 278
Flags: W
Fore
202 469 m 1
 67 469 l 1
 67 578 l 2
 67 635 80 668 112 695 c 0
 136 715 168 727 202 729 c 1
 202 683 l 1
 146 673 120 644 122 594 c 1
 202 594 l 1
 202 469 l 1
EndSplineSet
KernsSLIF: 65 -73 1 0 225 -62 1 0 257 -73 1 0 256 -73 1 0 262 -73 1 0 84 -7 1 0 86 2 1 0 87 11 1 0 89 -13 1 0
EndChar
StartChar: a
Encoding: 97 97 66
Width: 556
Flags: W
HStem: -23 113<192 244> 436 113<248 285>
VStem: 28 140<139 157> 355 137<200 394>
Fore
524 17 m 1
 524 0 l 1
 372 0 l 1
 359 16 356 26 356 54 c 1
 307 3 252 -23 192 -23 c 0
 144 -23 97 -4 66 28 c 0
 41 55 28 93 28 139 c 0
 28 236 80 291 187 309 c 2
 243 319 l 2
 312 330 312 330 331 340 c 0
 346 348 355 364 355 382 c 0
 355 418 328 436 274 436 c 0
 205 436 182 418 175 362 c 1
 40 362 l 1
 49 487 125 549 271 549 c 0
 417 549 492 493 492 383 c 2
 492 83 l 2
 492 55 499 40 524 17 c 1
355 217 m 2
 355 255 l 1
 339 247 333 245 296 238 c 2
 248 229 l 2
 190 217 168 197 168 155 c 0
 168 115 197 90 244 90 c 0
 315 90 355 136 355 217 c 2
EndSplineSet
KernsSLIF: 106 -1 0 0 39 -11 0 0 118 -19 0 0 119 -5 0 0 121 -17 0 0
EndChar
StartChar: b
Encoding: 98 98 67
Width: 611
Flags: W
HStem: -23 117<317 348> 432 117<317 348> 709 20G<59 199>
VStem: 59 140<0 55 0 282 0 729> 435 140<248 282>
Fore
59 729 m 1
 199 729 l 1
 199 470 l 1
 233 524 281 549 348 549 c 0
 414 549 480 515 517 462 c 0
 553 410 575 336 575 263 c 0
 575 100 477 -23 348 -23 c 0
 280 -23 233 2 199 55 c 1
 199 0 l 1
 59 0 l 1
 59 729 l 1
317 432 m 0
 247 432 199 363 199 265 c 0
 199 162 246 94 317 94 c 0
 386 94 435 164 435 262 c 0
 435 362 386 432 317 432 c 0
EndSplineSet
KernsSLIF: 118 -20 0 0 119 -7 0 0 121 -20 0 0
EndChar
StartChar: c
Encoding: 99 99 68
Width: 556
Flags: W
HStem: -23 113<273 292> 436 113<273 291>
VStem: 34 140<259 282>
Fore
522 338 m 1
 388 338 l 1
 372 409 345 436 288 436 c 0
 248 436 217 420 201 390 c 0
 184 358 174 310 174 259 c 0
 174 154 217 90 288 90 c 0
 342 90 370 117 388 187 c 1
 522 187 l 1
 509 58 418 -23 287 -23 c 0
 127 -23 34 81 34 259 c 0
 34 443 128 549 289 549 c 0
 424 549 512 470 522 338 c 1
EndSplineSet
KernsSLIF: 107 3 0 0
EndChar
StartChar: d
Encoding: 100 100 69
Width: 611
Flags: W
HStem: -23 117<256 287> 432 117<256 287> 709 20G<405 545>
VStem: 29 140<262 282> 405 140<0 729>
Fore
405 0 m 1
 405 55 l 1
 370 2 323 -23 256 -23 c 0
 190 -23 124 11 87 63 c 0
 51 115 29 189 29 262 c 0
 29 425 127 549 256 549 c 0
 323 549 370 524 405 470 c 1
 405 729 l 1
 545 729 l 1
 545 0 l 1
 405 0 l 1
287 432 m 0
 217 432 169 362 169 262 c 0
 169 163 217 94 287 94 c 0
 357 94 405 162 405 260 c 0
 405 363 358 432 287 432 c 0
EndSplineSet
EndChar
StartChar: e
Encoding: 101 101 70
Width: 556
Flags: W
HStem: -23 107<261 279> 226 93<164 524> 442 107<261 279>
Fore
524 226 m 1
 162 226 l 1
 164 175 169 151 182 131 c 0
 202 101 234 84 274 84 c 0
 325 84 364 109 381 152 c 1
 519 152 l 1
 488 46 390 -23 269 -23 c 0
 116 -23 22 83 22 256 c 0
 22 437 117 549 272 549 c 0
 381 549 468 490 504 392 c 0
 517 354 525 304 525 250 c 0
 525 243 525 238 524 226 c 1
164 319 m 1
 379 319 l 1
 376 356 370 377 357 397 c 0
 337 425 305 442 270 442 c 0
 208 442 173 401 164 319 c 1
EndSplineSet
KernsSLIF: 39 -12 0 0 116 -4 0 0 118 -19 0 0 119 -6 0 0 120 -21 0 0 121 -17 0 0
EndChar
StartChar: f
Encoding: 102 102 71
Width: 333
Flags: W
HStem: 0 21G<90 230> 436 93<14 90 230 313> 624 105<228 270>
VStem: 90 140<0 436 529 595>
Fore
313 529 m 1
 313 436 l 1
 230 436 l 1
 230 0 l 1
 90 0 l 1
 90 436 l 1
 14 436 l 1
 14 529 l 1
 90 529 l 1
 90 594 l 2
 90 685 135 729 228 729 c 0
 247 729 282 728 308 726 c 1
 308 621 l 1
 296 623 280 624 268 624 c 0
 242 624 230 610 230 582 c 2
 230 529 l 1
 313 529 l 1
EndSplineSet
KernsSLIF: 97 1 0 0 323 1 0 0 322 1 0 0 328 1 0 0 101 -3 0 0 335 -3 0 0 102 21 0 0 105 -3 0 0 106 -6 0 0 108 -3 0 0 111 -9 0 0 352 -9 0 0 351 -9 0 0 250 -3 0 0 249 -9 0 0 39 10 0 0 115 -1 0 0 116 21 0 0
EndChar
StartChar: g
Encoding: 103 103 72
Width: 611
Flags: W
HStem: -218 90<273 307> -23 117<255 286> 432 117<258 288>
VStem: 34 140<245 279> 408 133<-18 55 245 540>
Fore
408 540 m 1
 541 540 l 1
 541 -18 l 2
 541 -145 447 -218 284 -218 c 0
 201 -218 141 -201 98 -166 c 0
 62 -136 46 -107 45 -65 c 1
 190 -65 l 1
 201 -106 236 -128 289 -128 c 0
 359 -128 408 -83 408 -18 c 2
 408 55 l 1
 356 -4 318 -23 255 -23 c 0
 122 -23 34 89 34 257 c 0
 34 424 130 549 258 549 c 0
 320 549 366 521 408 457 c 1
 408 540 l 1
288 432 m 0
 220 432 174 361 174 259 c 0
 174 161 220 94 286 94 c 0
 359 94 410 161 410 259 c 0
 410 359 358 432 288 432 c 0
EndSplineSet
KernsSLIF: 97 3 0 0 322 3 0 0 241 3 0 0 328 3 0 0 101 8 0 0 335 8 0 0 352 1 0 0 351 1 0 0 114 1 0 0
EndChar
StartChar: h
Encoding: 104 104 73
Width: 611
Flags: W
HStem: 0 21G<67 207 401 541> 430 119<315 365> 709 20G<67 207>
VStem: 67 140<0 337 0 729> 401 140<0 362>
Fore
67 729 m 1
 207 729 l 1
 207 462 l 1
 246 521 296 549 365 549 c 0
 410 549 455 534 486 508 c 0
 523 477 541 429 541 362 c 2
 541 0 l 1
 401 0 l 1
 401 330 l 2
 401 365 397 379 385 397 c 0
 369 419 345 430 315 430 c 0
 252 430 207 386 207 324 c 2
 207 0 l 1
 67 0 l 1
 67 729 l 1
EndSplineSet
KernsSLIF: 39 -14 0 0 121 -21 0 0
EndChar
StartChar: i
Encoding: 105 105 74
Width: 278
Flags: W
HStem: 0 21G<67 207> 520 20G<67 207> 604 125<67 207>
VStem: 67 140<0 540 604 729>
Fore
207 540 m 1
 207 0 l 1
 67 0 l 1
 67 540 l 1
 207 540 l 1
207 729 m 1
 207 604 l 1
 67 604 l 1
 67 729 l 1
 207 729 l 1
EndSplineSet
KernsSLIF: 84 -4 0 0 106 -2 0 0
EndChar
StartChar: j
Encoding: 106 106 75
Width: 278
Flags: W
HStem: -218 113<29 87> 520 20G<70 210> 604 125<70 210>
VStem: 70 140<-75 540 604 729>
Fore
210 540 m 1
 210 -94 l 2
 210 -182 174 -218 87 -218 c 0
 67 -218 32 -216 4 -213 c 1
 4 -101 l 1
 14 -104 20 -105 29 -105 c 0
 59 -105 70 -94 70 -63 c 2
 70 540 l 1
 210 540 l 1
210 729 m 1
 210 604 l 1
 70 604 l 1
 70 729 l 1
 210 729 l 1
EndSplineSet
EndChar
StartChar: k
Encoding: 107 107 76
Width: 556
Flags: W
HStem: 0 21G<59 199 384 548> 520 20G<376 535> 709 20G<59 199>
VStem: 59 140<0 177 0 729>
Fore
199 330 m 1
 376 540 l 1
 535 540 l 1
 351 336 l 1
 548 0 l 1
 384 0 l 1
 255 238 l 1
 199 177 l 1
 199 0 l 1
 59 0 l 1
 59 729 l 1
 199 729 l 1
 199 330 l 1
EndSplineSet
KernsSLIF: 97 -2 0 0 323 -2 0 0 322 -2 0 0 241 1 0 0 328 -2 0 0 44 7 0 0 101 -15 0 0 335 -15 0 0 103 -21 0 0 45 -25 0 0 111 -22 0 0 352 -22 0 0 351 -22 0 0 46 6 0 0 115 -10 0 0 117 -1 0 0 362 -1 0 0
EndChar
StartChar: l
Encoding: 108 108 77
Width: 278
Flags: W
HStem: 0 21G<67 207> 709 20G<67 207>
VStem: 67 140<0 729>
Fore
207 729 m 1
 207 0 l 1
 67 0 l 1
 67 729 l 1
 207 729 l 1
EndSplineSet
KernsSLIF: 118 -5 0 0 121 -2 0 0
EndChar
StartChar: m
Encoding: 109 109 78
Width: 889
Flags: W
HStem: 0 21G<60 200 372 512 684 824> 430 119<296 347 608 652>
VStem: 60 140<0 337 0 540> 372 140<0 337> 684 140<0 382>
CounterMasks: 1 00
Fore
60 540 m 1
 199 540 l 1
 199 473 l 1
 245 528 285 549 347 549 c 0
 414 549 468 520 494 469 c 1
 536 525 584 549 652 549 c 0
 760 549 824 487 824 382 c 2
 824 0 l 1
 684 0 l 1
 684 360 l 2
 684 403 655 430 608 430 c 0
 548 430 512 390 512 324 c 2
 512 0 l 1
 372 0 l 1
 372 360 l 2
 372 403 343 430 296 430 c 0
 236 430 200 390 200 324 c 2
 200 0 l 1
 60 0 l 1
 60 540 l 1
EndSplineSet
KernsSLIF: 112 6 0 0 118 -19 0 0 119 -6 0 0 121 -18 0 0
EndChar
StartChar: n
Encoding: 110 110 79
Width: 611
Flags: W
HStem: 0 21G<63 203 406 546> 430 119<316 365>
VStem: 63 140<0 337 0 540> 406 140<0 362>
Fore
63 540 m 1
 203 540 l 1
 203 462 l 1
 243 522 292 549 365 549 c 0
 480 549 546 481 546 362 c 2
 546 0 l 1
 406 0 l 1
 406 333 l 2
 406 397 376 430 316 430 c 0
 248 430 203 388 203 324 c 2
 203 0 l 1
 63 0 l 1
 63 540 l 1
EndSplineSet
KernsSLIF: 84 -80 0 0 112 5 0 0 39 -12 0 0 118 -20 0 0 119 -7 0 0 121 -19 0 0
EndChar
StartChar: o
Encoding: 111 111 80
Width: 611
Flags: W
HStem: -23 113<302 308> 436 113<290 308>
VStem: 35 140<263 282> 429 140<248 282>
Fore
301 549 m 0
 470 549 569 442 569 259 c 0
 569 86 466 -23 302 -23 c 0
 136 -23 35 85 35 263 c 0
 35 440 136 549 301 549 c 0
302 436 m 0
 226 436 175 366 175 263 c 0
 175 160 226 90 302 90 c 0
 377 90 429 160 429 261 c 0
 429 367 379 436 302 436 c 0
EndSplineSet
KernsSLIF: 84 -84 0 0 39 -17 0 0 116 -8 0 0 118 -23 0 0 119 -10 0 0 120 -25 0 0 121 -22 0 0
EndChar
StartChar: p
Encoding: 112 112 81
Width: 611
Flags: W
HStem: -24 117<316 348> 432 117<316 348>
VStem: 58 140<-218 64 -218 279 -218 540> 434 140<245 279>
Fore
198 540 m 1
 198 460 l 1
 232 520 280 549 348 549 c 0
 413 549 480 515 516 464 c 0
 552 414 574 338 574 262 c 0
 574 98 478 -24 348 -24 c 0
 280 -24 232 4 198 64 c 1
 198 -218 l 1
 58 -218 l 1
 58 540 l 1
 198 540 l 1
316 432 m 0
 246 432 198 363 198 262 c 0
 198 161 246 93 316 93 c 0
 385 93 434 162 434 260 c 0
 434 363 387 432 316 432 c 0
EndSplineSet
KernsSLIF: 116 -5 0 0 121 -20 0 0
EndChar
StartChar: q
Encoding: 113 113 82
Width: 611
Flags: W
HStem: -24 117<253 286> 432 117<254 286>
VStem: 28 140<262 279> 404 140<-218 540>
Fore
404 540 m 1
 544 540 l 1
 544 -218 l 1
 404 -218 l 1
 404 64 l 1
 371 5 321 -24 253 -24 c 0
 189 -24 122 10 86 61 c 0
 50 110 28 186 28 262 c 0
 28 427 124 549 254 549 c 0
 321 549 371 519 404 460 c 1
 404 540 l 1
286 432 m 0
 216 432 168 363 168 262 c 0
 168 161 216 93 286 93 c 0
 356 93 404 161 404 259 c 0
 404 364 357 432 286 432 c 0
EndSplineSet
KernsSLIF: 99 4 0 0 117 4 0 0
EndChar
StartChar: r
Encoding: 114 114 83
Width: 389
Flags: W
HStem: 0 21G<63 203> 410 139<326 353>
VStem: 63 140<0 305 0 540>
Fore
63 540 m 1
 203 540 l 1
 203 434 l 1
 233 507 289 549 353 549 c 0
 357 549 362 549 370 548 c 1
 370 406 l 1
 351 409 341 410 326 410 c 0
 244 410 203 369 203 287 c 2
 203 0 l 1
 63 0 l 1
 63 540 l 1
EndSplineSet
KernsSLIF: 97 6 0 0 323 6 0 0 325 6 0 0 322 6 0 0 241 4 0 0 324 6 0 0 328 6 0 0 58 -27 0 0 44 -57 0 0 101 4 0 0 335 4 0 0 337 4 0 0 336 4 0 0 102 22 0 0 103 -2 0 0 104 -4 0 0 45 -35 0 0 105 -4 0 0 106 -6 0 0 108 -4 0 0 109 -1 0 0 110 -2 0 0 111 -1 0 0 352 -1 0 0 354 -1 0 0 351 -1 0 0 250 5 0 0 353 -1 0 0 249 -4 0 0 46 -57 0 0 113 1 0 0 39 14 0 0 114 -2 0 0 115 3 0 0 59 -27 0 0 116 22 0 0 118 21 0 0 119 26 0 0 120 17 0 0 121 23 0 0 122 9 0 0
EndChar
StartChar: s
Encoding: 115 115 84
Width: 556
Flags: W
HStem: -23 110<267 286> 439 110<252 286>
VStem: 48 140<369 389> 380 140<140 160>
Fore
505 366 m 1
 370 366 l 1
 369 415 336 439 269 439 c 0
 220 439 188 419 188 389 c 0
 188 367 198 359 237 347 c 2
 414 296 l 2
 485 275 520 230 520 160 c 0
 520 107 496 57 456 25 c 0
 416 -7 359 -23 284 -23 c 0
 120 -23 33 39 29 157 c 1
 166 157 l 1
 172 128 178 117 193 106 c 0
 211 94 240 87 276 87 c 0
 341 87 380 107 380 140 c 0
 380 162 368 173 333 184 c 2
 166 236 l 2
 114 253 97 262 78 281 c 0
 59 302 48 333 48 369 c 0
 48 480 133 549 270 549 c 0
 415 549 503 480 505 366 c 1
EndSplineSet
KernsSLIF: 39 -12 0 0 116 -1 0 0
EndChar
StartChar: t
Encoding: 116 116 85
Width: 333
Flags: W
HStem: -23 106<220 269> 436 93<14 83 223 301>
VStem: 83 140<104 436 529 674>
Fore
301 529 m 1
 301 436 l 1
 223 436 l 1
 223 142 l 2
 223 94 232 83 269 83 c 0
 279 83 287 84 301 86 c 1
 301 -12 l 1
 276 -20 251 -23 220 -23 c 0
 128 -23 83 19 83 104 c 2
 83 436 l 1
 14 436 l 1
 14 529 l 1
 83 529 l 1
 83 674 l 1
 223 674 l 1
 223 529 l 1
 301 529 l 1
EndSplineSet
KernsSLIF: 97 6 0 0 323 6 0 0 322 6 0 0 241 7 0 0 328 6 0 0 58 -25 0 0 101 -3 0 0 335 -3 0 0 104 2 0 0 111 -10 0 0 352 -10 0 0 351 -10 0 0 39 4 0 0 59 -25 0 0
EndChar
StartChar: u
Encoding: 117 117 86
Width: 611
Flags: W
HStem: -23 119<239 288> 520 20G<58 198 401 541>
VStem: 58 140<164 540> 401 140<0 540>
Fore
541 0 m 1
 401 0 l 1
 401 64 l 1
 361 4 312 -23 239 -23 c 0
 124 -23 58 45 58 164 c 2
 58 540 l 1
 198 540 l 1
 198 193 l 2
 198 128 228 96 288 96 c 0
 356 96 401 138 401 202 c 2
 401 540 l 1
 541 540 l 1
 541 0 l 1
EndSplineSet
KernsSLIF: 39 -2 0 0
EndChar
StartChar: v
Encoding: 118 118 87
Width: 556
Flags: W
HStem: 0 21G<203 350> 520 20G<14 162 388 536>
Fore
350 0 m 1
 203 0 l 1
 14 540 l 1
 162 540 l 1
 279 145 l 1
 388 540 l 1
 536 540 l 1
 350 0 l 1
EndSplineSet
KernsSLIF: 97 -15 0 0 323 -15 0 0 325 -15 0 0 322 -15 0 0 241 -16 0 0 324 -15 0 0 328 -15 0 0 327 -15 0 0 99 -20 0 0 58 -32 0 0 44 -51 0 0 101 -15 0 0 335 -15 0 0 337 -15 0 0 336 -15 0 0 103 -21 0 0 108 -5 0 0 111 -22 0 0 352 -22 0 0 351 -22 0 0 353 -22 0 0 249 -20 0 0 46 -50 0 0 115 -17 0 0 59 -34 0 0
EndChar
StartChar: w
Encoding: 119 119 88
Width: 778
Flags: W
HStem: 0 21G<157 301 468 613> 520 20G<5 150 318 458 621 766>
DStem: 318 540 387 381 236 162 301 0 387 381 458 540 468 0 539 162
Fore
613 0 m 1
 468 0 l 1
 387 381 l 1
 301 0 l 1
 157 0 l 1
 5 540 l 1
 150 540 l 1
 236 162 l 1
 318 540 l 1
 458 540 l 1
 539 162 l 1
 621 540 l 1
 766 540 l 1
 613 0 l 1
EndSplineSet
KernsSLIF: 97 -7 0 0 323 -7 0 0 325 -7 0 0 322 -7 0 0 241 -8 0 0 324 -7 0 0 328 -7 0 0 327 -7 0 0 99 -8 0 0 58 -27 0 0 44 -33 0 0 101 -3 0 0 335 -3 0 0 337 -3 0 0 336 -3 0 0 103 -9 0 0 45 11 0 0 108 -1 0 0 111 -10 0 0 352 -10 0 0 351 -10 0 0 353 -10 0 0 249 -8 0 0 46 -32 0 0 115 -9 0 0 59 -29 0 0
EndChar
StartChar: x
Encoding: 120 120 89
Width: 556
Flags: W
HStem: 0 21G<16 184 367 535> 520 20G<20 188 363 531>
Fore
355 272 m 1
 535 0 l 1
 367 0 l 1
 276 168 l 1
 184 0 l 1
 16 0 l 1
 196 272 l 1
 20 540 l 1
 188 540 l 1
 276 377 l 1
 363 540 l 1
 531 540 l 1
 355 272 l 1
EndSplineSet
KernsSLIF: 97 -9 0 0 99 -22 0 0 101 -17 0 0 335 -17 0 0 111 -24 0 0 113 -20 0 0
EndChar
StartChar: y
Encoding: 121 121 90
Width: 556
Flags: W
HStem: -219 103<120 136> 520 20G<9 163 394 538>
Fore
394 540 m 1
 538 540 l 1
 316 -99 l 1
 293 -163 276 -186 237 -202 c 0
 213 -212 171 -219 136 -219 c 0
 119 -219 107 -218 86 -215 c 1
 86 -110 l 1
 104 -115 112 -116 123 -116 c 0
 172 -116 210 -77 210 -26 c 2
 210 -23 l 1
 210 -22 l 1
 9 540 l 1
 163 540 l 1
 282 147 l 1
 394 540 l 1
EndSplineSet
KernsSLIF: 97 -14 0 0 323 -14 0 0 325 -14 0 0 322 -14 0 0 241 -15 0 0 324 -14 0 0 328 -14 0 0 327 -14 0 0 99 -21 0 0 58 -31 0 0 44 -51 0 0 101 -16 0 0 335 -16 0 0 337 -16 0 0 336 -16 0 0 103 -21 0 0 108 -4 0 0 111 -22 0 0 352 -22 0 0 351 -22 0 0 353 -22 0 0 249 -20 0 0 46 -50 0 0 115 -16 0 0 59 -33 0 0
EndChar
StartChar: z
Encoding: 122 122 91
Width: 500
Flags: W
HStem: 0 113<194 468> 427 113<39 288>
DStem: 288 427 459 427 21 113 194 113
Fore
459 540 m 1
 459 427 l 1
 194 113 l 1
 468 113 l 1
 468 0 l 1
 21 0 l 1
 21 113 l 1
 288 427 l 1
 39 427 l 1
 39 540 l 1
 459 540 l 1
EndSplineSet
EndChar
StartChar: braceleft
Encoding: 123 123 92
Width: 389
Flags: W
HStem: -200 99<276 317> 222 93<41 55> 630 99<241 317>
VStem: 118 117<-60 169 362.536 589>
Fore
317 729 m 1
 317 630 l 1
 280 630 l 2
 249 630 235 613 235 573 c 2
 235 378 l 2
 235 305 213 280 138 269 c 1
 213 257 235 232 235 159 c 2
 235 -36 l 2
 235 -85 246 -101 280 -101 c 2
 317 -101 l 1
 317 -200 l 1
 241 -200 l 2
 169 -200 118 -142 118 -60 c 2
 118 150 l 2
 118 190 110 206 87 217 c 0
 76 221 69 222 41 222 c 2
 37 223 l 1
 37 315 l 1
 41 315 l 1
 53 315 l 2
 98 316 118 335 118 378 c 2
 118 589 l 2
 118 671 169 729 241 729 c 2
 317 729 l 1
EndSplineSet
EndChar
StartChar: bar
Encoding: 124 124 93
Width: 280
Flags: W
HStem: 709 20G<100 180>
VStem: 100 80<-200 729>
Fore
180 729 m 1
 180 -200 l 1
 100 -200 l 1
 100 729 l 1
 180 729 l 1
EndSplineSet
EndChar
StartChar: braceright
Encoding: 125 125 94
Width: 389
Flags: W
HStem: 214 93<327 348> 709 20G<72 148>
VStem: 154 117<-61 153 359 585>
Fore
72 -200 m 1
 72 -101 l 1
 109 -101 l 2
 140 -101 154 -84 154 -44 c 2
 154 151 l 2
 154 224 176 249 251 260 c 1
 176 272 154 297 154 370 c 2
 154 565 l 2
 154 614 143 630 109 630 c 2
 72 630 l 1
 72 729 l 1
 148 729 l 2
 220 729 271 671 271 589 c 2
 271 379 l 2
 271 339 279 323 302 312 c 0
 313 308 320 307 348 307 c 2
 352 306 l 1
 352 214 l 1
 348 214 l 1
 336 214 l 2
 291 213 271 194 271 151 c 2
 271 -60 l 2
 271 -142 220 -200 148 -200 c 2
 72 -200 l 1
EndSplineSet
EndChar
StartChar: asciitilde
Encoding: 126 126 95
Width: 584
Flags: W
Fore
441 288 m 1
 519 288 l 1
 513 190 472 142 392 142 c 0
 359 142 335 150 309 168 c 2
 252 210 l 2
 229 227 212 234 191 234 c 0
 167 234 151 225 143 207 c 0
 140 199 139 195 138 169 c 1
 60 169 l 1
 65 266 108 314 187 314 c 0
 220 314 246 306 270 289 c 2
 327 247 l 2
 353 228 367 222 388 222 c 0
 412 222 428 231 436 249 c 0
 439 257 440 261 441 288 c 1
EndSplineSet
EndChar
StartChar: exclamdown
Encoding: 161 161 96
Width: 333
Flags: W
HStem: 394 146<66 216>
VStem: 66 150<-186 24 394 540>
Fore
66 -186 m 1
 66 24 l 1
 108 333 l 1
 175 333 l 1
 216 24 l 1
 216 -186 l 1
 66 -186 l 1
66 394 m 1
 66 540 l 1
 216 540 l 1
 216 394 l 1
 66 394 l 1
EndSplineSet
EndChar
StartChar: cent
Encoding: 162 162 97
Width: 556
Flags: W
VStem: 36 140<243 277> 259 44<-124 -23 94 435 548 634>
Fore
303 435 m 1
 303 91 l 1
 349 98 373 126 388 187 c 1
 522 187 l 1
 511 67 422 -18 303 -23 c 1
 303 -124 l 1
 259 -124 l 1
 259 -22 l 1
 120 -13 36 93 36 259 c 0
 36 431 114 533 259 548 c 1
 259 634 l 1
 303 634 l 1
 303 549 l 1
 426 547 514 462 522 338 c 1
 388 338 l 1
 375 400 350 428 303 435 c 1
259 94 m 1
 259 433 l 1
 205 419 176 359 176 260 c 0
 176 167 205 110 259 94 c 1
EndSplineSet
EndChar
StartChar: sterling
Encoding: 163 163 98
Width: 556
Flags: W
HStem: -23 125<373 400> 9 114<195 264> 316 55<31 120 236 375> 604 111<262 293>
VStem: 38 141<504 522> 141 127<231 257>
Fore
375 371 m 1x78
 375 316 l 1
 253 316 l 1
 265 290 268 277 268 257 c 0
 268 199 237 153 152 86 c 1
 215 116 235 123 264 123 c 0x74
 281 123 289 122 328 112 c 0
 354 105 374 102 391 102 c 0
 424 102 456 111 496 131 c 1
 537 22 l 1
 481 -11 441 -23 392 -23 c 0xb4
 365 -23 343 -19 293 -7 c 0
 245 5 221 9 195 9 c 0
 157 9 130 1 86 -21 c 1
 31 80 l 1
 115 137 141 173 141 231 c 0x74
 141 256 136 277 120 316 c 1
 31 316 l 1
 31 371 l 1
 91 371 l 1
 46 450 38 472 38 516 c 0
 38 572 66 629 112 666 c 0
 154 698 209 715 276 715 c 0
 380 715 458 676 494 605 c 0
 509 576 517 543 522 484 c 1
 390 484 l 1
 389 495 l 1
 383 541 375 559 354 577 c 0
 334 595 307 604 277 604 c 0
 220 604 179 566 179 513 c 0
 179 493 182 485 206 436 c 0
 223 401 230 386 236 371 c 1
 375 371 l 1x78
EndSplineSet
EndChar
StartChar: fraction
Encoding: 164 8260 99
Width: 167
Flags: W
HStem: -20 21G<-173 -86> 695 20G<250 337>
DStem: 250 715 337 715 -173 -20 -86 -20
Fore
250 715 m 1
 337 715 l 1
 -86 -20 l 1
 -173 -20 l 1
 250 715 l 1
EndSplineSet
EndChar
StartChar: yen
Encoding: 165 165 100
Width: 556
Flags: W
HStem: 0 21G<215 355> 180 59<70 215 355 497> 292 59<70 215 360 497> 684 20G<5 144 417 552>
VStem: 215 140<0 180 239 292>
DStem: 5 704 144 704 208 351 283 450 417 704 552 704 283 450 360 351
Fore
497 351 m 1
 497 292 l 1
 355 292 l 1
 355 239 l 1
 497 239 l 1
 497 180 l 1
 355 180 l 1
 355 0 l 1
 215 0 l 1
 215 180 l 1
 70 180 l 1
 70 239 l 1
 215 239 l 1
 215 292 l 1
 70 292 l 1
 70 351 l 1
 208 351 l 1
 5 704 l 1
 144 704 l 1
 283 450 l 1
 417 704 l 1
 552 704 l 1
 360 351 l 1
 497 351 l 1
EndSplineSet
EndChar
StartChar: florin
Encoding: 166 402 101
Width: 556
Flags: W
HStem: -220 116<100 113> 383 97<104 227 377 500> 628 116<439 462>
DStem: 227 383 363 383 167 7 304 1
Fore
500 480 m 1
 500 383 l 1
 363 383 l 1
 304 1 l 2
 291 -84 270 -138 236 -172 c 0
 206 -202 160 -220 111 -220 c 0
 79 -220 52 -214 21 -198 c 1
 45 -83 l 1
 70 -98 86 -104 102 -104 c 0
 137 -104 154 -76 167 7 c 1
 227 383 l 1
 104 383 l 1
 104 480 l 1
 242 480 l 1
 253 539 l 1
 276 681 334 744 439 744 c 0
 470 744 492 740 535 727 c 1
 515 612 l 1
 486 625 476 628 460 628 c 0
 420 628 396 593 384 521 c 2
 377 480 l 1
 500 480 l 1
EndSplineSet
EndChar
StartChar: section
Encoding: 167 167 102
Width: 556
Flags: W
HStem: -201 111<266 290> -20 20G<65 196> 544 21G<346 473> 621 102<256 283>
VStem: 33 119<281 317> 64 140<551 570> 353 141<-31 -10> 398 120<232 262>
Fore
473 544 m 1xf4
 346 544 l 1
 339 597 315 621 268 621 c 0
 230 621 204 601 204 570 c 0
 204 542 223 524 294 485 c 2
 421 415 l 2
 487 378 518 330 518 262 c 0xf5
 518 195 491 155 424 124 c 1
 471 91 494 47 494 -10 c 0
 494 -124 406 -201 276 -201 c 0
 137 -201 66 -133 65 0 c 1
 196 0 l 1
 196 -10 l 1
 198 -42 202 -56 215 -68 c 0
 229 -82 252 -90 277 -90 c 0
 322 -90 353 -65 353 -29 c 0
 353 -11 346 5 335 16 c 0
 325 26 325 26 283 49 c 1
 112 149 l 2
 61 179 33 226 33 281 c 0xfa
 33 341 54 374 125 428 c 1
 100 453 97 456 91 465 c 0
 74 487 64 520 64 551 c 0
 64 651 152 723 273 723 c 0
 351 723 416 694 447 647 c 0
 464 619 471 593 473 544 c 1xf4
337 306 m 2
 194 382 l 1
 164 364 152 346 152 317 c 0xf9
 152 286 165 269 205 247 c 2
 352 167 l 1
 386 191 398 209 398 232 c 0
 398 264 384 281 337 306 c 2
EndSplineSet
EndChar
StartChar: currency
Encoding: 168 164 103
Width: 556
Flags: W
HStem: 147 98<265 288> 460 98<265 288>
VStem: 76 96<352 356> 386 96<339 356>
DStem: 26 536 95 604 105 457 172 527 106 246 175 178 28 169 96 100 386 177 453 246 461 102 530 170 461 601 530 532 388 528 455 457
Fore
388 528 m 1
 461 601 l 1
 530 532 l 1
 455 457 l 1
 475 417 482 392 482 354 c 0
 482 315 473 281 453 246 c 1
 530 170 l 1
 461 102 l 1
 386 177 l 1
 340 152 322 147 286 147 c 0
 246 147 201 159 175 178 c 1
 96 100 l 1
 28 169 l 1
 106 246 l 1
 84 286 76 314 76 352 c 0
 76 390 86 427 105 457 c 1
 26 536 l 1
 95 604 l 1
 172 527 l 1
 203 546 244 558 281 558 c 0
 318 558 359 546 388 528 c 1
280 460 m 0
 220 460 172 413 172 352 c 0
 172 293 220 245 279 245 c 0
 338 245 386 293 386 353 c 0
 386 411 338 460 280 460 c 0
EndSplineSet
EndChar
StartChar: quotesingle
Encoding: 169 39 104
Width: 238
Flags: W
HStem: 709 20G<50 188>
Fore
188 729 m 1
 188 599 l 1
 146 470 l 1
 90 470 l 1
 50 599 l 1
 50 729 l 1
 188 729 l 1
EndSplineSet
EndChar
StartChar: quotedblleft
Encoding: 170 8220 105
Width: 500
Flags: W
HStem: 469 125<126 206 353 433>
Fore
206 469 m 1
 71 469 l 1
 71 578 l 2
 71 635 84 668 116 695 c 0
 140 715 172 727 206 729 c 1
 206 683 l 1
 150 673 124 644 126 594 c 1
 206 594 l 1
 206 469 l 1
433 469 m 1
 298 469 l 1
 298 578 l 2
 298 635 311 668 343 695 c 0
 367 715 399 727 433 729 c 1
 433 683 l 1
 377 673 351 644 353 594 c 1
 433 594 l 1
 433 469 l 1
EndSplineSet
KernsSLIF: 65 -68 1 0 225 -57 1 0 257 -68 1 0 256 -68 1 0 262 -68 1 0 84 -2 1 0 86 6 1 0 87 16 1 0 89 -9 1 0
EndChar
StartChar: guillemotleft
Encoding: 171 171 106
Width: 556
Flags: W
DStem: 88 218 154 275 255 72 255 186 255 481 255 364 88 332 154 275 301 218 367 275 468 72 468 186 468 481 468 364 301 332 367 275
Fore
88 218 m 1
 88 332 l 1
 255 481 l 1
 255 364 l 1
 154 275 l 1
 255 186 l 1
 255 72 l 1
 88 218 l 1
301 218 m 1
 301 332 l 1
 468 481 l 1
 468 364 l 1
 367 275 l 1
 468 186 l 1
 468 72 l 1
 301 218 l 1
EndSplineSet
EndChar
StartChar: guilsinglleft
Encoding: 172 8249 107
Width: 333
Flags: W
DStem: 83 218 149 275 250 72 250 186 250 481 250 364 83 332 149 275
Fore
83 218 m 1
 83 332 l 1
 250 481 l 1
 250 364 l 1
 149 275 l 1
 250 186 l 1
 250 72 l 1
 83 218 l 1
EndSplineSet
EndChar
StartChar: guilsinglright
Encoding: 173 8250 108
Width: 333
Flags: W
DStem: 80 367 80 481 181 278 247 335 181 278 247 220 80 189 80 72
Fore
247 335 m 1
 247 220 l 1
 80 72 l 1
 80 189 l 1
 181 278 l 1
 80 367 l 1
 80 481 l 1
 247 335 l 1
EndSplineSet
KernsSLIF: 65 -46 1 0 225 -35 1 0 257 -46 1 0 256 -46 1 0 262 -46 1 0 84 -104 1 0 86 -74 1 0 87 -56 1 0 89 -107 1 0
EndChar
StartChar: fi
Encoding: 174 64257 109
Width: 611
Flags: W
HStem: 0 21G<85 225 408 548> 436 93<9 85 225 308> 604 125<408 548> 624 105<223 265>
VStem: 85 140<0 436 529 595> 408 140<0 540 604 729>
Fore
548 540 m 1xcc
 548 0 l 1
 408 0 l 1
 408 540 l 1
 548 540 l 1xcc
548 729 m 1xec
 548 604 l 1
 408 604 l 1
 408 729 l 1
 548 729 l 1xec
308 529 m 1
 308 436 l 1
 225 436 l 1
 225 0 l 1
 85 0 l 1
 85 436 l 1
 9 436 l 1
 9 529 l 1
 85 529 l 1
 85 594 l 2
 85 685 130 729 223 729 c 0
 242 729 277 728 303 726 c 1
 303 621 l 1
 291 623 275 624 263 624 c 0xdc
 237 624 225 610 225 582 c 2
 225 529 l 1
 308 529 l 1
EndSplineSet
Ligature: 0 0 'liga' f i
EndChar
StartChar: fl
Encoding: 175 64258 110
Width: 611
Flags: W
HStem: 0 21G<88 228 406 546> 436 93<12 88 228 311> 624 105<226 268>
VStem: 88 140<0 436 529 595> 406 140<0 729>
Fore
546 729 m 1
 546 0 l 1
 406 0 l 1
 406 729 l 1
 546 729 l 1
311 529 m 1
 311 436 l 1
 228 436 l 1
 228 0 l 1
 88 0 l 1
 88 436 l 1
 12 436 l 1
 12 529 l 1
 88 529 l 1
 88 594 l 2
 88 685 133 729 226 729 c 0
 245 729 280 728 306 726 c 1
 306 621 l 1
 294 623 278 624 266 624 c 0
 240 624 228 610 228 582 c 2
 228 529 l 1
 311 529 l 1
EndSplineSet
Ligature: 0 0 'liga' f l
EndChar
StartChar: endash
Encoding: 177 8211 111
Width: 556
Flags: W
HStem: 207 104<-9 557>
Fore
557 311 m 1
 557 207 l 1
 -9 207 l 1
 -9 311 l 1
 557 311 l 1
EndSplineSet
EndChar
StartChar: dagger
Encoding: 178 8224 112
Width: 556
Flags: W
HStem: 369 116<31 210 344 523> 689 20G<210 344>
VStem: 210 134<-194 369 485 709>
Fore
523 485 m 1
 523 369 l 1
 344 369 l 1
 344 -194 l 1
 210 -194 l 1
 210 369 l 1
 31 369 l 1
 31 485 l 1
 210 485 l 1
 210 709 l 1
 344 709 l 1
 344 485 l 1
 523 485 l 1
EndSplineSet
EndChar
StartChar: daggerdbl
Encoding: 179 8225 113
Width: 556
Flags: W
HStem: 30 116<28 207 341 520> 369 116<28 207 341 520> 689 20G<207 341>
VStem: 207 134<-194 30 146 369 485 709>
Fore
520 485 m 1
 520 369 l 1
 341 369 l 1
 341 146 l 1
 520 146 l 1
 520 30 l 1
 341 30 l 1
 341 -194 l 1
 207 -194 l 1
 207 30 l 1
 28 30 l 1
 28 146 l 1
 207 146 l 1
 207 369 l 1
 28 369 l 1
 28 485 l 1
 207 485 l 1
 207 709 l 1
 341 709 l 1
 341 485 l 1
 520 485 l 1
EndSplineSet
EndChar
StartChar: periodcentered
Encoding: 180 183 114
Width: 278
Flags: W
HStem: 169 123<64 188>
Fore
64 292 m 1
 188 292 l 1
 188 169 l 1
 64 169 l 1
 64 292 l 1
EndSplineSet
EndChar
StartChar: paragraph
Encoding: 182 182 115
Width: 556
Flags: W
HStem: 657 72<226 388 226 529>
VStem: 227 98<-191 657> 388 98<-191 657>
Fore
529 729 m 1
 529 657 l 1
 486 657 l 1
 486 -191 l 1
 388 -191 l 1
 388 657 l 1
 325 657 l 1
 325 -191 l 1
 227 -191 l 1
 227 267 l 1
 104 273 19 367 19 495 c 0
 19 550 37 606 70 650 c 0
 109 703 161 729 226 729 c 2
 529 729 l 1
EndSplineSet
EndChar
StartChar: bullet
Encoding: 183 8226 116
Width: 350
Flags: W
Fore
177 425 m 0
 244 425 300 368 300 300 c 0
 300 231 244 175 175 175 c 0
 106 175 50 231 50 300 c 0
 50 370 106 425 177 425 c 0
EndSplineSet
EndChar
StartChar: quotesinglbase
Encoding: 184 8218 117
Width: 278
Flags: W
HStem: -20 20G<66 146>
Fore
66 125 m 1
 201 125 l 1
 201 16 l 2
 201 -41 188 -74 156 -101 c 0
 132 -121 100 -133 66 -135 c 1
 66 -89 l 1
 122 -79 148 -50 146 0 c 1
 66 0 l 1
 66 125 l 1
EndSplineSet
EndChar
StartChar: quotedblbase
Encoding: 185 8222 118
Width: 500
Flags: W
HStem: 0 125<72 152 297 377>
VStem: 72 135<-1 125> 297 135<-1 125>
Fore
72 125 m 1
 207 125 l 1
 207 16 l 2
 207 -41 194 -74 162 -101 c 0
 138 -121 106 -133 72 -135 c 1
 72 -89 l 1
 128 -79 154 -50 152 0 c 1
 72 0 l 1
 72 125 l 1
297 125 m 1
 432 125 l 1
 432 16 l 2
 432 -41 419 -74 387 -101 c 0
 363 -121 331 -133 297 -135 c 1
 297 -89 l 1
 353 -79 379 -50 377 0 c 1
 297 0 l 1
 297 125 l 1
EndSplineSet
KernsSLIF: 65 12 1 0 225 24 1 0 84 -75 1 0 86 -73 1 0 87 -51 1 0 89 -92 1 0
EndChar
StartChar: quotedblright
Encoding: 186 8221 119
Width: 500
Flags: W
HStem: 604 125<73 153 305 385>
VStem: 73 135<603 729> 305 135<603 729>
Fore
73 729 m 1
 208 729 l 1
 208 620 l 2
 208 563 195 530 163 503 c 0
 139 483 107 471 73 469 c 1
 73 515 l 1
 129 525 155 554 153 604 c 1
 73 604 l 1
 73 729 l 1
305 729 m 1
 440 729 l 1
 440 620 l 2
 440 563 427 530 395 503 c 0
 371 483 339 471 305 469 c 1
 305 515 l 1
 361 525 387 554 385 604 c 1
 305 604 l 1
 305 729 l 1
EndSplineSet
KernsSLIF: 65 -69 1 0 225 -57 1 0 257 -69 1 0 256 -69 1 0 262 -69 1 0 84 1 1 0 86 7 1 0 87 17 1 0 89 -7 1 0
EndChar
StartChar: guillemotright
Encoding: 187 187 120
Width: 556
Flags: W
DStem: 88 367 88 481 189 278 255 335 189 278 255 220 88 189 88 72 295 367 295 481 396 278 462 335 396 278 462 220 295 189 295 72
Fore
255 335 m 1
 255 220 l 1
 88 72 l 1
 88 189 l 1
 189 278 l 1
 88 367 l 1
 88 481 l 1
 255 335 l 1
462 335 m 1
 462 220 l 1
 295 72 l 1
 295 189 l 1
 396 278 l 1
 295 367 l 1
 295 481 l 1
 462 335 l 1
EndSplineSet
KernsSLIF: 65 -51 1 0 225 -39 1 0 257 -51 1 0 256 -51 1 0 262 -51 1 0 84 -108 1 0 86 -78 1 0 87 -60 1 0 89 -111 1 0
EndChar
StartChar: ellipsis
Encoding: 188 8230 121
Width: 1000
Flags: W
HStem: 0 146<92 242 425 575 758 908>
Fore
242 146 m 1
 242 0 l 1
 92 0 l 1
 92 146 l 1
 242 146 l 1
575 146 m 1
 575 0 l 1
 425 0 l 1
 425 146 l 1
 575 146 l 1
908 146 m 1
 908 0 l 1
 758 0 l 1
 758 146 l 1
 908 146 l 1
EndSplineSet
Ligature: 0 1 'liga' period period period
EndChar
StartChar: perthousand
Encoding: 189 8240 122
Width: 1000
Flags: W
HStem: -22 77<472 476 841 843> 194 80<459.247 476 828.247 843> 443 77<154 172> 659 80<160 172>
VStem: 11 79<585 593> 231 79<589 593> 322 79<121 128> 542 79<124 128> 691 79<121 128> 911 79<124 128>
DStem: 496 738 563 738 76 -21 142 -21
Fore
160 739 m 0
 244 739 310 673 310 589 c 0
 310 510 242 443 161 443 c 0
 78 443 11 510 11 591 c 0
 11 672 78 739 160 739 c 0
160 659 m 0
 122 659 90 628 90 590 c 0
 90 551 122 520 160 520 c 0
 199 520 231 551 231 589 c 0
 231 628 200 659 160 659 c 0
496 738 m 1
 563 738 l 1
 142 -21 l 1
 76 -21 l 1
 496 738 l 1
471 274 m 0
 555 274 621 208 621 124 c 0
 621 44 553 -22 472 -22 c 0
 389 -22 322 44 322 126 c 0
 322 207 389 274 471 274 c 0
471 194 m 0
 433 194 401 163 401 125 c 0
 401 86 433 55 472 55 c 0
 510 55 542 86 542 124 c 0
 542 163 511 194 471 194 c 0
840 274 m 0
 924 274 990 208 990 124 c 0
 990 44 922 -22 841 -22 c 0
 758 -22 691 44 691 126 c 0
 691 207 758 274 840 274 c 0
840 194 m 0
 802 194 770 163 770 125 c 0
 770 86 802 55 841 55 c 0
 879 55 911 86 911 124 c 0
 911 163 880 194 840 194 c 0
EndSplineSet
EndChar
StartChar: questiondown
Encoding: 191 191 123
Width: 611
Flags: W
HStem: -204 118<290 308> 394 146<223 373>
VStem: 51 141<19 37> 408 136<57 58.9373>
Fore
239 339 m 1
 363 339 l 1
 366 254 343 209 263 141 c 1
 204 93 192 74 192 29 c 0
 192 -36 237 -86 297 -86 c 0
 364 -86 412 -24 408 57 c 1
 408 59 l 1
 544 59 l 1
 543 -23 530 -71 497 -115 c 0
 454 -174 387 -204 301 -204 c 0
 153 -204 51 -110 51 26 c 0
 51 110 78 154 172 220 c 0
 232 262 239 274 239 339 c 1
223 394 m 1
 223 540 l 1
 373 540 l 1
 373 394 l 1
 223 394 l 1
EndSplineSet
EndChar
StartChar: grave
Encoding: 193 96 124
Width: 333
Flags: W
HStem: 607 150<17 213>
Fore
17 757 m 1
 143 757 l 1
 213 607 l 1
 143 607 l 1
 17 757 l 1
EndSplineSet
EndChar
StartChar: acute
Encoding: 194 180 125
Width: 333
Flags: W
Fore
317 757 m 1
 191 607 l 1
 121 607 l 1
 191 757 l 1
 317 757 l 1
EndSplineSet
Ligature: 0 1 'liga' space acutecomb
EndChar
StartChar: circumflex
Encoding: 195 710 126
Width: 333
Flags: W
DStem: 116 757 166 707 8 607 84 607
Fore
116 757 m 1
 223 757 l 1
 326 607 l 1
 248 607 l 1
 166 707 l 1
 84 607 l 1
 8 607 l 1
 116 757 l 1
EndSplineSet
EndChar
StartChar: tilde
Encoding: 196 732 127
Width: 333
Flags: W
HStem: 701 21G<242.5 256.5> 729 20G<282 345>
Fore
282 749 m 1
 345 749 l 1
 341 664 309 622 250 622 c 0
 235 622 216 626 195 634 c 2
 124 660 l 2
 112 664 103 666 94 666 c 0
 70 666 59 653 54 621 c 1
 -9 621 l 1
 -5 699 30 745 85 745 c 0
 104 745 105 745 141 732 c 2
 212 707 l 2
 219 704 239 701 246 701 c 0
 267 701 279 717 282 749 c 1
EndSplineSet
Ligature: 0 1 'liga' space tildecomb
EndChar
StartChar: macron
Encoding: 197 175 128
Width: 333
Flags: W
HStem: 640 79<16 315>
Fore
315 719 m 1
 315 640 l 1
 16 640 l 1
 16 719 l 1
 315 719 l 1
EndSplineSet
Ligature: 0 1 'liga' space uni0304
EndChar
StartChar: breve
Encoding: 198 728 129
Width: 333
Flags: W
HStem: 728 20G<35 91 243 299>
Fore
299 748 m 1
 299 737 l 2
 299 662 242 605 167 605 c 0
 92 605 35 662 35 738 c 2
 35 748 l 1
 91 748 l 1
 97 704 122 682 168 682 c 0
 212 682 235 702 243 748 c 1
 299 748 l 1
EndSplineSet
Ligature: 0 1 'liga' space uni0306
EndChar
StartChar: dotaccent
Encoding: 199 729 130
Width: 333
Flags: W
HStem: 723 20G<112 222>
VStem: 112 110<621 743>
Fore
222 743 m 1
 222 621 l 1
 112 621 l 1
 112 743 l 1
 222 743 l 1
EndSplineSet
Ligature: 0 1 'liga' space uni0307
EndChar
StartChar: dieresis
Encoding: 200 168 131
Width: 333
Flags: W
HStem: 621 122<18 128 204 314>
VStem: 18 110<621 743> 204 110<621 743>
Fore
128 743 m 1
 128 621 l 1
 18 621 l 1
 18 743 l 1
 128 743 l 1
314 743 m 1
 314 621 l 1
 204 621 l 1
 204 743 l 1
 314 743 l 1
EndSplineSet
Ligature: 0 1 'liga' space uni0308
EndChar
StartChar: ring
Encoding: 202 730 132
Width: 333
Flags: W
HStem: 590 48<165 174> 722 48<168 174>
VStem: 77 48<680 687> 209 48<677 687>
Fore
168 770 m 0
 218 770 257 730 257 679 c 0
 257 630 216 590 167 590 c 0
 117 590 77 630 77 680 c 0
 77 730 117 770 168 770 c 0
168 722 m 0
 144 722 125 703 125 680 c 0
 125 657 144 638 168 638 c 0
 190 638 209 657 209 680 c 0
 209 703 191 722 168 722 c 0
EndSplineSet
Ligature: 0 1 'liga' space uni030A
EndChar
StartChar: cedilla
Encoding: 203 184 133
Width: 333
Flags: W
HStem: -220 50<138 165> -94 38<157 218> -20 20G<162 205>
VStem: 208 86<-131 -123>
DStem: 162 0 205 0 108 -106 176 -63
Fore
162 0 m 1
 205 0 l 1
 176 -63 l 1
 191 -58 203 -56 218 -56 c 0
 265 -56 294 -83 294 -127 c 0
 294 -187 248 -220 165 -220 c 0
 121 -220 92 -214 27 -192 c 1
 46 -140 l 1
 99 -163 123 -170 151 -170 c 0
 183 -170 208 -152 208 -129 c 0
 208 -108 188 -94 157 -94 c 0
 137 -94 127 -97 108 -106 c 1
 162 0 l 1
EndSplineSet
Ligature: 0 1 'liga' space uni0327
EndChar
StartChar: hungarumlaut
Encoding: 205 733 134
Width: 333
Flags: W
Fore
152 757 m 1
 26 610 l 1
 -44 610 l 1
 26 757 l 1
 152 757 l 1
340 757 m 1
 214 610 l 1
 144 610 l 1
 214 757 l 1
 340 757 l 1
EndSplineSet
Ligature: 0 1 'liga' space uni030B
EndChar
StartChar: ogonek
Encoding: 206 731 135
Width: 333
Flags: W
HStem: -234 51<189 213> -20 20G<169 244>
Fore
169 0 m 1
 244 0 l 1
 159 -53 135 -82 135 -133 c 0
 135 -167 158 -183 211 -183 c 0
 231 -183 250 -181 268 -177 c 1
 268 -224 l 1
 241 -231 217 -234 189 -234 c 0
 100 -234 45 -197 45 -139 c 0
 45 -80 92 -28 169 0 c 1
EndSplineSet
Ligature: 0 1 'liga' space uni0328
EndChar
StartChar: caron
Encoding: 207 711 136
Width: 333
Flags: W
Fore
219 607 m 1
 112 607 l 1
 9 757 l 1
 87 757 l 1
 169 660 l 1
 251 757 l 1
 327 757 l 1
 219 607 l 1
EndSplineSet
EndChar
StartChar: emdash
Encoding: 208 8212 137
Width: 1000
Flags: W
HStem: 207 104<-7 1003>
Fore
1003 311 m 1
 1003 207 l 1
 -7 207 l 1
 -7 311 l 1
 1003 311 l 1
EndSplineSet
EndChar
StartChar: AE
Encoding: 225 198 138
Width: 1000
Flags: W
HStem: 0 125<580 966> 152 125<249 430> 314 125<580 919> 604 125<264 430 264 946>
VStem: 430 150<0 314 277 604>
DStem: 264 729 363 604 1 0 249 277 264 729 207 152 1 0 154 0
Fore
430 152 m 1
 207 152 l 1
 154 0 l 1
 1 0 l 1
 264 729 l 1
 946 729 l 1
 946 604 l 1
 580 604 l 1
 580 439 l 1
 919 439 l 1
 919 314 l 1
 580 314 l 1
 580 125 l 1
 966 125 l 1
 966 0 l 1
 430 0 l 1
 430 152 l 1
430 277 m 1
 430 604 l 1
 363 604 l 1
 249 277 l 1
 430 277 l 1
EndSplineSet
EndChar
StartChar: ordfeminine
Encoding: 227 170 139
Width: 370
Flags: W
HStem: 262 78<37 321> 386 68<129 161> 661 68<160 194>
VStem: 31 84<483 495> 227 82<517 633>
Fore
321 340 m 1
 321 262 l 1
 37 262 l 1
 37 340 l 1
 321 340 l 1
329 410 m 1
 329 400 l 1
 237 400 l 1
 229 410 228 416 227 432 c 1
 199 402 165 386 129 386 c 0
 70 386 31 425 31 484 c 0
 31 543 61 576 126 587 c 2
 160 593 l 2
 201 600 201 600 212 606 c 0
 221 610 227 620 227 630 c 0
 227 650 210 661 178 661 c 0
 138 661 123 649 119 617 c 1
 41 617 l 1
 42 691 88 729 176 729 c 0
 264 729 309 695 309 629 c 2
 309 450 l 2
 309 433 313 424 329 410 c 1
227 530 m 2
 227 553 l 1
 217 548 214 547 192 543 c 2
 163 537 l 2
 128 530 115 518 115 493 c 0
 115 469 132 454 161 454 c 0
 203 454 227 482 227 530 c 2
EndSplineSet
EndChar
StartChar: Lslash
Encoding: 232 321 140
Width: 611
Flags: W
HStem: 0 125<230 597> 709 20G<80 230>
VStem: 80 150<0 334 346 729>
DStem: 395 535 395 447 230 423 230 334
Fore
230 423 m 1
 395 535 l 1
 395 447 l 1
 230 334 l 1
 230 125 l 1
 597 125 l 1
 597 0 l 1
 80 0 l 1
 80 257 l 1
 0 201 l 1
 0 290 l 1
 80 346 l 1
 80 729 l 1
 230 729 l 1
 230 423 l 1
EndSplineSet
EndChar
StartChar: Oslash
Encoding: 233 216 141
Width: 778
Flags: W
HStem: -23 128<388 400> 613 128<388 400>
VStem: 35 150<328 378> 590 150<344 378>
DStem: 117 102 165 52 31 7 82 -39 528 555 567 497 214 209 256 153 703 749 755 704 620 657 666 605
Fore
165 52 m 1
 82 -39 l 1
 31 7 l 1
 117 102 l 1
 62 176 35 261 35 359 c 0
 35 468 72 571 138 640 c 1
 201 708 283 741 388 741 c 0
 483 741 553 716 620 657 c 1
 703 749 l 1
 755 704 l 1
 666 605 l 1
 712 542 740 449 740 357 c 0
 740 250 702 146 637 78 c 1
 574 10 492 -23 388 -23 c 0
 298 -23 223 2 165 52 c 1
567 497 m 1
 256 153 l 1
 287 123 336 105 388 105 c 0
 510 105 590 206 590 361 c 0
 590 408 582 457 567 497 c 1
214 209 m 1
 528 555 l 1
 491 594 444 613 388 613 c 0
 264 613 185 512 185 356 c 0
 185 301 195 251 214 209 c 1
EndSplineSet
KernsSLIF: 65 -32 0 0
EndChar
StartChar: OE
Encoding: 234 338 142
Width: 1000
Flags: W
HStem: -23 128<325 355> 0 125<624 970> 314 125<624 923> 604 125<480 951> 613 128<329 356>
VStem: 28 150<359 378> 474 150<177 314 178 604>
Fore
624 314 m 1x36
 624 125 l 1
 970 125 l 1
 970 0 l 1
 480 0 l 1x76
 480 59 l 1
 431 -3 393 -23 325 -23 c 0
 152 -23 28 136 28 359 c 0
 28 584 151 741 329 741 c 0xae
 393 741 432 724 480 677 c 1
 480 729 l 1
 951 729 l 1
 951 604 l 1
 624 604 l 1
 624 439 l 1
 923 439 l 1
 923 314 l 1
 624 314 l 1x36
474 178 m 1
 474 540 l 1
 445 591 410 613 356 613 c 0
 249 613 178 512 178 359 c 0
 178 207 249 105 355 105 c 0xae
 409 105 445 127 474 178 c 1
EndSplineSet
EndChar
StartChar: ordmasculine
Encoding: 235 186 143
Width: 365
Flags: W
HStem: 262 78<33 334> 386 68<171.225 186> 661 68<171.225 186>
VStem: 23 84<549 567> 259 84<549 567>
Fore
334 340 m 1
 334 262 l 1
 33 262 l 1
 33 340 l 1
 334 340 l 1
183 729 m 0
 284 729 343 665 343 555 c 0
 343 451 281 386 183 386 c 0
 84 386 23 451 23 557 c 0
 23 664 84 729 183 729 c 0
183 661 m 0
 138 661 107 619 107 558 c 0
 107 496 138 454 183 454 c 0
 228 454 259 496 259 556 c 0
 259 619 229 661 183 661 c 0
EndSplineSet
EndChar
StartChar: ae
Encoding: 241 230 144
Width: 889
Flags: W
HStem: -24 113<195 243> 226 93<495 856> 436 113<246 284>
VStem: 27 140<141 157> 354 140<199 226>
Fore
712 152 m 1
 850 152 l 1
 819 45 721 -23 600 -23 c 0
 512 -23 442 13 400 81 c 1
 338 8 276 -24 195 -24 c 0
 92 -24 27 40 27 141 c 0
 27 239 78 294 186 312 c 2
 242 322 l 2
 311 333 311 333 330 343 c 0
 345 351 354 367 354 383 c 0
 354 419 326 436 269 436 c 0
 206 436 181 416 174 362 c 1
 43 362 l 1
 45 486 122 549 271 549 c 0
 349 549 408 532 446 499 c 1
 487 532 540 549 601 549 c 0
 713 549 799 491 836 392 c 0
 849 355 857 304 857 250 c 0
 857 245 857 238 856 226 c 1
 494 226 l 1
 494 180 499 156 514 133 c 0
 534 102 569 84 608 84 c 0
 656 84 700 113 712 152 c 1
354 216 m 2
 354 254 l 1
 337 244 325 240 295 235 c 2
 247 228 l 2
 194 221 167 196 167 155 c 0
 167 114 196 89 243 89 c 0
 315 89 354 134 354 216 c 2
495 319 m 1
 711 319 l 1
 704 400 667 442 602 442 c 0
 538 442 501 400 495 319 c 1
EndSplineSet
KernsSLIF: 118 -21 0 0 119 -7 0 0 121 -19 0 0
EndChar
StartChar: dotlessi
Encoding: 245 305 145
Width: 278
Flags: W
HStem: 0 21G<67 207> 520 20G<67 207>
VStem: 67 140<0 540>
Fore
207 540 m 1
 207 0 l 1
 67 0 l 1
 67 540 l 1
 207 540 l 1
EndSplineSet
EndChar
StartChar: lslash
Encoding: 248 322 146
Width: 278
Flags: W
HStem: 0 21G<56 196> 709 20G<56 196>
VStem: 56 140<0 363 373 729>
Fore
196 442 m 1
 252 482 l 1
 252 403 l 1
 196 363 l 1
 196 0 l 1
 56 0 l 1
 56 294 l 1
 0 254 l 1
 0 333 l 1
 56 373 l 1
 56 729 l 1
 196 729 l 1
 196 442 l 1
EndSplineSet
EndChar
StartChar: oslash
Encoding: 249 248 147
Width: 611
Flags: W
HStem: -23 113<306 316> 437 112<298 316>
VStem: 36 140<249 283> 433 140<249 283>
DStem: 86 79 126 35 11 2 54 -38 392 390 421 336 190 184 220 132 555 557 598 516 487 487 526 443
Fore
126 35 m 1
 54 -38 l 1
 11 2 l 1
 86 79 l 1
 52 128 36 188 36 263 c 0
 36 441 138 549 305 549 c 0
 378 549 436 529 487 487 c 1
 555 557 l 1
 598 516 l 1
 526 443 l 1
 558 393 573 335 573 263 c 0
 573 86 471 -23 306 -23 c 0
 235 -23 166 -1 126 35 c 1
421 336 m 1
 220 132 l 1
 244 104 273 90 306 90 c 0
 380 90 433 161 433 260 c 0
 433 287 429 312 421 336 c 1
190 184 m 1
 392 390 l 1
 364 424 338 437 303 437 c 0
 228 437 176 366 176 266 c 0
 176 236 181 207 190 184 c 1
EndSplineSet
EndChar
StartChar: oe
Encoding: 250 339 148
Width: 944
Flags: W
HStem: -23 107<662 680> 226 93<559 919> 436 113<290 296>
VStem: 23 140<263 282>
Fore
776 152 m 1
 914 152 l 1
 882 46 785 -23 664 -23 c 0
 592 -23 528 3 485 52 c 1
 434 2 370 -23 290 -23 c 0
 124 -23 23 85 23 263 c 0
 23 441 124 549 290 549 c 0
 370 549 436 524 485 473 c 1
 528 523 590 549 665 549 c 0
 776 549 863 490 899 392 c 0
 912 354 920 304 920 250 c 0
 920 243 920 238 919 226 c 1
 557 226 l 1
 558 180 564 155 578 132 c 0
 596 102 631 84 671 84 c 0
 720 84 763 112 776 152 c 1
290 436 m 0
 214 436 163 366 163 263 c 0
 163 160 214 90 290 90 c 0
 365 90 417 160 417 261 c 0
 417 367 367 436 290 436 c 0
559 319 m 1
 774 319 l 1
 770 358 764 378 751 397 c 0
 732 424 699 442 666 442 c 0
 628 442 593 421 576 388 c 0
 567 370 562 351 559 319 c 1
EndSplineSet
EndChar
StartChar: germandbls
Encoding: 251 223 149
Width: 611
Flags: W
HStem: -17 119<298 357> 616 113<283 308>
VStem: 67 140<0 549> 392 140<526 547> 435 140<222 240>
Fore
285 349 m 1xe8
 285 444 l 1
 294 444 l 2
 354 445 392 479 392 533 c 0
 392 585 355 616 294 616 c 0
 239 616 207 587 207 537 c 2
 207 0 l 1
 67 0 l 1
 67 518 l 2
 67 596 85 645 128 679 c 0
 167 710 234 729 303 729 c 0
 438 729 532 654 532 547 c 0xf0
 532 480 502 433 445 411 c 1
 479 404 499 394 524 371 c 0
 560 336 575 298 575 236 c 0
 575 84 488 -17 357 -17 c 0
 335 -17 318 -15 285 -11 c 1
 285 101 l 1
 291 102 296 102 298 102 c 2
 318 103 l 2
 387 104 435 155 435 226 c 0
 435 302 383 349 298 349 c 2
 285 349 l 1xe8
EndSplineSet
EndChar
StartChar: Adieresis
Encoding: 256 196 150
Width: 722
Flags: W
HStem: 0 21G<26 179 549 703> 147 125<270 501> 709 20G<285 451> 800 122<216 326 402 512>
VStem: 216 110<800 922> 402 110<800 922>
DStem: 285 729 365 557 26 0 270 272 285 729 228 147 26 0 179 0 365 557 451 729 460 272 703 0
Fore
326 922 m 1
 326 800 l 1
 216 800 l 1
 216 922 l 1
 326 922 l 1
512 922 m 1
 512 800 l 1
 402 800 l 1
 402 922 l 1
 512 922 l 1
501 147 m 1
 228 147 l 1
 179 0 l 1
 26 0 l 1
 285 729 l 1
 451 729 l 1
 703 0 l 1
 549 0 l 1
 501 147 l 1
460 272 m 1
 365 557 l 1
 270 272 l 1
 460 272 l 1
EndSplineSet
KernsSLIF: 67 -33 0 0 71 -35 0 0 79 -34 0 0 81 -35 0 0 84 -81 0 0 85 -32 0 0 86 -66 0 0 87 -51 0 0 89 -90 0 0 97 -1 0 0 98 -1 0 0 99 -14 0 0 44 19 0 0 100 -13 0 0 103 -14 0 0 171 -43 0 0 172 -40 0 0 45 7 0 0 111 -16 0 0 46 19 0 0 113 -12 0 0 186 -65 0 0 39 -61 0 0 116 -18 0 0 117 -12 0 0 118 -37 0 0 119 -23 0 0 121 -35 0 0
Ligature: 0 0 'liga' A uni0308
EndChar
StartChar: Aacute
Encoding: 257 193 151
Width: 722
Flags: W
HStem: 0 21G<26 179 549 703> 147 125<270 501> 709 20G<285 451>
DStem: 285 729 365 557 26 0 270 272 285 729 228 147 26 0 179 0 365 557 451 729 460 272 703 0
Fore
510 935 m 1
 384 785 l 1
 314 785 l 1
 384 935 l 1
 510 935 l 1
501 147 m 1
 228 147 l 1
 179 0 l 1
 26 0 l 1
 285 729 l 1
 451 729 l 1
 703 0 l 1
 549 0 l 1
 501 147 l 1
460 272 m 1
 365 557 l 1
 270 272 l 1
 460 272 l 1
EndSplineSet
KernsSLIF: 67 -33 0 0 71 -35 0 0 79 -34 0 0 81 -35 0 0 84 -81 0 0 85 -32 0 0 86 -66 0 0 87 -51 0 0 89 -90 0 0 97 -1 0 0 98 -1 0 0 99 -14 0 0 44 19 0 0 100 -13 0 0 101 -9 0 0 103 -14 0 0 171 -43 0 0 172 -40 0 0 45 7 0 0 111 -16 0 0 46 19 0 0 113 -12 0 0 39 -61 0 0 116 -18 0 0 117 -12 0 0 118 -37 0 0 119 -23 0 0 121 -35 0 0
Ligature: 0 0 'liga' A acutecomb
EndChar
StartChar: Agrave
Encoding: 258 192 152
Width: 722
Flags: W
HStem: 0 21G<26 179 549 703> 147 125<270 501> 709 20G<285 451> 786 150<222 418>
DStem: 285 729 365 557 26 0 270 272 285 729 228 147 26 0 179 0 365 557 451 729 460 272 703 0
Fore
222 936 m 1
 348 936 l 1
 418 786 l 1
 348 786 l 1
 222 936 l 1
501 147 m 1
 228 147 l 1
 179 0 l 1
 26 0 l 1
 285 729 l 1
 451 729 l 1
 703 0 l 1
 549 0 l 1
 501 147 l 1
460 272 m 1
 365 557 l 1
 270 272 l 1
 460 272 l 1
EndSplineSet
KernsSLIF: 67 -33 0 0 71 -35 0 0 79 -34 0 0 81 -35 0 0 84 -81 0 0 85 -32 0 0 86 -66 0 0 87 -51 0 0 89 -90 0 0 44 19 0 0 46 19 0 0
Ligature: 0 0 'liga' A gravecomb
EndChar
StartChar: Acircumflex
Encoding: 259 194 153
Width: 722
Flags: W
HStem: 0 21G<26 179 549 703> 147 125<270 501> 709 20G<285 451>
DStem: 285 729 365 557 26 0 270 272 285 729 228 147 26 0 179 0 312 936 362 886 204 786 280 786 365 557 451 729 460 272 703 0
Fore
312 936 m 1
 419 936 l 1
 522 786 l 1
 444 786 l 1
 362 886 l 1
 280 786 l 1
 204 786 l 1
 312 936 l 1
501 147 m 1
 228 147 l 1
 179 0 l 1
 26 0 l 1
 285 729 l 1
 451 729 l 1
 703 0 l 1
 549 0 l 1
 501 147 l 1
460 272 m 1
 365 557 l 1
 270 272 l 1
 460 272 l 1
EndSplineSet
KernsSLIF: 67 -33 0 0 71 -35 0 0 79 -34 0 0 81 -35 0 0 84 -81 0 0 85 -32 0 0 86 -66 0 0 87 -51 0 0 89 -90 0 0 44 19 0 0 46 19 0 0
Ligature: 0 0 'liga' A uni0302
EndChar
StartChar: Abreve
Encoding: 260 258 154
Width: 722
Flags: W
HStem: 0 21G<26 179 549 703> 147 125<270 501> 709 20G<285 451> 784 77<345 367>
DStem: 285 729 365 557 26 0 270 272 285 729 228 147 26 0 179 0 365 557 451 729 460 272 703 0
Fore
492 927 m 1
 492 916 l 2
 492 841 435 784 360 784 c 0
 285 784 228 841 228 917 c 2
 228 927 l 1
 284 927 l 1
 290 883 315 861 361 861 c 0
 405 861 428 881 436 927 c 1
 492 927 l 1
501 147 m 1
 228 147 l 1
 179 0 l 1
 26 0 l 1
 285 729 l 1
 451 729 l 1
 703 0 l 1
 549 0 l 1
 501 147 l 1
460 272 m 1
 365 557 l 1
 270 272 l 1
 460 272 l 1
EndSplineSet
Ligature: 0 0 'liga' A uni0306
EndChar
StartChar: Atilde
Encoding: 261 195 155
Width: 722
Flags: W
HStem: 0 21G<26 179 549 703> 147 125<270 501> 709 20G<285 451> 801 79<441 453> 845 79<284 299>
DStem: 285 729 365 557 26 0 270 272 285 729 228 147 26 0 179 0 365 557 451 729 460 272 703 0
Fore
483 928 m 1xf0
 546 928 l 1
 542 843 510 801 451 801 c 0xf0
 436 801 417 805 396 813 c 2
 325 839 l 2
 313 843 304 845 295 845 c 0
 271 845 260 832 255 800 c 1
 192 800 l 1
 196 878 231 924 286 924 c 0xe8
 305 924 306 924 342 911 c 2
 413 886 l 2
 420 883 440 880 447 880 c 0
 468 880 480 896 483 928 c 1xf0
501 147 m 1
 228 147 l 1
 179 0 l 1
 26 0 l 1
 285 729 l 1
 451 729 l 1
 703 0 l 1
 549 0 l 1
 501 147 l 1
460 272 m 1
 365 557 l 1
 270 272 l 1
 460 272 l 1
EndSplineSet
KernsSLIF: 67 -33 0 0 71 -35 0 0 79 -34 0 0 81 -35 0 0 84 -81 0 0 85 -32 0 0 86 -66 0 0 87 -51 0 0 89 -90 0 0 44 19 0 0 46 19 0 0
Ligature: 0 0 'liga' A tildecomb
EndChar
StartChar: Aring
Encoding: 262 197 156
Width: 722
Flags: W
HStem: 0 21G<26 179 549 703> 147 125<270 501> 709 20G<285 451> 769 48<361 367> 901 48<365 367>
VStem: 274 48<859 865> 406 48<856 865>
DStem: 285 729 365 557 26 0 270 272 285 729 228 147 26 0 179 0 365 557 451 729 460 272 703 0
Fore
365 949 m 0
 415 949 454 909 454 858 c 0
 454 809 413 769 364 769 c 0
 314 769 274 809 274 859 c 0
 274 909 314 949 365 949 c 0
365 901 m 0
 341 901 322 882 322 859 c 0
 322 836 341 817 365 817 c 0
 387 817 406 836 406 859 c 0
 406 882 388 901 365 901 c 0
501 147 m 1
 228 147 l 1
 179 0 l 1
 26 0 l 1
 285 729 l 1
 451 729 l 1
 703 0 l 1
 549 0 l 1
 501 147 l 1
460 272 m 1
 365 557 l 1
 270 272 l 1
 460 272 l 1
EndSplineSet
KernsSLIF: 67 -33 0 0 71 -35 0 0 79 -34 0 0 81 -35 0 0 84 -81 0 0 85 -32 0 0 86 -66 0 0 87 -51 0 0 89 -90 0 0 97 -1 0 0 98 -1 0 0 99 -14 0 0 44 19 0 0 100 -13 0 0 101 -9 0 0 103 -14 0 0 171 -43 0 0 172 -40 0 0 45 7 0 0 111 -16 0 0 46 19 0 0 113 -12 0 0 186 -65 0 0 39 -61 0 0 116 -18 0 0 117 -12 0 0 118 -37 0 0 119 -23 0 0 121 -35 0 0
Ligature: 0 0 'liga' A uni030A
EndChar
StartChar: Aogonek
Encoding: 263 260 157
Width: 722
Flags: W
HStem: -233 51<646 668> -20 20G<549 624> 0 21G<26 179> 147 125<270 501> 709 20G<285 452>
VStem: 500 90<-140 -127>
DStem: 285 729 366 557 26 0 270 272 285 729 228 147 26 0 179 0 366 557 452 729 461 272 703 0
Fore
501 147 m 1
 228 147 l 1
 179 0 l 1
 26 0 l 1
 285 729 l 1
 452 729 l 1
 703 0 l 1
 634 -30 590 -80 590 -129 c 0
 590 -165 614 -182 666 -182 c 0
 685 -182 705 -180 723 -177 c 1
 723 -224 l 1
 695 -231 675 -233 648 -233 c 0
 554 -233 500 -198 500 -138 c 0
 500 -79 546 -28 624 0 c 1
 549 0 l 1
 501 147 l 1
461 272 m 1
 366 557 l 1
 270 272 l 1
 461 272 l 1
EndSplineSet
Ligature: 0 0 'liga' A uni0328
EndChar
StartChar: Ccedilla
Encoding: 264 199 158
Width: 722
Flags: W
HStem: -220 50<331 349> -23 126<378 399.506> 613 128<363 404>
VStem: 44 150<323 389> 392 86<-131 -123>
DStem: 335 -23 379 -23 292 -106 360 -63
Fore
379 -23 m 1
 360 -63 l 1
 374 -58 386 -56 402 -56 c 0
 449 -56 478 -83 478 -127 c 0
 478 -187 432 -220 349 -220 c 0
 305 -220 276 -214 211 -192 c 1
 230 -140 l 1
 283 -163 307 -170 335 -170 c 0
 367 -170 392 -152 392 -129 c 0
 392 -108 372 -94 341 -94 c 0
 321 -94 311 -97 292 -106 c 1
 335 -23 l 1
 242 -7 203 11 155 56 c 0
 82 126 44 230 44 358 c 0
 44 594 172 741 378 741 c 0
 487 741 577 700 633 626 c 0
 664 585 677 545 682 482 c 1
 539 482 l 1
 530 521 522 540 506 560 c 0
 478 595 435 613 383 613 c 0
 265 613 194 517 194 356 c 0
 194 197 262 103 378 103 c 0
 471 103 530 156 539 249 c 1
 685 249 l 1
 677 84 561 -19 379 -23 c 1
EndSplineSet
KernsSLIF: 65 -28 0 0
Ligature: 0 0 'liga' C uni0327
EndChar
StartChar: Cacute
Encoding: 265 262 159
Width: 722
Flags: W
HStem: -23 126<363 397> 613 128<363 397>
VStem: 44 150<328 378>
Fore
510 936 m 1
 384 786 l 1
 314 786 l 1
 384 936 l 1
 510 936 l 1
682 482 m 1
 539 482 l 1
 530 521 522 540 506 560 c 0
 478 595 435 613 383 613 c 0
 265 613 194 517 194 356 c 0
 194 197 262 103 378 103 c 0
 471 103 530 156 539 249 c 1
 685 249 l 1
 676 82 555 -23 374 -23 c 0
 171 -23 44 124 44 358 c 0
 44 594 172 741 378 741 c 0
 487 741 577 700 633 626 c 0
 664 585 677 545 682 482 c 1
EndSplineSet
Ligature: 0 0 'liga' C acutecomb
EndChar
StartChar: Ccaron
Encoding: 266 268 160
Width: 722
Flags: W
HStem: -23 126<363 397> 613 128<363 397>
VStem: 44 150<328 378>
Fore
427 786 m 1
 320 786 l 1
 217 936 l 1
 295 936 l 1
 377 839 l 1
 459 936 l 1
 535 936 l 1
 427 786 l 1
682 482 m 1
 539 482 l 1
 530 521 522 540 506 560 c 0
 478 595 435 613 383 613 c 0
 265 613 194 517 194 356 c 0
 194 197 262 103 378 103 c 0
 471 103 530 156 539 249 c 1
 685 249 l 1
 676 82 555 -23 374 -23 c 0
 171 -23 44 124 44 358 c 0
 44 594 172 741 378 741 c 0
 487 741 577 700 633 626 c 0
 664 585 677 545 682 482 c 1
EndSplineSet
Ligature: 0 0 'liga' C uni030C
EndChar
StartChar: Dcaron
Encoding: 267 270 161
Width: 722
Flags: W
HStem: 0 125<227 382> 604 125<77 382>
VStem: 77 150<0 604> 531 150<335 385>
Fore
390 786 m 1
 283 786 l 1
 180 936 l 1
 258 936 l 1
 340 839 l 1
 422 936 l 1
 498 936 l 1
 390 786 l 1
77 0 m 1
 77 729 l 1
 362 729 l 2
 474 729 543 704 592 645 c 0
 650 576 681 477 681 365 c 0
 681 252 650 153 592 85 c 0
 543 26 473 0 362 0 c 2
 77 0 l 1
227 125 m 1
 362 125 l 2
 475 125 531 204 531 364 c 0
 531 525 475 604 362 604 c 2
 227 604 l 1
 227 125 l 1
EndSplineSet
Ligature: 0 0 'liga' D uni030C
EndChar
StartChar: Edieresis
Encoding: 268 203 162
Width: 667
Flags: W
HStem: 0 125<229 624> 314 125<229 578> 604 125<79 606> 800 122<197 307 383 493>
VStem: 79 150<0 314 0 604> 197 110<800 922> 383 110<800 922>
Fore
307 922 m 1xf6
 307 800 l 1
 197 800 l 1
 197 922 l 1
 307 922 l 1xf6
493 922 m 1
 493 800 l 1
 383 800 l 1
 383 922 l 1
 493 922 l 1
229 314 m 1xfa
 229 125 l 1
 624 125 l 1
 624 0 l 1
 79 0 l 1
 79 729 l 1
 606 729 l 1
 606 604 l 1
 229 604 l 1
 229 439 l 1
 578 439 l 1
 578 314 l 1
 229 314 l 1xfa
EndSplineSet
Ligature: 0 0 'liga' E uni0308
EndChar
StartChar: Eacute
Encoding: 269 201 163
Width: 667
Flags: W
HStem: 0 125<229 624> 314 125<229 578> 604 125<79 606>
VStem: 79 150<0 314 0 604>
Fore
481 936 m 1
 355 786 l 1
 285 786 l 1
 355 936 l 1
 481 936 l 1
229 314 m 1
 229 125 l 1
 624 125 l 1
 624 0 l 1
 79 0 l 1
 79 729 l 1
 606 729 l 1
 606 604 l 1
 229 604 l 1
 229 439 l 1
 578 439 l 1
 578 314 l 1
 229 314 l 1
EndSplineSet
Ligature: 0 0 'liga' E acutecomb
EndChar
StartChar: Egrave
Encoding: 270 200 164
Width: 667
Flags: W
HStem: 0 125<229 624> 314 125<229 578> 604 125<79 606> 786 150<207 403>
VStem: 79 150<0 314 0 604>
Fore
207 936 m 1
 333 936 l 1
 403 786 l 1
 333 786 l 1
 207 936 l 1
229 314 m 1
 229 125 l 1
 624 125 l 1
 624 0 l 1
 79 0 l 1
 79 729 l 1
 606 729 l 1
 606 604 l 1
 229 604 l 1
 229 439 l 1
 578 439 l 1
 578 314 l 1
 229 314 l 1
EndSplineSet
Ligature: 0 0 'liga' E gravecomb
EndChar
StartChar: Ecircumflex
Encoding: 271 202 165
Width: 667
Flags: W
HStem: 0 125<229 624> 314 125<229 578> 604 125<79 606>
VStem: 79 150<0 314 0 604>
DStem: 295 936 345 886 187 786 263 786
Fore
295 936 m 1
 402 936 l 1
 505 786 l 1
 427 786 l 1
 345 886 l 1
 263 786 l 1
 187 786 l 1
 295 936 l 1
229 314 m 1
 229 125 l 1
 624 125 l 1
 624 0 l 1
 79 0 l 1
 79 729 l 1
 606 729 l 1
 606 604 l 1
 229 604 l 1
 229 439 l 1
 578 439 l 1
 578 314 l 1
 229 314 l 1
EndSplineSet
Ligature: 0 0 'liga' E uni0302
EndChar
StartChar: Ecaron
Encoding: 272 282 166
Width: 667
Flags: W
HStem: 0 125<229 624> 314 125<229 578> 604 125<79 606>
VStem: 79 150<0 314 0 604>
Fore
395 786 m 1
 288 786 l 1
 185 936 l 1
 263 936 l 1
 345 839 l 1
 427 936 l 1
 503 936 l 1
 395 786 l 1
229 314 m 1
 229 125 l 1
 624 125 l 1
 624 0 l 1
 79 0 l 1
 79 729 l 1
 606 729 l 1
 606 604 l 1
 229 604 l 1
 229 439 l 1
 578 439 l 1
 578 314 l 1
 229 314 l 1
EndSplineSet
Ligature: 0 0 'liga' E uni030C
EndChar
StartChar: Edotaccent
Encoding: 273 278 167
Width: 667
Flags: W
HStem: 0 125<229 624> 314 125<229 578> 604 125<79 606>
VStem: 79 150<0 314 0 604> 289 110<800 922>
Fore
399 922 m 1
 399 800 l 1
 289 800 l 1
 289 922 l 1
 399 922 l 1
229 314 m 1
 229 125 l 1
 624 125 l 1
 624 0 l 1
 79 0 l 1
 79 729 l 1
 606 729 l 1
 606 604 l 1
 229 604 l 1
 229 439 l 1
 578 439 l 1
 578 314 l 1
 229 314 l 1
EndSplineSet
Ligature: 0 0 'liga' E uni0307
EndChar
StartChar: Eogonek
Encoding: 274 280 168
Width: 667
Flags: W
HStem: -233 51<572 593> 0 125<229 550> 314 125<229 578> 604 125<79 606>
VStem: 79 150<0 314 0 604> 425 90<-140 -127>
Fore
229 314 m 1
 229 125 l 1
 624 125 l 1
 624 0 l 1
 553 -38 515 -82 515 -129 c 0
 515 -165 539 -182 591 -182 c 0
 611 -182 630 -180 648 -177 c 1
 648 -224 l 1
 621 -230 601 -233 574 -233 c 0
 479 -233 425 -198 425 -138 c 0
 425 -82 464 -39 550 0 c 1
 79 0 l 1
 79 729 l 1
 606 729 l 1
 606 604 l 1
 229 604 l 1
 229 439 l 1
 578 439 l 1
 578 314 l 1
 229 314 l 1
EndSplineSet
Ligature: 0 0 'liga' E uni0328
EndChar
StartChar: Gbreve
Encoding: 275 286 169
Width: 778
Flags: W
HStem: -23 128<381 411> 267 125<419 585> 613 128<377 419> 784 77<382 411>
VStem: 42 150<344 392>
Fore
530 927 m 1
 530 916 l 2
 530 841 473 784 398 784 c 0
 323 784 266 841 266 917 c 2
 266 927 l 1
 322 927 l 1
 328 883 353 861 399 861 c 0
 443 861 466 881 474 927 c 1
 530 927 l 1
711 392 m 1
 711 -2 l 1
 621 -2 l 1
 603 94 l 1
 547 12 481 -23 383 -23 c 0
 186 -23 42 138 42 359 c 0
 42 586 185 741 395 741 c 0
 571 741 693 646 711 496 c 1
 570 496 l 1
 557 534 546 551 525 569 c 0
 492 598 448 613 396 613 c 0
 269 613 192 518 192 361 c 0
 192 211 279 105 400 105 c 0
 458 105 513 131 549 175 c 0
 571 201 581 226 585 267 c 1
 419 267 l 1
 419 392 l 1
 711 392 l 1
EndSplineSet
Ligature: 0 0 'liga' G uni0306
EndChar
StartChar: Idieresis
Encoding: 276 207 170
Width: 278
Flags: W
HStem: 0 21G<63 213> 709 20G<63 213> 800 122<-9 101 177 287>
VStem: -9 110<800 922> 63 150<0 729> 177 110<800 922>
Fore
101 922 m 1xf0
 101 800 l 1
 -9 800 l 1
 -9 922 l 1
 101 922 l 1xf0
287 922 m 1xe4
 287 800 l 1
 177 800 l 1
 177 922 l 1
 287 922 l 1xe4
213 729 m 1xe8
 213 0 l 1
 63 0 l 1
 63 729 l 1
 213 729 l 1xe8
EndSplineSet
Ligature: 0 0 'liga' I uni0308
EndChar
StartChar: Iacute
Encoding: 277 205 171
Width: 278
Flags: W
HStem: 0 21G<63 213> 709 20G<63 213>
VStem: 63 150<0 729>
Fore
290 936 m 1
 164 786 l 1
 94 786 l 1
 164 936 l 1
 290 936 l 1
213 729 m 1
 213 0 l 1
 63 0 l 1
 63 729 l 1
 213 729 l 1
EndSplineSet
Ligature: 0 0 'liga' I acutecomb
EndChar
StartChar: Igrave
Encoding: 278 204 172
Width: 278
Flags: W
HStem: 0 21G<63 213> 709 20G<63 213> 786 150<-10 186>
VStem: 63 150<0 729>
Fore
-10 936 m 1
 116 936 l 1
 186 786 l 1
 116 786 l 1
 -10 936 l 1
213 729 m 1
 213 0 l 1
 63 0 l 1
 63 729 l 1
 213 729 l 1
EndSplineSet
Ligature: 0 0 'liga' I gravecomb
EndChar
StartChar: Icircumflex
Encoding: 279 206 173
Width: 278
Flags: W
HStem: 0 21G<63 213> 709 20G<63 213>
VStem: 63 150<0 729>
DStem: 89 936 139 886 -19 786 57 786
Fore
89 936 m 1
 196 936 l 1
 299 786 l 1
 221 786 l 1
 139 886 l 1
 57 786 l 1
 -19 786 l 1
 89 936 l 1
213 729 m 1
 213 0 l 1
 63 0 l 1
 63 729 l 1
 213 729 l 1
EndSplineSet
Ligature: 0 0 'liga' I uni0302
EndChar
StartChar: Idotaccent
Encoding: 280 304 174
Width: 278
Flags: W
HStem: 0 21G<63 213> 709 20G<63 213>
VStem: 63 150<0 729> 83 110<800 922>
Fore
193 922 m 1xd0
 193 800 l 1
 83 800 l 1
 83 922 l 1
 193 922 l 1xd0
213 729 m 1xe0
 213 0 l 1
 63 0 l 1
 63 729 l 1
 213 729 l 1xe0
EndSplineSet
Ligature: 0 0 'liga' I uni0307
EndChar
StartChar: Lacute
Encoding: 281 313 175
Width: 611
Flags: W
HStem: 0 125<229 579> 709 20G<80 230>
VStem: 80 150<0 729>
Fore
298 936 m 1
 172 786 l 1
 102 786 l 1
 172 936 l 1
 298 936 l 1
230 729 m 1
 230 125 l 1
 579 125 l 1
 579 0 l 1
 80 0 l 1
 80 729 l 1
 230 729 l 1
EndSplineSet
Ligature: 0 0 'liga' L acutecomb
EndChar
StartChar: Lcaron
Encoding: 282 317 176
Width: 611
Flags: W
HStem: 0 125<229 579> 709 20G<80 230 330 452>
VStem: 80 150<0 729> 330 122<616 729> 397 55<607 626>
Fore
330 729 m 1xf0
 452 729 l 1
 452 626 l 2
 452 544 401 484 330 482 c 1
 330 528 l 1xf0
 376 537 398 567 397 617 c 1xe8
 330 617 l 1
 330 729 l 1xf0
230 729 m 1
 230 125 l 1
 579 125 l 1
 579 0 l 1
 80 0 l 1
 80 729 l 1
 230 729 l 1
EndSplineSet
Ligature: 0 0 'liga' L uni030C
EndChar
StartChar: Nacute
Encoding: 283 323 177
Width: 722
Flags: W
HStem: 0 21G<68 218 511 661> 709 20G<68 222 511 661>
VStem: 68 150<0 504> 511 150<233 729>
DStem: 218 504 222 729 511 0 511 233
Fore
500 936 m 1
 374 786 l 1
 304 786 l 1
 374 936 l 1
 500 936 l 1
511 0 m 1
 218 504 l 1
 218 0 l 1
 68 0 l 1
 68 729 l 1
 222 729 l 1
 511 233 l 1
 511 729 l 1
 661 729 l 1
 661 0 l 1
 511 0 l 1
EndSplineSet
Ligature: 0 0 'liga' N acutecomb
EndChar
StartChar: Ncaron
Encoding: 284 327 178
Width: 722
Flags: W
HStem: 0 21G<68 218 511 661> 709 20G<68 222 511 661>
VStem: 68 150<0 504> 511 150<233 729>
DStem: 218 504 222 729 511 0 511 233
Fore
418 786 m 1
 311 786 l 1
 208 936 l 1
 286 936 l 1
 368 839 l 1
 450 936 l 1
 526 936 l 1
 418 786 l 1
511 0 m 1
 218 504 l 1
 218 0 l 1
 68 0 l 1
 68 729 l 1
 222 729 l 1
 511 233 l 1
 511 729 l 1
 661 729 l 1
 661 0 l 1
 511 0 l 1
EndSplineSet
Ligature: 0 0 'liga' N uni030C
EndChar
StartChar: Ntilde
Encoding: 285 209 179
Width: 722
Flags: W
HStem: 0 21G<68 218 511 661> 709 20G<68 222 511 661> 801 79<447 455> 845 79<286 299>
VStem: 68 150<0 504> 511 150<233 729>
DStem: 218 504 222 729 511 0 511 233
Fore
485 928 m 1xec
 548 928 l 1
 544 843 512 801 453 801 c 0xec
 438 801 419 805 398 813 c 2
 327 839 l 2
 315 843 306 845 297 845 c 0
 273 845 262 832 257 800 c 1
 194 800 l 1
 198 878 233 924 288 924 c 0xdc
 307 924 308 924 344 911 c 2
 415 886 l 2
 422 883 442 880 449 880 c 0
 470 880 482 896 485 928 c 1xec
511 0 m 1
 218 504 l 1
 218 0 l 1
 68 0 l 1
 68 729 l 1
 222 729 l 1
 511 233 l 1
 511 729 l 1
 661 729 l 1
 661 0 l 1
 511 0 l 1
EndSplineSet
Ligature: 0 0 'liga' N tildecomb
EndChar
StartChar: Odieresis
Encoding: 286 214 180
Width: 778
Flags: W
HStem: -23 128<391 409> 613 128<375 409> 800 122<243 353 429 539>
VStem: 40 150<359 378> 243 110<800 922> 429 110<800 922> 592 150<328 378>
Fore
353 922 m 1
 353 800 l 1
 243 800 l 1
 243 922 l 1
 353 922 l 1
539 922 m 1
 539 800 l 1
 429 800 l 1
 429 922 l 1
 539 922 l 1
390 741 m 0
 495 741 576 709 640 640 c 0
 705 570 742 468 742 354 c 0
 742 251 703 145 640 78 c 0
 577 10 495 -23 391 -23 c 0
 287 -23 205 10 142 78 c 0
 77 147 40 250 40 359 c 0
 40 468 77 570 142 640 c 0
 204 707 288 741 390 741 c 0
391 613 m 0
 270 613 190 512 190 359 c 0
 190 206 270 105 391 105 c 0
 511 105 592 206 592 355 c 0
 592 513 514 613 391 613 c 0
EndSplineSet
KernsSLIF: 65 -37 0 0 84 -20 0 0 86 -36 0 0 87 -21 0 0 88 -36 0 0 89 -59 0 0
Ligature: 0 0 'liga' O uni0308
EndChar
StartChar: Oacute
Encoding: 287 211 181
Width: 778
Flags: W
HStem: -23 128<391 409> 613 128<375 409>
VStem: 40 150<359 378> 592 150<328 378>
Fore
530 936 m 1
 404 786 l 1
 334 786 l 1
 404 936 l 1
 530 936 l 1
390 741 m 0
 495 741 576 709 640 640 c 0
 705 570 742 468 742 354 c 0
 742 251 703 145 640 78 c 0
 577 10 495 -23 391 -23 c 0
 287 -23 205 10 142 78 c 0
 77 147 40 250 40 359 c 0
 40 468 77 570 142 640 c 0
 204 707 288 741 390 741 c 0
391 613 m 0
 270 613 190 512 190 359 c 0
 190 206 270 105 391 105 c 0
 511 105 592 206 592 355 c 0
 592 513 514 613 391 613 c 0
EndSplineSet
KernsSLIF: 65 -37 0 0 84 -20 0 0 86 -36 0 0 87 -21 0 0 89 -59 0 0
Ligature: 0 0 'liga' O acutecomb
EndChar
StartChar: Ograve
Encoding: 288 210 182
Width: 778
Flags: W
HStem: -23 128<391 409> 613 128<375 409> 786 150<254 450>
VStem: 40 150<359 378> 592 150<328 378>
Fore
254 936 m 1
 380 936 l 1
 450 786 l 1
 380 786 l 1
 254 936 l 1
390 741 m 0
 495 741 576 709 640 640 c 0
 705 570 742 468 742 354 c 0
 742 251 703 145 640 78 c 0
 577 10 495 -23 391 -23 c 0
 287 -23 205 10 142 78 c 0
 77 147 40 250 40 359 c 0
 40 468 77 570 142 640 c 0
 204 707 288 741 390 741 c 0
391 613 m 0
 270 613 190 512 190 359 c 0
 190 206 270 105 391 105 c 0
 511 105 592 206 592 355 c 0
 592 513 514 613 391 613 c 0
EndSplineSet
KernsSLIF: 84 -20 0 0 86 -36 0 0 89 -59 0 0
Ligature: 0 0 'liga' O gravecomb
EndChar
StartChar: Ocircumflex
Encoding: 289 212 183
Width: 778
Flags: W
HStem: -23 128<391 409> 613 128<375 409>
VStem: 40 150<359 378> 592 150<328 378>
DStem: 340 936 390 886 232 786 308 786
Fore
340 936 m 1
 447 936 l 1
 550 786 l 1
 472 786 l 1
 390 886 l 1
 308 786 l 1
 232 786 l 1
 340 936 l 1
390 741 m 0
 495 741 576 709 640 640 c 0
 705 570 742 468 742 354 c 0
 742 251 703 145 640 78 c 0
 577 10 495 -23 391 -23 c 0
 287 -23 205 10 142 78 c 0
 77 147 40 250 40 359 c 0
 40 468 77 570 142 640 c 0
 204 707 288 741 390 741 c 0
391 613 m 0
 270 613 190 512 190 359 c 0
 190 206 270 105 391 105 c 0
 511 105 592 206 592 355 c 0
 592 513 514 613 391 613 c 0
EndSplineSet
KernsSLIF: 84 -20 0 0 86 -36 0 0 89 -59 0 0
Ligature: 0 0 'liga' O uni0302
EndChar
StartChar: Otilde
Encoding: 290 213 184
Width: 778
Flags: W
HStem: -23 128<391 409> 613 128<370 409> 801 79<471 482> 845 79<313 329>
VStem: 40 150<359 378> 592 150<328 378>
Fore
512 928 m 1xec
 575 928 l 1
 571 843 539 801 480 801 c 0xec
 465 801 446 805 425 813 c 2
 354 839 l 2
 342 843 333 845 324 845 c 0
 300 845 289 832 284 800 c 1
 221 800 l 1
 225 878 260 924 315 924 c 0xdc
 334 924 335 924 371 911 c 2
 442 886 l 2
 449 883 469 880 476 880 c 0
 497 880 509 896 512 928 c 1xec
390 741 m 0
 495 741 576 709 640 640 c 0
 705 570 742 468 742 354 c 0
 742 251 703 145 640 78 c 0
 577 10 495 -23 391 -23 c 0
 287 -23 205 10 142 78 c 0
 77 147 40 250 40 359 c 0
 40 468 77 570 142 640 c 0
 204 707 288 741 390 741 c 0
391 613 m 0
 270 613 190 512 190 359 c 0
 190 206 270 105 391 105 c 0
 511 105 592 206 592 355 c 0
 592 513 514 613 391 613 c 0
EndSplineSet
KernsSLIF: 84 -20 0 0 86 -36 0 0 89 -59 0 0
Ligature: 0 0 'liga' O tildecomb
EndChar
StartChar: Ohungarumlaut
Encoding: 291 336 185
Width: 778
Flags: W
HStem: -23 128<391 409> 613 128<375 409>
VStem: 40 150<359 378> 592 150<328 378>
Fore
461 936 m 1
 335 789 l 1
 265 789 l 1
 335 936 l 1
 461 936 l 1
649 936 m 1
 523 789 l 1
 453 789 l 1
 523 936 l 1
 649 936 l 1
390 741 m 0
 495 741 576 709 640 640 c 0
 705 570 742 468 742 354 c 0
 742 251 703 145 640 78 c 0
 577 10 495 -23 391 -23 c 0
 287 -23 205 10 142 78 c 0
 77 147 40 250 40 359 c 0
 40 468 77 570 142 640 c 0
 204 707 288 741 390 741 c 0
391 613 m 0
 270 613 190 512 190 359 c 0
 190 206 270 105 391 105 c 0
 511 105 592 206 592 355 c 0
 592 513 514 613 391 613 c 0
EndSplineSet
Ligature: 0 0 'liga' O uni030B
EndChar
StartChar: Racute
Encoding: 292 340 186
Width: 722
Flags: W
HStem: 0 21G<80 230 516 677> 289 125<230 417> 604 125<80 433>
VStem: 80 150<0 289 0 604> 493 152<85 129> 517 150<509 532>
Fore
494 936 m 1xf0
 368 786 l 1
 298 786 l 1
 368 936 l 1
 494 936 l 1xf0
230 289 m 1
 230 0 l 1
 80 0 l 1
 80 729 l 1
 471 729 l 2
 533 729 579 713 612 679 c 0
 647 643 667 590 667 532 c 0xf4
 667 443 626 384 544 352 c 1
 637 312 641 302 645 87 c 0
 645 55 654 40 677 27 c 1
 677 0 l 1
 516 0 l 1
 497 35 493 57 493 125 c 0xf8
 493 136 493 154 494 173 c 0
 495 186 495 196 495 202 c 0
 495 263 467 289 402 289 c 2
 230 289 l 1
230 414 m 1
 411 414 l 2
 454 414 474 419 490 433 c 0
 507 448 517 476 517 511 c 0
 517 545 508 570 490 585 c 0
 472 600 454 604 411 604 c 2
 230 604 l 1
 230 414 l 1
EndSplineSet
Ligature: 0 0 'liga' R acutecomb
EndChar
StartChar: Rcaron
Encoding: 293 344 187
Width: 722
Flags: W
HStem: 0 21G<80 230 516 677> 289 125<230 417> 604 125<80 433>
VStem: 80 150<0 289 0 604> 493 152<85 129> 517 150<509 532>
Fore
410 786 m 1xf0
 303 786 l 1
 200 936 l 1
 278 936 l 1
 360 839 l 1
 442 936 l 1
 518 936 l 1
 410 786 l 1xf0
230 289 m 1
 230 0 l 1
 80 0 l 1
 80 729 l 1
 471 729 l 2
 533 729 579 713 612 679 c 0
 647 643 667 590 667 532 c 0xf4
 667 443 626 384 544 352 c 1
 637 312 641 302 645 87 c 0
 645 55 654 40 677 27 c 1
 677 0 l 1
 516 0 l 1
 497 35 493 57 493 125 c 0xf8
 493 136 493 154 494 173 c 0
 495 186 495 196 495 202 c 0
 495 263 467 289 402 289 c 2
 230 289 l 1
230 414 m 1
 411 414 l 2
 454 414 474 419 490 433 c 0
 507 448 517 476 517 511 c 0
 517 545 508 570 490 585 c 0
 472 600 454 604 411 604 c 2
 230 604 l 1
 230 414 l 1
EndSplineSet
Ligature: 0 0 'liga' R uni030C
EndChar
StartChar: Sacute
Encoding: 294 346 188
Width: 667
Flags: W
HStem: -23 120<319 354> 621 120<303 340>
VStem: 45 143<515 538> 489 144<193 213>
Fore
466 936 m 1
 340 786 l 1
 270 786 l 1
 340 936 l 1
 466 936 l 1
607 507 m 1
 467 507 l 1
 462 581 409 621 314 621 c 0
 237 621 188 586 188 531 c 0
 188 478 219 457 326 436 c 2
 440 414 l 2
 575 388 633 328 633 213 c 0
 633 65 522 -23 334 -23 c 0
 148 -23 41 62 32 218 c 1
 178 218 l 1
 183 140 240 97 342 97 c 0
 433 97 489 134 489 195 c 0
 489 254 452 282 352 301 c 2
 250 321 l 2
 102 349 45 404 45 517 c 0
 45 659 146 741 321 741 c 0
 426 741 507 712 556 658 c 0
 592 618 607 574 607 507 c 1
EndSplineSet
Ligature: 0 0 'liga' S acutecomb
EndChar
StartChar: Scaron
Encoding: 295 352 189
Width: 667
Flags: W
HStem: -23 120<319 354> 621 120<303 336>
VStem: 45 143<515 538> 489 144<193 213>
Fore
380 786 m 1
 273 786 l 1
 170 936 l 1
 248 936 l 1
 330 839 l 1
 412 936 l 1
 488 936 l 1
 380 786 l 1
607 507 m 1
 467 507 l 1
 462 581 409 621 314 621 c 0
 237 621 188 586 188 531 c 0
 188 478 219 457 326 436 c 2
 440 414 l 2
 575 388 633 328 633 213 c 0
 633 65 522 -23 334 -23 c 0
 148 -23 41 62 32 218 c 1
 178 218 l 1
 183 140 240 97 342 97 c 0
 433 97 489 134 489 195 c 0
 489 254 452 282 352 301 c 2
 250 321 l 2
 102 349 45 404 45 517 c 0
 45 659 146 741 321 741 c 0
 426 741 507 712 556 658 c 0
 592 618 607 574 607 507 c 1
EndSplineSet
Ligature: 0 0 'liga' S uni030C
EndChar
StartChar: Scedilla
Encoding: 296 350 190
Width: 667
Flags: W
HStem: -220 50<287 312> -94 191<304 342> 621 120<295 340>
VStem: 45 143<515 533> 355 86<-131 -123> 489 144<193 214>
DStem: 297 -23 340 -23 255 -106 323 -62
Fore
340 -23 m 1
 323 -62 l 1
 338 -58 349 -56 364 -56 c 0
 412 -56 441 -83 441 -127 c 0
 441 -187 395 -220 312 -220 c 0
 268 -220 235 -213 174 -192 c 1
 193 -140 l 1
 243 -162 270 -170 298 -170 c 0
 330 -170 355 -152 355 -129 c 0
 355 -108 335 -94 304 -94 c 0
 284 -94 274 -97 255 -106 c 1
 297 -23 l 1
 126 -5 42 72 32 218 c 1
 178 218 l 1
 183 140 240 97 342 97 c 0
 433 97 489 134 489 195 c 0
 489 254 452 282 352 301 c 2
 250 321 l 2
 102 349 45 404 45 517 c 0
 45 659 146 741 321 741 c 0
 426 741 507 712 556 658 c 0
 592 618 607 574 607 507 c 1
 467 507 l 1
 462 581 409 621 314 621 c 0
 237 621 188 586 188 531 c 0
 188 478 219 457 326 436 c 2
 440 414 l 2
 575 388 633 328 633 214 c 0
 633 65 535 -14 340 -23 c 1
EndSplineSet
Ligature: 0 0 'liga' S uni0327
EndChar
StartChar: Tcaron
Encoding: 297 356 191
Width: 611
Flags: W
HStem: 0 21G<235 385> 604 125<14 235 14 598>
VStem: 235 150<0 604>
Fore
361 786 m 1
 254 786 l 1
 151 936 l 1
 229 936 l 1
 311 839 l 1
 393 936 l 1
 469 936 l 1
 361 786 l 1
385 604 m 1
 385 0 l 1
 235 0 l 1
 235 604 l 1
 14 604 l 1
 14 729 l 1
 598 729 l 1
 598 604 l 1
 385 604 l 1
EndSplineSet
Ligature: 0 0 'liga' T uni030C
EndChar
StartChar: Udieresis
Encoding: 298 220 192
Width: 722
Flags: W
HStem: -23 128<365 381> 709 20G<76 226 504 654> 800 122<217 327 403 513>
VStem: 76 150<235 729> 217 110<800 922> 403 110<800 922> 504 150<235 729>
Fore
327 922 m 1xe8
 327 800 l 1
 217 800 l 1
 217 922 l 1
 327 922 l 1xe8
513 922 m 1xe4
 513 800 l 1
 403 800 l 1
 403 922 l 1
 513 922 l 1xe4
504 729 m 1xf2
 654 729 l 1
 654 235 l 2
 654 153 632 95 583 51 c 0
 530 3 453 -23 365 -23 c 0
 277 -23 200 3 147 51 c 0
 98 95 76 153 76 235 c 2
 76 729 l 1
 226 729 l 1
 226 235 l 2
 226 147 271 105 365 105 c 0
 459 105 504 147 504 235 c 2
 504 729 l 1xf2
EndSplineSet
KernsSLIF: 65 -34 0 0 98 6 0 0 44 -7 0 0 109 6 0 0 110 5 0 0 112 7 0 0 46 -4 0 0 114 5 0 0
Ligature: 0 0 'liga' U uni0308
EndChar
StartChar: Uacute
Encoding: 299 218 193
Width: 722
Flags: W
HStem: -23 128<365 380> 709 20G<76 226 504 654>
VStem: 76 150<235 729> 504 150<235 729>
Fore
504 936 m 1
 378 786 l 1
 308 786 l 1
 378 936 l 1
 504 936 l 1
504 729 m 1
 654 729 l 1
 654 235 l 2
 654 153 632 95 583 51 c 0
 530 3 453 -23 365 -23 c 0
 277 -23 200 3 147 51 c 0
 98 95 76 153 76 235 c 2
 76 729 l 1
 226 729 l 1
 226 235 l 2
 226 147 271 105 365 105 c 0
 459 105 504 147 504 235 c 2
 504 729 l 1
EndSplineSet
KernsSLIF: 65 -34 0 0 44 -7 0 0 109 6 0 0 110 5 0 0 112 7 0 0 46 -4 0 0 114 5 0 0
Ligature: 0 0 'liga' U acutecomb
EndChar
StartChar: Ugrave
Encoding: 300 217 194
Width: 722
Flags: W
HStem: -23 128<365 381> 709 20G<76 226 504 654> 786 150<228 424>
VStem: 76 150<235 729> 504 150<235 729>
Fore
228 936 m 1
 354 936 l 1
 424 786 l 1
 354 786 l 1
 228 936 l 1
504 729 m 1
 654 729 l 1
 654 235 l 2
 654 153 632 95 583 51 c 0
 530 3 453 -23 365 -23 c 0
 277 -23 200 3 147 51 c 0
 98 95 76 153 76 235 c 2
 76 729 l 1
 226 729 l 1
 226 235 l 2
 226 147 271 105 365 105 c 0
 459 105 504 147 504 235 c 2
 504 729 l 1
EndSplineSet
KernsSLIF: 65 -34 0 0
Ligature: 0 0 'liga' U gravecomb
EndChar
StartChar: Ucircumflex
Encoding: 301 219 195
Width: 722
Flags: W
HStem: -23 128<365 381> 709 20G<76 226 504 654>
VStem: 76 150<235 729> 504 150<235 729>
DStem: 314 936 364 886 206 786 282 786
Fore
314 936 m 1
 421 936 l 1
 524 786 l 1
 446 786 l 1
 364 886 l 1
 282 786 l 1
 206 786 l 1
 314 936 l 1
504 729 m 1
 654 729 l 1
 654 235 l 2
 654 153 632 95 583 51 c 0
 530 3 453 -23 365 -23 c 0
 277 -23 200 3 147 51 c 0
 98 95 76 153 76 235 c 2
 76 729 l 1
 226 729 l 1
 226 235 l 2
 226 147 271 105 365 105 c 0
 459 105 504 147 504 235 c 2
 504 729 l 1
EndSplineSet
KernsSLIF: 65 -34 0 0
Ligature: 0 0 'liga' U uni0302
EndChar
StartChar: Uring
Encoding: 302 366 196
Width: 722
Flags: W
HStem: -23 128<365 381> 709 20G<76 226 504 654> 769 48<363 368> 901 48<366 368>
VStem: 76 150<235 729> 275 48<859 861> 407 48<856 861> 504 150<235 729>
Fore
366 949 m 0
 416 949 455 909 455 858 c 0
 455 809 414 769 365 769 c 0
 315 769 275 809 275 859 c 0
 275 909 315 949 366 949 c 0
366 901 m 0
 342 901 323 882 323 859 c 0
 323 836 342 817 366 817 c 0
 388 817 407 836 407 859 c 0
 407 882 389 901 366 901 c 0
504 729 m 1
 654 729 l 1
 654 235 l 2
 654 153 632 95 583 51 c 0
 530 3 453 -23 365 -23 c 0
 277 -23 200 3 147 51 c 0
 98 95 76 153 76 235 c 2
 76 729 l 1
 226 729 l 1
 226 235 l 2
 226 147 271 105 365 105 c 0
 459 105 504 147 504 235 c 2
 504 729 l 1
EndSplineSet
Ligature: 0 0 'liga' U uni030A
EndChar
StartChar: Uhungarumlaut
Encoding: 303 368 197
Width: 722
Flags: W
HStem: -23 128<365 381> 709 20G<76 226 504 654>
VStem: 76 150<235 729> 504 150<235 729>
Fore
433 936 m 1
 307 789 l 1
 237 789 l 1
 307 936 l 1
 433 936 l 1
621 936 m 1
 495 789 l 1
 425 789 l 1
 495 936 l 1
 621 936 l 1
504 729 m 1
 654 729 l 1
 654 235 l 2
 654 153 632 95 583 51 c 0
 530 3 453 -23 365 -23 c 0
 277 -23 200 3 147 51 c 0
 98 95 76 153 76 235 c 2
 76 729 l 1
 226 729 l 1
 226 235 l 2
 226 147 271 105 365 105 c 0
 459 105 504 147 504 235 c 2
 504 729 l 1
EndSplineSet
Ligature: 0 0 'liga' U uni030B
EndChar
StartChar: Yacute
Encoding: 304 221 198
Width: 667
Flags: W
HStem: 0 21G<269 419> 709 20G<27 194 482 650>
VStem: 269 150<0 270>
Fore
479 936 m 1
 353 786 l 1
 283 786 l 1
 353 936 l 1
 479 936 l 1
419 270 m 1
 419 0 l 1
 269 0 l 1
 269 270 l 1
 27 729 l 1
 194 729 l 1
 343 407 l 1
 482 729 l 1
 650 729 l 1
 419 270 l 1
EndSplineSet
Ligature: 0 0 'liga' Y acutecomb
EndChar
StartChar: Zacute
Encoding: 305 377 199
Width: 611
Flags: W
HStem: 0 125<206 578> 604 125<30 403>
DStem: 403 604 578 604 30 125 206 125
Fore
441 936 m 1
 315 786 l 1
 245 786 l 1
 315 936 l 1
 441 936 l 1
578 729 m 1
 578 604 l 1
 206 125 l 1
 578 125 l 1
 578 0 l 1
 30 0 l 1
 30 125 l 1
 403 604 l 1
 30 604 l 1
 30 729 l 1
 578 729 l 1
EndSplineSet
Ligature: 0 0 'liga' Z acutecomb
EndChar
StartChar: Zcaron
Encoding: 306 381 200
Width: 611
Flags: W
HStem: 0 125<206 578> 604 125<30 403>
DStem: 403 604 578 604 30 125 206 125
Fore
358 786 m 1
 251 786 l 1
 148 936 l 1
 226 936 l 1
 308 839 l 1
 390 936 l 1
 466 936 l 1
 358 786 l 1
578 729 m 1
 578 604 l 1
 206 125 l 1
 578 125 l 1
 578 0 l 1
 30 0 l 1
 30 125 l 1
 403 604 l 1
 30 604 l 1
 30 729 l 1
 578 729 l 1
EndSplineSet
Ligature: 0 0 'liga' Z uni030C
EndChar
StartChar: Zdotaccent
Encoding: 307 379 201
Width: 611
Flags: W
HStem: 0 125<206 578> 604 125<30 403>
VStem: 252 110<800 922>
DStem: 403 604 578 604 30 125 206 125
Fore
362 922 m 1
 362 800 l 1
 252 800 l 1
 252 922 l 1
 362 922 l 1
578 729 m 1
 578 604 l 1
 206 125 l 1
 578 125 l 1
 578 0 l 1
 30 0 l 1
 30 125 l 1
 403 604 l 1
 30 604 l 1
 30 729 l 1
 578 729 l 1
EndSplineSet
Ligature: 0 0 'liga' Z uni0307
EndChar
StartChar: Amacron
Encoding: 308 256 202
Width: 722
Flags: W
HStem: 0 21G<26 179 549 703> 147 125<270 501> 709 20G<285 451> 819 79<215 514>
DStem: 285 729 365 557 26 0 270 272 285 729 228 147 26 0 179 0 365 557 451 729 460 272 703 0
Fore
514 898 m 1
 514 819 l 1
 215 819 l 1
 215 898 l 1
 514 898 l 1
501 147 m 1
 228 147 l 1
 179 0 l 1
 26 0 l 1
 285 729 l 1
 451 729 l 1
 703 0 l 1
 549 0 l 1
 501 147 l 1
460 272 m 1
 365 557 l 1
 270 272 l 1
 460 272 l 1
EndSplineSet
Ligature: 0 0 'liga' A uni0304
EndChar
StartChar: Tcommaaccent
Encoding: 309 354 203
Width: 611
Flags: W
HStem: 0 21G<235 385> 604 125<14 235 14 598>
VStem: 235 150<0 604> 252 122<-173 -60> 319 55<-180 -163>
Fore
252 -60 m 1xd0
 374 -60 l 1
 374 -163 l 2
 374 -245 323 -305 252 -307 c 1
 252 -261 l 1xd0
 298 -252 320 -222 319 -172 c 1xc8
 252 -172 l 1
 252 -60 l 1xd0
385 604 m 1xe0
 385 0 l 1
 235 0 l 1
 235 604 l 1
 14 604 l 1
 14 729 l 1
 598 729 l 1
 598 604 l 1
 385 604 l 1xe0
EndSplineSet
Ligature: 0 0 'liga' T uni0327
EndChar
StartChar: Ydieresis
Encoding: 310 376 204
Width: 667
Flags: W
HStem: 0 21G<269 419> 709 20G<27 194 482 650> 800 122<195 305 381 491>
VStem: 195 110<800 922> 269 150<0 270> 381 110<800 922>
Fore
305 922 m 1xf0
 305 800 l 1
 195 800 l 1
 195 922 l 1
 305 922 l 1xf0
491 922 m 1xe4
 491 800 l 1
 381 800 l 1
 381 922 l 1
 491 922 l 1xe4
419 270 m 1xe8
 419 0 l 1
 269 0 l 1
 269 270 l 1
 27 729 l 1
 194 729 l 1
 343 407 l 1
 482 729 l 1
 650 729 l 1
 419 270 l 1xe8
EndSplineSet
Ligature: 0 0 'liga' Y uni0308
EndChar
StartChar: Emacron
Encoding: 311 274 205
Width: 667
Flags: W
HStem: 0 125<229 624> 314 125<229 578> 604 125<79 606> 819 79<195 494>
VStem: 79 150<0 314 0 604>
Fore
494 898 m 1
 494 819 l 1
 195 819 l 1
 195 898 l 1
 494 898 l 1
229 314 m 1
 229 125 l 1
 624 125 l 1
 624 0 l 1
 79 0 l 1
 79 729 l 1
 606 729 l 1
 606 604 l 1
 229 604 l 1
 229 439 l 1
 578 439 l 1
 578 314 l 1
 229 314 l 1
EndSplineSet
Ligature: 0 0 'liga' E uni0304
EndChar
StartChar: Imacron
Encoding: 312 298 206
Width: 278
Flags: W
HStem: 0 21G<63 213> 709 20G<63 213> 819 79<2 274>
VStem: 63 150<0 729>
Fore
274 898 m 1
 274 819 l 1
 2 819 l 1
 2 898 l 1
 274 898 l 1
213 729 m 1
 213 0 l 1
 63 0 l 1
 63 729 l 1
 213 729 l 1
EndSplineSet
Ligature: 0 0 'liga' I uni0304
EndChar
StartChar: Iogonek
Encoding: 313 302 207
Width: 278
Flags: W
HStem: -233 51<167 189> -20 20G<63 147> 709 20G<63 213>
VStem: 63 150<-1 729>
Fore
213 729 m 1
 213 0 l 1
 156 -41 124 -88 124 -131 c 0
 124 -161 150 -182 187 -182 c 0
 200 -182 221 -180 237 -177 c 1
 237 -224 l 1
 211 -230 189 -233 167 -233 c 0
 85 -233 34 -196 34 -136 c 0
 34 -84 70 -41 147 0 c 1
 63 0 l 1
 63 729 l 1
 213 729 l 1
EndSplineSet
Ligature: 0 0 'liga' I uni0328
EndChar
StartChar: Kcommaaccent
Encoding: 314 310 208
Width: 722
Flags: W
HStem: 0 21G<74 224 538 717> 709 20G<74 224 509 686>
VStem: 74 150<0 244 0 729> 315 122<-173 -60> 382 55<-180 -163>
Fore
315 -60 m 1xf0
 437 -60 l 1
 437 -163 l 2
 437 -245 386 -305 315 -307 c 1
 315 -261 l 1xf0
 361 -252 383 -222 382 -172 c 1xe8
 315 -172 l 1
 315 -60 l 1xf0
224 244 m 1
 224 0 l 1
 74 0 l 1
 74 729 l 1
 224 729 l 1
 224 409 l 1
 509 729 l 1
 686 729 l 1
 395 415 l 1
 717 0 l 1
 538 0 l 1
 299 322 l 1
 224 244 l 1
EndSplineSet
Ligature: 0 0 'liga' K uni0327
EndChar
StartChar: Lcommaaccent
Encoding: 315 315 209
Width: 611
Flags: W
HStem: 0 125<229 579> 709 20G<80 230>
VStem: 80 150<0 729> 269 122<-173 -60> 336 55<-180 -163>
Fore
269 -60 m 1xf0
 391 -60 l 1
 391 -163 l 2
 391 -245 340 -305 269 -307 c 1
 269 -261 l 1xf0
 315 -252 337 -222 336 -172 c 1xe8
 269 -172 l 1
 269 -60 l 1xf0
230 729 m 1
 230 125 l 1
 579 125 l 1
 579 0 l 1
 80 0 l 1
 80 729 l 1
 230 729 l 1
EndSplineSet
Ligature: 0 0 'liga' L uni0327
EndChar
StartChar: Ncommaaccent
Encoding: 316 325 210
Width: 722
Flags: W
HStem: 0 21G<68 218 511 661> 709 20G<68 222 511 661>
VStem: 68 150<0 504> 300 122<-173 -60> 367 55<-180 -163> 511 150<233 729>
DStem: 218 504 222 729 511 0 511 233
Fore
300 -60 m 1xf4
 422 -60 l 1
 422 -163 l 2
 422 -245 371 -305 300 -307 c 1
 300 -261 l 1xf4
 346 -252 368 -222 367 -172 c 1xec
 300 -172 l 1
 300 -60 l 1xf4
511 0 m 1
 218 504 l 1
 218 0 l 1
 68 0 l 1
 68 729 l 1
 222 729 l 1
 511 233 l 1
 511 729 l 1
 661 729 l 1
 661 0 l 1
 511 0 l 1
EndSplineSet
Ligature: 0 0 'liga' N uni0327
EndChar
StartChar: Omacron
Encoding: 317 332 211
Width: 778
Flags: W
HStem: -23 128<391 409> 613 128<375 409> 819 79<242 541>
VStem: 40 150<359 378> 592 150<328 378>
Fore
541 898 m 1
 541 819 l 1
 242 819 l 1
 242 898 l 1
 541 898 l 1
390 741 m 0
 495 741 576 709 640 640 c 0
 705 570 742 468 742 354 c 0
 742 251 703 145 640 78 c 0
 577 10 495 -23 391 -23 c 0
 287 -23 205 10 142 78 c 0
 77 147 40 250 40 359 c 0
 40 468 77 570 142 640 c 0
 204 707 288 741 390 741 c 0
391 613 m 0
 270 613 190 512 190 359 c 0
 190 206 270 105 391 105 c 0
 511 105 592 206 592 355 c 0
 592 513 514 613 391 613 c 0
EndSplineSet
Ligature: 0 0 'liga' O uni0304
EndChar
StartChar: Rcommaaccent
Encoding: 318 342 212
Width: 722
Flags: W
HStem: 0 21G<80 230 516 677> 289 125<230 417> 604 125<80 440>
VStem: 80 150<0 289 0 604> 318 122<-173 -60> 385 55<-180 -163> 493 152<85 127> 517 150<508 532>
Fore
318 -60 m 1xf8
 440 -60 l 1
 440 -163 l 2
 440 -245 389 -305 318 -307 c 1
 318 -261 l 1xf8
 364 -252 386 -222 385 -172 c 1xf4
 318 -172 l 1
 318 -60 l 1xf8
230 289 m 1
 230 0 l 1
 80 0 l 1
 80 729 l 1
 471 729 l 2
 533 729 579 713 612 679 c 0
 647 643 667 590 667 532 c 0xf1
 667 443 626 384 544 352 c 1
 637 312 641 302 645 87 c 0
 645 55 654 40 677 27 c 1
 677 0 l 1
 516 0 l 1
 497 35 493 57 493 125 c 0xf2
 493 136 493 154 494 173 c 0
 495 186 495 196 495 202 c 0
 495 263 467 289 402 289 c 2
 230 289 l 1
230 414 m 1
 411 414 l 2
 454 414 474 419 490 433 c 0
 507 448 517 476 517 511 c 0
 517 545 508 570 490 585 c 0
 472 600 454 604 411 604 c 2
 230 604 l 1
 230 414 l 1
EndSplineSet
Ligature: 0 0 'liga' R uni0327
EndChar
StartChar: Gcommaaccent
Encoding: 319 290 213
Width: 778
Flags: W
HStem: -23 128<381 411> 267 125<419 585> 613 128<377 419>
VStem: 42 150<348 392> 332 122<-173 -60> 399 55<-180 -163>
Fore
332 -60 m 1xf8
 454 -60 l 1
 454 -163 l 2
 454 -245 403 -305 332 -307 c 1
 332 -261 l 1xf8
 378 -252 400 -222 399 -172 c 1xf4
 332 -172 l 1
 332 -60 l 1xf8
711 392 m 1
 711 -2 l 1
 621 -2 l 1
 603 94 l 1
 547 12 481 -23 383 -23 c 0
 186 -23 42 138 42 359 c 0
 42 586 185 741 395 741 c 0
 571 741 693 646 711 496 c 1
 570 496 l 1
 557 534 546 551 525 569 c 0
 492 598 448 613 396 613 c 0
 269 613 192 518 192 361 c 0
 192 211 279 105 400 105 c 0
 458 105 513 131 549 175 c 0
 571 201 581 226 585 267 c 1
 419 267 l 1
 419 392 l 1
 711 392 l 1
EndSplineSet
Ligature: 0 0 'liga' G uni0327
EndChar
StartChar: Umacron
Encoding: 320 362 214
Width: 722
Flags: W
HStem: -23 128<365 381> 709 20G<76 226 504 654> 819 79<216 515>
VStem: 76 150<235 729> 504 150<235 729>
Fore
515 898 m 1
 515 819 l 1
 216 819 l 1
 216 898 l 1
 515 898 l 1
504 729 m 1
 654 729 l 1
 654 235 l 2
 654 153 632 95 583 51 c 0
 530 3 453 -23 365 -23 c 0
 277 -23 200 3 147 51 c 0
 98 95 76 153 76 235 c 2
 76 729 l 1
 226 729 l 1
 226 235 l 2
 226 147 271 105 365 105 c 0
 459 105 504 147 504 235 c 2
 504 729 l 1
EndSplineSet
Ligature: 0 0 'liga' U uni0304
EndChar
StartChar: Uogonek
Encoding: 321 370 215
Width: 722
Flags: W
HStem: -234 51<517 541> -23 128<347 381> 709 20G<76 226 504 654>
VStem: 76 150<235 729> 373 89<-140 -130> 504 150<235 729>
Fore
597 -177 m 1
 597 -224 l 1
 570 -231 546 -234 517 -234 c 0
 490 -234 465 -230 441 -222 c 0
 395 -207 373 -179 373 -138 c 0
 373 -90 400 -55 477 -7 c 1
 429 -20 407 -23 368 -23 c 0
 277 -23 200 3 147 51 c 0
 98 95 76 153 76 235 c 2
 76 729 l 1
 226 729 l 1
 226 235 l 2
 226 147 271 105 365 105 c 0
 459 105 504 147 504 235 c 2
 504 729 l 1
 654 729 l 1
 654 235 l 2
 654 166 638 116 602 69 c 0
 585 48 585 48 527 -13 c 0
 482 -62 462 -98 462 -132 c 0
 462 -166 487 -183 539 -183 c 0
 560 -183 578 -181 597 -177 c 1
EndSplineSet
Ligature: 0 0 'liga' U uni0328
EndChar
StartChar: adieresis
Encoding: 322 228 216
Width: 556
Flags: W
HStem: -23 113<192 244> 436 113<248 285> 621 122<124 234 310 420>
VStem: 28 140<139 157> 124 110<621 743> 310 110<621 743> 355 137<200 394>
Fore
234 743 m 1xe8
 234 621 l 1
 124 621 l 1
 124 743 l 1
 234 743 l 1xe8
420 743 m 1xe4
 420 621 l 1
 310 621 l 1
 310 743 l 1
 420 743 l 1xe4
524 17 m 1
 524 0 l 1
 372 0 l 1
 359 16 356 26 356 54 c 1
 307 3 252 -23 192 -23 c 0
 144 -23 97 -4 66 28 c 0
 41 55 28 93 28 139 c 0
 28 236 80 291 187 309 c 2
 243 319 l 2
 312 330 312 330 331 340 c 0
 346 348 355 364 355 382 c 0
 355 418 328 436 274 436 c 0
 205 436 182 418 175 362 c 1
 40 362 l 1
 49 487 125 549 271 549 c 0
 417 549 492 493 492 383 c 2
 492 83 l 2xf2
 492 55 499 40 524 17 c 1
355 217 m 2
 355 255 l 1
 339 247 333 245 296 238 c 2
 248 229 l 2
 190 217 168 197 168 155 c 0
 168 115 197 90 244 90 c 0
 315 90 355 136 355 217 c 2
EndSplineSet
KernsSLIF: 118 -19 0 0 119 -5 0 0 121 -17 0 0
Ligature: 0 0 'liga' a uni0308
EndChar
StartChar: aacute
Encoding: 323 225 217
Width: 556
Flags: W
HStem: -23 113<192 244> 436 113<248 287>
VStem: 28 140<139 157> 355 137<200 394>
Fore
411 757 m 1
 285 607 l 1
 215 607 l 1
 285 757 l 1
 411 757 l 1
524 17 m 1
 524 0 l 1
 372 0 l 1
 359 16 356 26 356 54 c 1
 307 3 252 -23 192 -23 c 0
 144 -23 97 -4 66 28 c 0
 41 55 28 93 28 139 c 0
 28 236 80 291 187 309 c 2
 243 319 l 2
 312 330 312 330 331 340 c 0
 346 348 355 364 355 382 c 0
 355 418 328 436 274 436 c 0
 205 436 182 418 175 362 c 1
 40 362 l 1
 49 487 125 549 271 549 c 0
 417 549 492 493 492 383 c 2
 492 83 l 2
 492 55 499 40 524 17 c 1
355 217 m 2
 355 255 l 1
 339 247 333 245 296 238 c 2
 248 229 l 2
 190 217 168 197 168 155 c 0
 168 115 197 90 244 90 c 0
 315 90 355 136 355 217 c 2
EndSplineSet
KernsSLIF: 118 -19 0 0 119 -5 0 0 121 -17 0 0
Ligature: 0 0 'liga' a acutecomb
EndChar
StartChar: agrave
Encoding: 324 224 218
Width: 556
Flags: W
HStem: -23 113<192 244> 436 113<248 285> 607 150<132 328>
VStem: 28 140<139 157> 355 137<200 394>
Fore
132 757 m 1
 258 757 l 1
 328 607 l 1
 258 607 l 1
 132 757 l 1
524 17 m 1
 524 0 l 1
 372 0 l 1
 359 16 356 26 356 54 c 1
 307 3 252 -23 192 -23 c 0
 144 -23 97 -4 66 28 c 0
 41 55 28 93 28 139 c 0
 28 236 80 291 187 309 c 2
 243 319 l 2
 312 330 312 330 331 340 c 0
 346 348 355 364 355 382 c 0
 355 418 328 436 274 436 c 0
 205 436 182 418 175 362 c 1
 40 362 l 1
 49 487 125 549 271 549 c 0
 417 549 492 493 492 383 c 2
 492 83 l 2
 492 55 499 40 524 17 c 1
355 217 m 2
 355 255 l 1
 339 247 333 245 296 238 c 2
 248 229 l 2
 190 217 168 197 168 155 c 0
 168 115 197 90 244 90 c 0
 315 90 355 136 355 217 c 2
EndSplineSet
KernsSLIF: 118 -19 0 0 119 -5 0 0 121 -17 0 0
Ligature: 0 0 'liga' a gravecomb
EndChar
StartChar: acircumflex
Encoding: 325 226 219
Width: 556
Flags: W
HStem: -23 113<192 244> 436 113<248 285>
VStem: 28 140<139 157> 355 137<200 394>
DStem: 221 757 271 707 113 607 189 607
Fore
221 757 m 1
 328 757 l 1
 431 607 l 1
 353 607 l 1
 271 707 l 1
 189 607 l 1
 113 607 l 1
 221 757 l 1
524 17 m 1
 524 0 l 1
 372 0 l 1
 359 16 356 26 356 54 c 1
 307 3 252 -23 192 -23 c 0
 144 -23 97 -4 66 28 c 0
 41 55 28 93 28 139 c 0
 28 236 80 291 187 309 c 2
 243 319 l 2
 312 330 312 330 331 340 c 0
 346 348 355 364 355 382 c 0
 355 418 328 436 274 436 c 0
 205 436 182 418 175 362 c 1
 40 362 l 1
 49 487 125 549 271 549 c 0
 417 549 492 493 492 383 c 2
 492 83 l 2
 492 55 499 40 524 17 c 1
355 217 m 2
 355 255 l 1
 339 247 333 245 296 238 c 2
 248 229 l 2
 190 217 168 197 168 155 c 0
 168 115 197 90 244 90 c 0
 315 90 355 136 355 217 c 2
EndSplineSet
Ligature: 0 0 'liga' a uni0302
EndChar
StartChar: abreve
Encoding: 326 259 220
Width: 556
Flags: W
HStem: -23 113<192 244> 436 113<248 285> 605 77<267 285> 728 20G<143 199 351 407>
VStem: 28 140<139 157> 355 137<200 394>
Fore
407 748 m 1
 407 737 l 2
 407 662 350 605 275 605 c 0
 200 605 143 662 143 738 c 2
 143 748 l 1
 199 748 l 1
 205 704 230 682 276 682 c 0
 320 682 343 702 351 748 c 1
 407 748 l 1
524 17 m 1
 524 0 l 1
 372 0 l 1
 359 16 356 26 356 54 c 1
 307 3 252 -23 192 -23 c 0
 144 -23 97 -4 66 28 c 0
 41 55 28 93 28 139 c 0
 28 236 80 291 187 309 c 2
 243 319 l 2
 312 330 312 330 331 340 c 0
 346 348 355 364 355 382 c 0
 355 418 328 436 274 436 c 0
 205 436 182 418 175 362 c 1
 40 362 l 1
 49 487 125 549 271 549 c 0
 417 549 492 493 492 383 c 2
 492 83 l 2
 492 55 499 40 524 17 c 1
355 217 m 2
 355 255 l 1
 339 247 333 245 296 238 c 2
 248 229 l 2
 190 217 168 197 168 155 c 0
 168 115 197 90 244 90 c 0
 315 90 355 136 355 217 c 2
EndSplineSet
Ligature: 0 0 'liga' a uni0306
EndChar
StartChar: atilde
Encoding: 327 227 221
Width: 556
Flags: W
HStem: -23 113<192 244> 436 113<248 285> 622 79<347 358> 666 79<187 205>
VStem: 28 140<139 157> 355 137<200 394>
Fore
386 749 m 1xec
 449 749 l 1
 445 664 413 622 354 622 c 0xec
 339 622 320 626 299 634 c 2
 228 660 l 2
 216 664 207 666 198 666 c 0
 174 666 163 653 158 621 c 1
 95 621 l 1
 99 699 134 745 189 745 c 0xdc
 208 745 209 745 245 732 c 2
 316 707 l 2
 323 704 343 701 350 701 c 0
 371 701 383 717 386 749 c 1xec
524 17 m 1
 524 0 l 1
 372 0 l 1
 359 16 356 26 356 54 c 1
 307 3 252 -23 192 -23 c 0
 144 -23 97 -4 66 28 c 0
 41 55 28 93 28 139 c 0
 28 236 80 291 187 309 c 2
 243 319 l 2
 312 330 312 330 331 340 c 0
 346 348 355 364 355 382 c 0
 355 418 328 436 274 436 c 0
 205 436 182 418 175 362 c 1
 40 362 l 1
 49 487 125 549 271 549 c 0
 417 549 492 493 492 383 c 2
 492 83 l 2
 492 55 499 40 524 17 c 1
355 217 m 2
 355 255 l 1
 339 247 333 245 296 238 c 2
 248 229 l 2
 190 217 168 197 168 155 c 0
 168 115 197 90 244 90 c 0
 315 90 355 136 355 217 c 2
EndSplineSet
Ligature: 0 0 'liga' a tildecomb
EndChar
StartChar: aring
Encoding: 328 229 222
Width: 556
Flags: W
HStem: -23 113<192 244> 436 113<248 285> 590 48<267 277> 722 48<273 277>
VStem: 28 140<139 157> 182 48<680 682> 314 48<677 682> 355 137<200 394>
Fore
273 770 m 0xfe
 323 770 362 730 362 679 c 0
 362 630 321 590 272 590 c 0
 222 590 182 630 182 680 c 0
 182 730 222 770 273 770 c 0xfe
273 722 m 0
 249 722 230 703 230 680 c 0
 230 657 249 638 273 638 c 0
 295 638 314 657 314 680 c 0
 314 703 296 722 273 722 c 0
524 17 m 1
 524 0 l 1
 372 0 l 1
 359 16 356 26 356 54 c 1
 307 3 252 -23 192 -23 c 0
 144 -23 97 -4 66 28 c 0
 41 55 28 93 28 139 c 0
 28 236 80 291 187 309 c 2
 243 319 l 2
 312 330 312 330 331 340 c 0
 346 348 355 364 355 382 c 0
 355 418 328 436 274 436 c 0
 205 436 182 418 175 362 c 1
 40 362 l 1
 49 487 125 549 271 549 c 0
 417 549 492 493 492 383 c 2
 492 83 l 2xfd
 492 55 499 40 524 17 c 1
355 217 m 2
 355 255 l 1
 339 247 333 245 296 238 c 2
 248 229 l 2
 190 217 168 197 168 155 c 0
 168 115 197 90 244 90 c 0
 315 90 355 136 355 217 c 2
EndSplineSet
KernsSLIF: 118 -19 0 0 119 -5 0 0 121 -17 0 0
Ligature: 0 0 'liga' a uni030A
EndChar
StartChar: aogonek
Encoding: 329 261 223
Width: 556
Flags: W
HStem: -233 51<471 495> -23 113<192 244> 436 113<248 285>
VStem: 28 140<139 157> 325 90<-141 -127> 355 137<198 392>
Fore
524 17 m 1xf4
 524 0 l 1
 453 -38 415 -82 415 -129 c 0
 415 -165 439 -182 491 -182 c 0
 510 -182 529 -180 548 -177 c 1
 548 -224 l 1
 520 -231 500 -233 473 -233 c 0
 380 -233 325 -198 325 -139 c 0xf8
 325 -80 372 -27 449 0 c 1
 372 0 l 1
 359 16 356 26 356 54 c 1
 307 3 252 -23 192 -23 c 0
 144 -23 97 -4 66 28 c 0
 41 55 28 93 28 139 c 0
 28 236 80 291 187 309 c 2
 243 319 l 2
 312 330 312 330 331 340 c 0
 346 348 355 364 355 382 c 0
 355 418 328 436 274 436 c 0
 205 436 182 418 175 362 c 1
 40 362 l 1
 49 487 125 549 271 549 c 0
 417 549 492 493 492 383 c 2
 492 83 l 2
 492 55 499 40 524 17 c 1xf4
355 217 m 2xf4
 355 255 l 1
 339 247 333 245 296 238 c 2
 248 229 l 2
 190 217 168 197 168 155 c 0
 168 115 197 90 244 90 c 0
 315 90 355 136 355 217 c 2xf4
EndSplineSet
Ligature: 0 0 'liga' a uni0328
EndChar
StartChar: cacute
Encoding: 330 263 224
Width: 556
Flags: W
HStem: -23 113<273 304> 436 113<273 304>
VStem: 34 140<259 282>
Fore
428 757 m 1
 302 607 l 1
 232 607 l 1
 302 757 l 1
 428 757 l 1
522 338 m 1
 388 338 l 1
 372 409 345 436 288 436 c 0
 248 436 217 420 201 390 c 0
 184 358 174 310 174 259 c 0
 174 154 217 90 288 90 c 0
 342 90 370 117 388 187 c 1
 522 187 l 1
 509 58 418 -23 287 -23 c 0
 127 -23 34 81 34 259 c 0
 34 443 128 549 289 549 c 0
 424 549 512 470 522 338 c 1
EndSplineSet
Ligature: 0 0 'liga' c acutecomb
EndChar
StartChar: ccaron
Encoding: 331 269 225
Width: 556
Flags: W
HStem: -23 113<273 294> 436 113<273 295>
VStem: 34 140<259 282>
Fore
342 607 m 1
 235 607 l 1
 132 757 l 1
 210 757 l 1
 292 660 l 1
 374 757 l 1
 450 757 l 1
 342 607 l 1
522 338 m 1
 388 338 l 1
 372 409 345 436 288 436 c 0
 248 436 217 420 201 390 c 0
 184 358 174 310 174 259 c 0
 174 154 217 90 288 90 c 0
 342 90 370 117 388 187 c 1
 522 187 l 1
 509 58 418 -23 287 -23 c 0
 127 -23 34 81 34 259 c 0
 34 443 128 549 289 549 c 0
 424 549 512 470 522 338 c 1
EndSplineSet
Ligature: 0 0 'liga' c uni030C
EndChar
StartChar: ccedilla
Encoding: 332 231 226
Width: 556
Flags: W
HStem: -220 50<241 263> -23 113<289 305.571> 436 113<272 306>
VStem: 34 140<243 277> 306 86<-131 -123>
DStem: 248 -21 291 -23 205 -106 274 -63
Fore
291 -23 m 1
 274 -63 l 1
 287 -58 300 -56 315 -56 c 0
 363 -56 392 -83 392 -127 c 0
 392 -187 346 -220 263 -220 c 0
 219 -220 185 -213 125 -192 c 1
 144 -140 l 1
 195 -163 221 -170 248 -170 c 0
 280 -170 306 -152 306 -129 c 0
 306 -108 286 -94 255 -94 c 0
 235 -94 224 -97 205 -106 c 1
 248 -21 l 1
 110 -3 34 96 34 259 c 0
 34 443 128 549 289 549 c 0
 424 549 512 470 522 338 c 1
 388 338 l 1
 372 409 345 436 288 436 c 0
 248 436 217 420 201 390 c 0
 184 358 174 310 174 260 c 0
 174 203 189 151 212 123 c 0
 228 103 259 90 289 90 c 0
 342 90 371 118 388 187 c 1
 522 187 l 1
 511 62 416 -24 291 -23 c 1
EndSplineSet
Ligature: 0 0 'liga' c uni0327
EndChar
StartChar: dcaron
Encoding: 333 271 227
Width: 611
Flags: W
HStem: -23 117<256 287> 432 117<256 287> 709 20G<405 545 598 720>
VStem: 29 140<262 282> 405 140<0 729> 598 122<616 729> 665 55<615 626>
Fore
598 729 m 1xfc
 720 729 l 1
 720 626 l 2
 720 544 669 484 598 482 c 1
 598 528 l 1xfc
 644 537 666 567 665 617 c 1xfa
 598 617 l 1
 598 729 l 1xfc
405 0 m 1
 405 55 l 1
 370 2 323 -23 256 -23 c 0
 190 -23 124 11 87 63 c 0
 51 115 29 189 29 262 c 0
 29 425 127 549 256 549 c 0
 323 549 370 524 405 470 c 1
 405 729 l 1
 545 729 l 1
 545 0 l 1
 405 0 l 1
287 432 m 0
 217 432 169 362 169 262 c 0
 169 163 217 94 287 94 c 0
 357 94 405 162 405 260 c 0
 405 363 358 432 287 432 c 0
EndSplineSet
Ligature: 0 0 'liga' d uni030C
EndChar
StartChar: edieresis
Encoding: 334 235 228
Width: 556
Flags: W
HStem: -23 107<261 279> 226 93<164 524> 442 107<261 279> 621 122<132 242 318 428>
VStem: 132 110<621 743> 318 110<621 743>
Fore
242 743 m 1
 242 621 l 1
 132 621 l 1
 132 743 l 1
 242 743 l 1
428 743 m 1
 428 621 l 1
 318 621 l 1
 318 743 l 1
 428 743 l 1
524 226 m 1
 162 226 l 1
 164 175 169 151 182 131 c 0
 202 101 234 84 274 84 c 0
 325 84 364 109 381 152 c 1
 519 152 l 1
 488 46 390 -23 269 -23 c 0
 116 -23 22 83 22 256 c 0
 22 437 117 549 272 549 c 0
 381 549 468 490 504 392 c 0
 517 354 525 304 525 250 c 0
 525 243 525 238 524 226 c 1
164 319 m 1
 379 319 l 1
 376 356 370 377 357 397 c 0
 337 425 305 442 270 442 c 0
 208 442 173 401 164 319 c 1
EndSplineSet
Ligature: 0 0 'liga' e uni0308
EndChar
StartChar: eacute
Encoding: 335 233 229
Width: 556
Flags: W
HStem: -23 107<261 279> 226 93<164 524> 442 107<261 279>
Fore
420 757 m 1
 294 607 l 1
 224 607 l 1
 294 757 l 1
 420 757 l 1
524 226 m 1
 162 226 l 1
 164 175 169 151 182 131 c 0
 202 101 234 84 274 84 c 0
 325 84 364 109 381 152 c 1
 519 152 l 1
 488 46 390 -23 269 -23 c 0
 116 -23 22 83 22 256 c 0
 22 437 117 549 272 549 c 0
 381 549 468 490 504 392 c 0
 517 354 525 304 525 250 c 0
 525 243 525 238 524 226 c 1
164 319 m 1
 379 319 l 1
 376 356 370 377 357 397 c 0
 337 425 305 442 270 442 c 0
 208 442 173 401 164 319 c 1
EndSplineSet
KernsSLIF: 118 -19 0 0 119 -6 0 0 121 -17 0 0
Ligature: 0 0 'liga' e acutecomb
EndChar
StartChar: egrave
Encoding: 336 232 230
Width: 556
Flags: W
HStem: -23 107<257 279> 226 93<164 524> 442 107<256 279> 607 150<132 328>
Fore
132 757 m 1
 258 757 l 1
 328 607 l 1
 258 607 l 1
 132 757 l 1
524 226 m 1
 162 226 l 1
 164 175 169 151 182 131 c 0
 202 101 234 84 274 84 c 0
 325 84 364 109 381 152 c 1
 519 152 l 1
 488 46 390 -23 269 -23 c 0
 116 -23 22 83 22 256 c 0
 22 437 117 549 272 549 c 0
 381 549 468 490 504 392 c 0
 517 354 525 304 525 250 c 0
 525 243 525 238 524 226 c 1
164 319 m 1
 379 319 l 1
 376 356 370 377 357 397 c 0
 337 425 305 442 270 442 c 0
 208 442 173 401 164 319 c 1
EndSplineSet
Ligature: 0 0 'liga' e gravecomb
EndChar
StartChar: ecircumflex
Encoding: 337 234 231
Width: 556
Flags: W
HStem: -23 107<261 281> 226 93<164 524> 442 107<261 281>
DStem: 229 757 279 707 121 607 197 607
Fore
229 757 m 1
 336 757 l 1
 439 607 l 1
 361 607 l 1
 279 707 l 1
 197 607 l 1
 121 607 l 1
 229 757 l 1
524 226 m 1
 162 226 l 1
 164 175 169 151 182 131 c 0
 202 101 234 84 274 84 c 0
 325 84 364 109 381 152 c 1
 519 152 l 1
 488 46 390 -23 269 -23 c 0
 116 -23 22 83 22 256 c 0
 22 437 117 549 272 549 c 0
 381 549 468 490 504 392 c 0
 517 354 525 304 525 250 c 0
 525 243 525 238 524 226 c 1
164 319 m 1
 379 319 l 1
 376 356 370 377 357 397 c 0
 337 425 305 442 270 442 c 0
 208 442 173 401 164 319 c 1
EndSplineSet
KernsSLIF: 118 -19 0 0 119 -6 0 0 121 -17 0 0
Ligature: 0 0 'liga' e uni0302
EndChar
StartChar: ecaron
Encoding: 338 283 232
Width: 556
Flags: W
HStem: -23 107<261 284> 226 93<164 524> 442 107<261 284>
Fore
332 607 m 1
 225 607 l 1
 122 757 l 1
 200 757 l 1
 282 660 l 1
 364 757 l 1
 440 757 l 1
 332 607 l 1
524 226 m 1
 162 226 l 1
 164 175 169 151 182 131 c 0
 202 101 234 84 274 84 c 0
 325 84 364 109 381 152 c 1
 519 152 l 1
 488 46 390 -23 269 -23 c 0
 116 -23 22 83 22 256 c 0
 22 437 117 549 272 549 c 0
 381 549 468 490 504 392 c 0
 517 354 525 304 525 250 c 0
 525 243 525 238 524 226 c 1
164 319 m 1
 379 319 l 1
 376 356 370 377 357 397 c 0
 337 425 305 442 270 442 c 0
 208 442 173 401 164 319 c 1
EndSplineSet
Ligature: 0 0 'liga' e uni030C
EndChar
StartChar: edotaccent
Encoding: 339 279 233
Width: 556
Flags: W
HStem: -23 107<261 279> 226 93<164 524> 442 107<261 279> 723 20G<224 334>
VStem: 224 110<621 743>
Fore
334 743 m 1
 334 621 l 1
 224 621 l 1
 224 743 l 1
 334 743 l 1
524 226 m 1
 162 226 l 1
 164 175 169 151 182 131 c 0
 202 101 234 84 274 84 c 0
 325 84 364 109 381 152 c 1
 519 152 l 1
 488 46 390 -23 269 -23 c 0
 116 -23 22 83 22 256 c 0
 22 437 117 549 272 549 c 0
 381 549 468 490 504 392 c 0
 517 354 525 304 525 250 c 0
 525 243 525 238 524 226 c 1
164 319 m 1
 379 319 l 1
 376 356 370 377 357 397 c 0
 337 425 305 442 270 442 c 0
 208 442 173 401 164 319 c 1
EndSplineSet
Ligature: 0 0 'liga' e uni0307
EndChar
StartChar: eogonek
Encoding: 340 281 234
Width: 556
Flags: W
HStem: -234 51<399 423> -24 107<260 278> 226 93<163 524> 442 107<253 277>
VStem: 255 90<-139 -121>
Fore
478 -177 m 1
 478 -224 l 1
 451 -231 427 -234 399 -234 c 0
 310 -234 255 -197 255 -137 c 0
 255 -92 279 -60 350 -11 c 1
 314 -21 296 -24 268 -24 c 0
 116 -24 21 83 21 256 c 0
 21 437 116 549 271 549 c 0
 380 549 468 490 504 392 c 0
 517 355 525 304 525 250 c 0
 525 245 525 238 524 226 c 1
 162 226 l 1
 164 175 169 151 182 130 c 0
 201 100 234 83 274 83 c 0
 325 83 363 108 380 152 c 1
 518 152 l 1
 504 101 492 83 434 21 c 0
 366 -53 345 -88 345 -131 c 0
 345 -166 369 -183 421 -183 c 0
 441 -183 459 -181 478 -177 c 1
163 319 m 1
 379 319 l 1
 376 356 370 377 356 397 c 0
 337 425 305 442 270 442 c 0
 207 442 172 401 163 319 c 1
EndSplineSet
Ligature: 0 0 'liga' e uni0328
EndChar
StartChar: gbreve
Encoding: 341 287 235
Width: 611
Flags: W
HStem: -218 90<273 306> -23 117<255 286> 432 117<258 288> 605 77<290 323> 728 20G<174 230 382 438>
VStem: 34 140<245 279> 408 133<-18 55 245 540>
Fore
438 748 m 1
 438 737 l 2
 438 662 381 605 306 605 c 0
 231 605 174 662 174 738 c 2
 174 748 l 1
 230 748 l 1
 236 704 261 682 307 682 c 0
 351 682 374 702 382 748 c 1
 438 748 l 1
408 540 m 1
 541 540 l 1
 541 -18 l 2
 541 -145 447 -218 284 -218 c 0
 201 -218 141 -201 98 -166 c 0
 62 -136 46 -107 45 -65 c 1
 190 -65 l 1
 201 -106 236 -128 289 -128 c 0
 359 -128 408 -83 408 -18 c 2
 408 55 l 1
 356 -4 318 -23 255 -23 c 0
 122 -23 34 89 34 257 c 0
 34 424 130 549 258 549 c 0
 320 549 366 521 408 457 c 1
 408 540 l 1
288 432 m 0
 220 432 174 361 174 259 c 0
 174 161 220 94 286 94 c 0
 359 94 410 161 410 259 c 0
 410 359 358 432 288 432 c 0
EndSplineSet
Ligature: 0 0 'liga' g uni0306
EndChar
StartChar: idieresis
Encoding: 342 239 236
Width: 278
Flags: W
HStem: 0 21G<67 207> 520 20G<67 207> 621 122<-9 101 177 287>
VStem: -9 110<621 743> 67 140<0 540> 177 110<621 743>
Fore
101 743 m 1xf0
 101 621 l 1
 -9 621 l 1
 -9 743 l 1
 101 743 l 1xf0
287 743 m 1xe4
 287 621 l 1
 177 621 l 1
 177 743 l 1
 287 743 l 1xe4
207 540 m 1xe8
 207 0 l 1
 67 0 l 1
 67 540 l 1
 207 540 l 1xe8
EndSplineSet
Ligature: 0 0 'liga' i uni0308
EndChar
StartChar: iacute
Encoding: 343 237 237
Width: 278
Flags: W
HStem: 0 21G<67 207> 520 20G<67 207>
VStem: 67 140<0 540>
Fore
290 757 m 1
 164 607 l 1
 94 607 l 1
 164 757 l 1
 290 757 l 1
207 540 m 1
 207 0 l 1
 67 0 l 1
 67 540 l 1
 207 540 l 1
EndSplineSet
Ligature: 0 0 'liga' i acutecomb
EndChar
StartChar: igrave
Encoding: 344 236 238
Width: 278
Flags: W
HStem: 0 21G<67 207> 520 20G<67 207> 607 150<-10 186>
VStem: 67 140<0 540>
Fore
-10 757 m 1
 116 757 l 1
 186 607 l 1
 116 607 l 1
 -10 757 l 1
207 540 m 1
 207 0 l 1
 67 0 l 1
 67 540 l 1
 207 540 l 1
EndSplineSet
Ligature: 0 0 'liga' i gravecomb
EndChar
StartChar: icircumflex
Encoding: 345 238 239
Width: 278
Flags: W
HStem: 0 21G<67 207> 520 20G<67 207>
VStem: 67 140<0 540>
DStem: 89 757 139 707 -19 607 57 607
Fore
89 757 m 1
 196 757 l 1
 299 607 l 1
 221 607 l 1
 139 707 l 1
 57 607 l 1
 -19 607 l 1
 89 757 l 1
207 540 m 1
 207 0 l 1
 67 0 l 1
 67 540 l 1
 207 540 l 1
EndSplineSet
Ligature: 0 0 'liga' i uni0302
EndChar
StartChar: lacute
Encoding: 346 314 240
Width: 278
Flags: W
HStem: 0 21G<67 207> 709 20G<67 207>
VStem: 67 140<0 729>
Fore
278 936 m 1
 152 786 l 1
 82 786 l 1
 152 936 l 1
 278 936 l 1
207 729 m 1
 207 0 l 1
 67 0 l 1
 67 729 l 1
 207 729 l 1
EndSplineSet
Ligature: 0 0 'liga' l acutecomb
EndChar
StartChar: lcaron
Encoding: 347 318 241
Width: 278
Flags: W
HStem: 0 21G<67 207> 708 20G<260 382>
VStem: 67 140<0 729> 260 122<615 728> 327 55<607 625>
Fore
260 728 m 1xf0
 382 728 l 1
 382 625 l 2
 382 543 331 483 260 481 c 1
 260 527 l 1xf0
 306 536 328 566 327 616 c 1xe8
 260 616 l 1
 260 728 l 1xf0
207 729 m 1
 207 0 l 1
 67 0 l 1
 67 729 l 1
 207 729 l 1
EndSplineSet
Ligature: 0 0 'liga' l uni030C
EndChar
StartChar: nacute
Encoding: 348 324 242
Width: 611
Flags: W
HStem: 0 21G<63 203 406 546> 430 119<316 365>
VStem: 63 140<0 337 0 540> 406 140<0 362>
Fore
441 757 m 1
 315 607 l 1
 245 607 l 1
 315 757 l 1
 441 757 l 1
63 540 m 1
 203 540 l 1
 203 462 l 1
 243 522 292 549 365 549 c 0
 480 549 546 481 546 362 c 2
 546 0 l 1
 406 0 l 1
 406 333 l 2
 406 397 376 430 316 430 c 0
 248 430 203 388 203 324 c 2
 203 0 l 1
 63 0 l 1
 63 540 l 1
EndSplineSet
Ligature: 0 0 'liga' n acutecomb
EndChar
StartChar: ncaron
Encoding: 349 328 243
Width: 611
Flags: W
HStem: 0 21G<63 203 406 546> 430 119<316 365>
VStem: 63 140<0 337 0 540> 406 140<0 362>
Fore
351 607 m 1
 244 607 l 1
 141 757 l 1
 219 757 l 1
 301 660 l 1
 383 757 l 1
 459 757 l 1
 351 607 l 1
63 540 m 1
 203 540 l 1
 203 462 l 1
 243 522 292 549 365 549 c 0
 480 549 546 481 546 362 c 2
 546 0 l 1
 406 0 l 1
 406 333 l 2
 406 397 376 430 316 430 c 0
 248 430 203 388 203 324 c 2
 203 0 l 1
 63 0 l 1
 63 540 l 1
EndSplineSet
Ligature: 0 0 'liga' n uni030C
EndChar
StartChar: ntilde
Encoding: 350 241 244
Width: 611
Flags: W
HStem: 0 21G<63 203 406 546> 430 119<316 365> 622 79<378 386> 666 79<217 230>
VStem: 63 140<0 337 0 540> 406 140<0 362>
Fore
416 749 m 1xec
 479 749 l 1
 475 664 443 622 384 622 c 0xec
 369 622 350 626 329 634 c 2
 258 660 l 2
 246 664 237 666 228 666 c 0
 204 666 193 653 188 621 c 1
 125 621 l 1
 129 699 164 745 219 745 c 0xdc
 238 745 239 745 275 732 c 2
 346 707 l 2
 353 704 373 701 380 701 c 0
 401 701 413 717 416 749 c 1xec
63 540 m 1
 203 540 l 1
 203 462 l 1
 243 522 292 549 365 549 c 0
 480 549 546 481 546 362 c 2
 546 0 l 1
 406 0 l 1
 406 333 l 2
 406 397 376 430 316 430 c 0
 248 430 203 388 203 324 c 2
 203 0 l 1
 63 0 l 1
 63 540 l 1
EndSplineSet
Ligature: 0 0 'liga' n tildecomb
EndChar
StartChar: odieresis
Encoding: 351 246 245
Width: 611
Flags: W
HStem: -23 113<302 308> 436 113<290 308> 621 122<154 264 340 450>
VStem: 35 140<263 282> 154 110<621 743> 340 110<621 743> 429 140<248 282>
Fore
264 743 m 1xe8
 264 621 l 1
 154 621 l 1
 154 743 l 1
 264 743 l 1xe8
450 743 m 1xe4
 450 621 l 1
 340 621 l 1
 340 743 l 1
 450 743 l 1xe4
301 549 m 0
 470 549 569 442 569 259 c 0
 569 86 466 -23 302 -23 c 0
 136 -23 35 85 35 263 c 0xf2
 35 440 136 549 301 549 c 0
302 436 m 0
 226 436 175 366 175 263 c 0
 175 160 226 90 302 90 c 0
 377 90 429 160 429 261 c 0
 429 367 379 436 302 436 c 0
EndSplineSet
KernsSLIF: 116 -8 0 0 118 -23 0 0 119 -10 0 0 120 -25 0 0 121 -22 0 0
Ligature: 0 0 'liga' o uni0308
EndChar
StartChar: oacute
Encoding: 352 243 246
Width: 611
Flags: W
HStem: -23 113<302 317> 436 113<290 317>
VStem: 35 140<263 282> 429 140<248 282>
Fore
441 757 m 1
 315 607 l 1
 245 607 l 1
 315 757 l 1
 441 757 l 1
301 549 m 0
 470 549 569 442 569 259 c 0
 569 86 466 -23 302 -23 c 0
 136 -23 35 85 35 263 c 0
 35 440 136 549 301 549 c 0
302 436 m 0
 226 436 175 366 175 263 c 0
 175 160 226 90 302 90 c 0
 377 90 429 160 429 261 c 0
 429 367 379 436 302 436 c 0
EndSplineSet
KernsSLIF: 118 -23 0 0 119 -10 0 0 121 -22 0 0
Ligature: 0 0 'liga' o acutecomb
EndChar
StartChar: ograve
Encoding: 353 242 247
Width: 611
Flags: W
HStem: -23 113<302 308> 436 113<289 308> 607 150<165 361>
VStem: 35 140<263 282> 429 140<248 282>
Fore
165 757 m 1
 291 757 l 1
 361 607 l 1
 291 607 l 1
 165 757 l 1
301 549 m 0
 470 549 569 442 569 259 c 0
 569 86 466 -23 302 -23 c 0
 136 -23 35 85 35 263 c 0
 35 440 136 549 301 549 c 0
302 436 m 0
 226 436 175 366 175 263 c 0
 175 160 226 90 302 90 c 0
 377 90 429 160 429 261 c 0
 429 367 379 436 302 436 c 0
EndSplineSet
KernsSLIF: 118 -23 0 0 119 -10 0 0 121 -22 0 0
Ligature: 0 0 'liga' o gravecomb
EndChar
StartChar: ocircumflex
Encoding: 354 244 248
Width: 611
Flags: W
HStem: -23 113<302 308> 436 113<290 308>
VStem: 35 140<263 282> 429 140<248 282>
DStem: 251 757 301 707 143 607 219 607
Fore
251 757 m 1
 358 757 l 1
 461 607 l 1
 383 607 l 1
 301 707 l 1
 219 607 l 1
 143 607 l 1
 251 757 l 1
301 549 m 0
 470 549 569 442 569 259 c 0
 569 86 466 -23 302 -23 c 0
 136 -23 35 85 35 263 c 0
 35 440 136 549 301 549 c 0
302 436 m 0
 226 436 175 366 175 263 c 0
 175 160 226 90 302 90 c 0
 377 90 429 160 429 261 c 0
 429 367 379 436 302 436 c 0
EndSplineSet
KernsSLIF: 116 -8 0 0
Ligature: 0 0 'liga' o uni0302
EndChar
StartChar: otilde
Encoding: 355 245 249
Width: 611
Flags: W
HStem: -23 113<302 308> 436 113<290 308> 622 79<381 389> 666 79<220 233>
VStem: 35 140<263 282> 429 140<248 282>
Fore
419 749 m 1xec
 482 749 l 1
 478 664 446 622 387 622 c 0xec
 372 622 353 626 332 634 c 2
 261 660 l 2
 249 664 240 666 231 666 c 0
 207 666 196 653 191 621 c 1
 128 621 l 1
 132 699 167 745 222 745 c 0xdc
 241 745 242 745 278 732 c 2
 349 707 l 2
 356 704 376 701 383 701 c 0
 404 701 416 717 419 749 c 1xec
301 549 m 0
 470 549 569 442 569 259 c 0
 569 86 466 -23 302 -23 c 0
 136 -23 35 85 35 263 c 0
 35 440 136 549 301 549 c 0
302 436 m 0
 226 436 175 366 175 263 c 0
 175 160 226 90 302 90 c 0
 377 90 429 160 429 261 c 0
 429 367 379 436 302 436 c 0
EndSplineSet
Ligature: 0 0 'liga' o tildecomb
EndChar
StartChar: ohungarumlaut
Encoding: 356 337 250
Width: 611
Flags: W
HStem: -23 113<302 308> 436 113<290 308>
VStem: 35 140<263 282> 429 140<248 282>
Fore
371 757 m 1
 245 610 l 1
 175 610 l 1
 245 757 l 1
 371 757 l 1
559 757 m 1
 433 610 l 1
 363 610 l 1
 433 757 l 1
 559 757 l 1
301 549 m 0
 470 549 569 442 569 259 c 0
 569 86 466 -23 302 -23 c 0
 136 -23 35 85 35 263 c 0
 35 440 136 549 301 549 c 0
302 436 m 0
 226 436 175 366 175 263 c 0
 175 160 226 90 302 90 c 0
 377 90 429 160 429 261 c 0
 429 367 379 436 302 436 c 0
EndSplineSet
Ligature: 0 0 'liga' o uni030B
EndChar
StartChar: racute
Encoding: 357 341 251
Width: 389
Flags: W
HStem: 0 21G<63 203> 410 139<326 353>
VStem: 63 140<0 305 0 540>
Fore
349 757 m 1
 223 607 l 1
 153 607 l 1
 223 757 l 1
 349 757 l 1
63 540 m 1
 203 540 l 1
 203 434 l 1
 233 507 289 549 353 549 c 0
 357 549 362 549 370 548 c 1
 370 406 l 1
 351 409 341 410 326 410 c 0
 244 410 203 369 203 287 c 2
 203 0 l 1
 63 0 l 1
 63 540 l 1
EndSplineSet
Ligature: 0 0 'liga' r acutecomb
EndChar
StartChar: sacute
Encoding: 358 347 252
Width: 556
Flags: W
HStem: -23 110<267 295> 439 110<252 286>
VStem: 48 140<369 389> 380 140<140 160>
Fore
419 757 m 1
 293 607 l 1
 223 607 l 1
 293 757 l 1
 419 757 l 1
505 366 m 1
 370 366 l 1
 369 415 336 439 269 439 c 0
 220 439 188 419 188 389 c 0
 188 367 198 359 237 347 c 2
 414 296 l 2
 485 275 520 230 520 160 c 0
 520 107 496 57 456 25 c 0
 416 -7 359 -23 284 -23 c 0
 120 -23 33 39 29 157 c 1
 166 157 l 1
 172 128 178 117 193 106 c 0
 211 94 240 87 276 87 c 0
 341 87 380 107 380 140 c 0
 380 162 368 173 333 184 c 2
 166 236 l 2
 114 253 97 262 78 281 c 0
 59 302 48 333 48 369 c 0
 48 480 133 549 270 549 c 0
 415 549 503 480 505 366 c 1
EndSplineSet
Ligature: 0 0 'liga' s acutecomb
EndChar
StartChar: scaron
Encoding: 359 353 253
Width: 556
Flags: W
HStem: -23 110<267 286> 439 110<252 286>
VStem: 48 140<369 389> 380 140<140 160>
Fore
332 607 m 1
 225 607 l 1
 122 757 l 1
 200 757 l 1
 282 660 l 1
 364 757 l 1
 440 757 l 1
 332 607 l 1
505 366 m 1
 370 366 l 1
 369 415 336 439 269 439 c 0
 220 439 188 419 188 389 c 0
 188 367 198 359 237 347 c 2
 414 296 l 2
 485 275 520 230 520 160 c 0
 520 107 496 57 456 25 c 0
 416 -7 359 -23 284 -23 c 0
 120 -23 33 39 29 157 c 1
 166 157 l 1
 172 128 178 117 193 106 c 0
 211 94 240 87 276 87 c 0
 341 87 380 107 380 140 c 0
 380 162 368 173 333 184 c 2
 166 236 l 2
 114 253 97 262 78 281 c 0
 59 302 48 333 48 369 c 0
 48 480 133 549 270 549 c 0
 415 549 503 480 505 366 c 1
EndSplineSet
Ligature: 0 0 'liga' s uni030C
EndChar
StartChar: scommaaccent
Encoding: 360 537 254
Width: 556
Flags: W
HStem: -23 110<267 296> 439 110<252 286>
VStem: 48 140<369 389> 227 122<-173 -60> 294 55<-180 -163> 380 140<140 160>
Fore
227 -60 m 1xf4
 349 -60 l 1
 349 -163 l 2
 349 -245 298 -305 227 -307 c 1
 227 -261 l 1xf4
 273 -252 295 -222 294 -172 c 1xec
 227 -172 l 1
 227 -60 l 1xf4
505 366 m 1
 370 366 l 1
 369 415 336 439 269 439 c 0
 220 439 188 419 188 389 c 0
 188 367 198 359 237 347 c 2
 414 296 l 2
 485 275 520 230 520 160 c 0
 520 107 496 57 456 25 c 0
 416 -7 359 -23 284 -23 c 0
 120 -23 33 39 29 157 c 1
 166 157 l 1
 172 128 178 117 193 106 c 0
 211 94 240 87 276 87 c 0
 341 87 380 107 380 140 c 0
 380 162 368 173 333 184 c 2
 166 236 l 2
 114 253 97 262 78 281 c 0
 59 302 48 333 48 369 c 0
 48 480 133 549 270 549 c 0
 415 549 503 480 505 366 c 1
EndSplineSet
Ligature: 0 0 'liga' s uni0326
EndChar
StartChar: tcaron
Encoding: 361 357 255
Width: 333
Flags: W
HStem: -23 106<220 269> 436 93<14 83 223 301> 696 20G<276 343>
VStem: 83 140<104 436 529 674> 276 122<715 828> 343 55<712 725>
Fore
276 828 m 1xf8
 398 828 l 1
 398 725 l 2
 398 643 347 583 276 581 c 1
 276 627 l 1xf8
 322 636 344 666 343 716 c 1xf4
 276 716 l 1
 276 828 l 1xf8
301 529 m 1
 301 436 l 1
 223 436 l 1
 223 142 l 2
 223 94 232 83 269 83 c 0
 279 83 287 84 301 86 c 1
 301 -12 l 1
 276 -20 251 -23 220 -23 c 0
 128 -23 83 19 83 104 c 2
 83 436 l 1
 14 436 l 1
 14 529 l 1
 83 529 l 1
 83 674 l 1
 223 674 l 1
 223 529 l 1
 301 529 l 1
EndSplineSet
Ligature: 0 0 'liga' t uni030C
EndChar
StartChar: udieresis
Encoding: 362 252 256
Width: 611
Flags: W
HStem: -23 119<239 288> 520 20G<58 198 401 541> 621 122<150 260 336 446>
VStem: 58 140<164 540> 150 110<621 743> 336 110<621 743> 401 140<0 540>
Fore
260 743 m 1xe8
 260 621 l 1
 150 621 l 1
 150 743 l 1
 260 743 l 1xe8
446 743 m 1xe4
 446 621 l 1
 336 621 l 1
 336 743 l 1
 446 743 l 1xe4
541 0 m 1xf2
 401 0 l 1
 401 64 l 1
 361 4 312 -23 239 -23 c 0
 124 -23 58 45 58 164 c 2
 58 540 l 1
 198 540 l 1
 198 193 l 2
 198 128 228 96 288 96 c 0
 356 96 401 138 401 202 c 2
 401 540 l 1
 541 540 l 1
 541 0 l 1xf2
EndSplineSet
Ligature: 0 0 'liga' u uni0308
EndChar
StartChar: uacute
Encoding: 363 250 257
Width: 611
Flags: W
HStem: -23 119<239 288> 520 20G<58 198 401 541>
VStem: 58 140<164 540> 401 140<0 540>
Fore
438 757 m 1
 312 607 l 1
 242 607 l 1
 312 757 l 1
 438 757 l 1
541 0 m 1
 401 0 l 1
 401 64 l 1
 361 4 312 -23 239 -23 c 0
 124 -23 58 45 58 164 c 2
 58 540 l 1
 198 540 l 1
 198 193 l 2
 198 128 228 96 288 96 c 0
 356 96 401 138 401 202 c 2
 401 540 l 1
 541 540 l 1
 541 0 l 1
EndSplineSet
Ligature: 0 0 'liga' u acutecomb
EndChar
StartChar: ugrave
Encoding: 364 249 258
Width: 611
Flags: W
HStem: -23 119<239 288> 520 20G<58 198 401 541> 607 150<164 360>
VStem: 58 140<164 540> 401 140<0 540>
Fore
164 757 m 1
 290 757 l 1
 360 607 l 1
 290 607 l 1
 164 757 l 1
541 0 m 1
 401 0 l 1
 401 64 l 1
 361 4 312 -23 239 -23 c 0
 124 -23 58 45 58 164 c 2
 58 540 l 1
 198 540 l 1
 198 193 l 2
 198 128 228 96 288 96 c 0
 356 96 401 138 401 202 c 2
 401 540 l 1
 541 540 l 1
 541 0 l 1
EndSplineSet
Ligature: 0 0 'liga' u gravecomb
EndChar
StartChar: ucircumflex
Encoding: 365 251 259
Width: 611
Flags: W
HStem: -23 119<239 288> 520 20G<58 198 401 541>
VStem: 58 140<164 540> 401 140<0 540>
DStem: 248 757 298 707 140 607 216 607
Fore
248 757 m 1
 355 757 l 1
 458 607 l 1
 380 607 l 1
 298 707 l 1
 216 607 l 1
 140 607 l 1
 248 757 l 1
541 0 m 1
 401 0 l 1
 401 64 l 1
 361 4 312 -23 239 -23 c 0
 124 -23 58 45 58 164 c 2
 58 540 l 1
 198 540 l 1
 198 193 l 2
 198 128 228 96 288 96 c 0
 356 96 401 138 401 202 c 2
 401 540 l 1
 541 540 l 1
 541 0 l 1
EndSplineSet
Ligature: 0 0 'liga' u uni0302
EndChar
StartChar: uring
Encoding: 366 367 260
Width: 611
Flags: W
HStem: -23 119<239 288> 520 20G<58 198 401 541> 590 48<289 301> 722 48<299 301>
VStem: 58 140<164 540> 208 48<680 682> 340 48<677 682> 401 140<0 540>
Fore
299 770 m 0
 349 770 388 730 388 679 c 0
 388 630 347 590 298 590 c 0
 248 590 208 630 208 680 c 0
 208 730 248 770 299 770 c 0
299 722 m 0
 275 722 256 703 256 680 c 0
 256 657 275 638 299 638 c 0
 321 638 340 657 340 680 c 0
 340 703 322 722 299 722 c 0
541 0 m 1
 401 0 l 1
 401 64 l 1
 361 4 312 -23 239 -23 c 0
 124 -23 58 45 58 164 c 2
 58 540 l 1
 198 540 l 1
 198 193 l 2
 198 128 228 96 288 96 c 0
 356 96 401 138 401 202 c 2
 401 540 l 1
 541 540 l 1
 541 0 l 1
EndSplineSet
Ligature: 0 0 'liga' u uni030A
EndChar
StartChar: uhungarumlaut
Encoding: 367 369 261
Width: 611
Flags: W
HStem: -23 119<239 288> 520 20G<58 198 401 541>
VStem: 58 140<164 540> 401 140<0 540>
Fore
370 757 m 1
 244 610 l 1
 174 610 l 1
 244 757 l 1
 370 757 l 1
558 757 m 1
 432 610 l 1
 362 610 l 1
 432 757 l 1
 558 757 l 1
541 0 m 1
 401 0 l 1
 401 64 l 1
 361 4 312 -23 239 -23 c 0
 124 -23 58 45 58 164 c 2
 58 540 l 1
 198 540 l 1
 198 193 l 2
 198 128 228 96 288 96 c 0
 356 96 401 138 401 202 c 2
 401 540 l 1
 541 540 l 1
 541 0 l 1
EndSplineSet
Ligature: 0 0 'liga' u uni030B
EndChar
StartChar: yacute
Encoding: 368 253 262
Width: 556
Flags: W
HStem: -219 103<120 136> 520 20G<9 163 394 538>
Fore
411 757 m 1
 285 607 l 1
 215 607 l 1
 285 757 l 1
 411 757 l 1
394 540 m 1
 538 540 l 1
 316 -99 l 1
 293 -163 276 -186 237 -202 c 0
 213 -212 171 -219 136 -219 c 0
 119 -219 107 -218 86 -215 c 1
 86 -110 l 1
 104 -115 112 -116 123 -116 c 0
 172 -116 210 -77 210 -26 c 2
 210 -23 l 1
 210 -22 l 1
 9 540 l 1
 163 540 l 1
 282 147 l 1
 394 540 l 1
EndSplineSet
Ligature: 0 0 'liga' y acutecomb
EndChar
StartChar: zacute
Encoding: 369 378 263
Width: 500
Flags: W
HStem: 0 113<194 468> 427 113<39 288>
DStem: 288 427 459 427 21 113 194 113
Fore
387 757 m 1
 261 607 l 1
 191 607 l 1
 261 757 l 1
 387 757 l 1
459 540 m 1
 459 427 l 1
 194 113 l 1
 468 113 l 1
 468 0 l 1
 21 0 l 1
 21 113 l 1
 288 427 l 1
 39 427 l 1
 39 540 l 1
 459 540 l 1
EndSplineSet
Ligature: 0 0 'liga' z acutecomb
EndChar
StartChar: zcaron
Encoding: 370 382 264
Width: 500
Flags: W
HStem: 0 113<194 468> 427 113<39 288>
DStem: 288 427 459 427 21 113 194 113
Fore
302 607 m 1
 195 607 l 1
 92 757 l 1
 170 757 l 1
 252 660 l 1
 334 757 l 1
 410 757 l 1
 302 607 l 1
459 540 m 1
 459 427 l 1
 194 113 l 1
 468 113 l 1
 468 0 l 1
 21 0 l 1
 21 113 l 1
 288 427 l 1
 39 427 l 1
 39 540 l 1
 459 540 l 1
EndSplineSet
Ligature: 0 0 'liga' z uni030C
EndChar
StartChar: zdotaccent
Encoding: 371 380 265
Width: 500
Flags: W
HStem: 0 113<194 468> 427 113<39 288> 723 20G<196 306>
VStem: 196 110<621 743>
DStem: 288 427 459 427 21 113 194 113
Fore
306 743 m 1
 306 621 l 1
 196 621 l 1
 196 743 l 1
 306 743 l 1
459 540 m 1
 459 427 l 1
 194 113 l 1
 468 113 l 1
 468 0 l 1
 21 0 l 1
 21 113 l 1
 288 427 l 1
 39 427 l 1
 39 540 l 1
 459 540 l 1
EndSplineSet
Ligature: 0 0 'liga' z uni0307
EndChar
StartChar: ydieresis
Encoding: 372 255 266
Width: 556
Flags: W
HStem: -219 103<120 136> 520 20G<9 163 394 538> 621 122<125 235 311 421>
VStem: 125 110<621 743> 311 110<621 743>
Fore
235 743 m 1
 235 621 l 1
 125 621 l 1
 125 743 l 1
 235 743 l 1
421 743 m 1
 421 621 l 1
 311 621 l 1
 311 743 l 1
 421 743 l 1
394 540 m 1
 538 540 l 1
 316 -99 l 1
 293 -163 276 -186 237 -202 c 0
 213 -212 171 -219 136 -219 c 0
 119 -219 107 -218 86 -215 c 1
 86 -110 l 1
 104 -115 112 -116 123 -116 c 0
 172 -116 210 -77 210 -26 c 2
 210 -23 l 1
 210 -22 l 1
 9 540 l 1
 163 540 l 1
 282 147 l 1
 394 540 l 1
EndSplineSet
Ligature: 0 0 'liga' y uni0308
EndChar
StartChar: tcommaaccent
Encoding: 373 355 267
Width: 333
Flags: W
HStem: -23 106<220 269> 436 93<14 83 223 301>
VStem: 83 140<104 436 529 674> 194 55<-180 -163>
Fore
127 -60 m 1xd0
 249 -60 l 1
 249 -163 l 2
 249 -245 198 -305 127 -307 c 1
 127 -261 l 1
 173 -252 195 -222 194 -172 c 1
 127 -172 l 1
 127 -60 l 1xd0
301 529 m 1
 301 436 l 1
 223 436 l 1
 223 142 l 2
 223 94 232 83 269 83 c 0
 279 83 287 84 301 86 c 1
 301 -12 l 1
 276 -20 251 -23 220 -23 c 0
 128 -23 83 19 83 104 c 2
 83 436 l 1
 14 436 l 1
 14 529 l 1
 83 529 l 1
 83 674 l 1
 223 674 l 1
 223 529 l 1xe0
 301 529 l 1
EndSplineSet
Ligature: 0 0 'liga' t uni0327
EndChar
StartChar: amacron
Encoding: 374 257 268
Width: 556
Flags: W
HStem: -23 113<192 244> 436 113<248 285> 640 79<122 421>
VStem: 28 140<139 157> 355 137<200 394>
Fore
421 719 m 1
 421 640 l 1
 122 640 l 1
 122 719 l 1
 421 719 l 1
524 17 m 1
 524 0 l 1
 372 0 l 1
 359 16 356 26 356 54 c 1
 307 3 252 -23 192 -23 c 0
 144 -23 97 -4 66 28 c 0
 41 55 28 93 28 139 c 0
 28 236 80 291 187 309 c 2
 243 319 l 2
 312 330 312 330 331 340 c 0
 346 348 355 364 355 382 c 0
 355 418 328 436 274 436 c 0
 205 436 182 418 175 362 c 1
 40 362 l 1
 49 487 125 549 271 549 c 0
 417 549 492 493 492 383 c 2
 492 83 l 2
 492 55 499 40 524 17 c 1
355 217 m 2
 355 255 l 1
 339 247 333 245 296 238 c 2
 248 229 l 2
 190 217 168 197 168 155 c 0
 168 115 197 90 244 90 c 0
 315 90 355 136 355 217 c 2
EndSplineSet
Ligature: 0 0 'liga' a uni0304
EndChar
StartChar: emacron
Encoding: 375 275 269
Width: 556
Flags: W
HStem: -23 107<261 279> 226 93<164 524> 442 107<261 279> 640 79<131 430>
Fore
430 719 m 1
 430 640 l 1
 131 640 l 1
 131 719 l 1
 430 719 l 1
524 226 m 1
 162 226 l 1
 164 175 169 151 182 131 c 0
 202 101 234 84 274 84 c 0
 325 84 364 109 381 152 c 1
 519 152 l 1
 488 46 390 -23 269 -23 c 0
 116 -23 22 83 22 256 c 0
 22 437 117 549 272 549 c 0
 381 549 468 490 504 392 c 0
 517 354 525 304 525 250 c 0
 525 243 525 238 524 226 c 1
164 319 m 1
 379 319 l 1
 376 356 370 377 357 397 c 0
 337 425 305 442 270 442 c 0
 208 442 173 401 164 319 c 1
EndSplineSet
Ligature: 0 0 'liga' e uni0304
EndChar
StartChar: imacron
Encoding: 376 299 270
Width: 278
Flags: W
HStem: 0 21G<67 207> 520 20G<67 207> 640 79<7 266>
VStem: 67 140<0 540>
Fore
266 719 m 1
 266 640 l 1
 7 640 l 1
 7 719 l 1
 266 719 l 1
207 540 m 1
 207 0 l 1
 67 0 l 1
 67 540 l 1
 207 540 l 1
EndSplineSet
Ligature: 0 0 'liga' i uni0304
EndChar
StartChar: kcommaaccent
Encoding: 377 311 271
Width: 556
Flags: W
HStem: 0 21G<59 199 384 548> 520 20G<376 535> 709 20G<59 199>
VStem: 59 140<0 177 0 729> 229 122<-173 -60> 296 55<-180 -163>
Fore
229 -60 m 1xf8
 351 -60 l 1
 351 -163 l 2
 351 -245 300 -305 229 -307 c 1
 229 -261 l 1xf8
 275 -252 297 -222 296 -172 c 1xf4
 229 -172 l 1
 229 -60 l 1xf8
199 330 m 1
 376 540 l 1
 535 540 l 1
 351 336 l 1xf4
 548 0 l 1
 384 0 l 1
 255 238 l 1
 199 177 l 1
 199 0 l 1
 59 0 l 1
 59 729 l 1
 199 729 l 1
 199 330 l 1
EndSplineSet
Ligature: 0 0 'liga' k uni0327
EndChar
StartChar: lcommaaccent
Encoding: 378 316 272
Width: 278
Flags: W
HStem: 0 21G<67 207> 709 20G<67 207>
VStem: 67 140<0 729> 145 55<-180 -163>
Fore
78 -60 m 1xd0
 200 -60 l 1
 200 -163 l 2
 200 -245 149 -305 78 -307 c 1
 78 -261 l 1
 124 -252 146 -222 145 -172 c 1
 78 -172 l 1
 78 -60 l 1xd0
207 729 m 1xe0
 207 0 l 1
 67 0 l 1
 67 729 l 1
 207 729 l 1xe0
EndSplineSet
Ligature: 0 0 'liga' l uni0327
EndChar
StartChar: ncommaaccent
Encoding: 379 326 273
Width: 611
Flags: W
HStem: 0 21G<63 203 406 546> 430 119<316 365>
VStem: 63 140<0 335 0 540> 244 122<-173 -60> 311 55<-180 -163> 406 140<0 362>
Fore
244 -60 m 1xf4
 366 -60 l 1
 366 -163 l 2
 366 -245 315 -305 244 -307 c 1
 244 -261 l 1xf4
 290 -252 312 -222 311 -172 c 1xec
 244 -172 l 1
 244 -60 l 1xf4
63 540 m 1
 203 540 l 1
 203 462 l 1
 243 522 292 549 365 549 c 0
 480 549 546 481 546 362 c 2
 546 0 l 1
 406 0 l 1
 406 333 l 2
 406 397 376 430 316 430 c 0
 248 430 203 388 203 324 c 2
 203 0 l 1
 63 0 l 1
 63 540 l 1
EndSplineSet
Ligature: 0 0 'liga' n uni0327
EndChar
StartChar: omacron
Encoding: 380 333 274
Width: 611
Flags: W
HStem: -23 113<302 308> 436 113<290 308> 640 79<153 452>
VStem: 35 140<263 282> 429 140<248 282>
Fore
452 719 m 1
 452 640 l 1
 153 640 l 1
 153 719 l 1
 452 719 l 1
301 549 m 0
 470 549 569 442 569 259 c 0
 569 86 466 -23 302 -23 c 0
 136 -23 35 85 35 263 c 0
 35 440 136 549 301 549 c 0
302 436 m 0
 226 436 175 366 175 263 c 0
 175 160 226 90 302 90 c 0
 377 90 429 160 429 261 c 0
 429 367 379 436 302 436 c 0
EndSplineSet
Ligature: 0 0 'liga' o uni0304
EndChar
StartChar: rcommaaccent
Encoding: 381 343 275
Width: 389
Flags: W
HStem: 0 21G<63 203> 410 139<326 353>
VStem: 63 140<0 302 0 540> 74 122<-173 -60> 141 55<-180 -163>
Fore
74 -60 m 1xd0
 196 -60 l 1
 196 -163 l 2
 196 -245 145 -305 74 -307 c 1
 74 -261 l 1xd0
 120 -252 142 -222 141 -172 c 1xc8
 74 -172 l 1
 74 -60 l 1xd0
63 540 m 1xe0
 203 540 l 1
 203 434 l 1
 233 507 289 549 353 549 c 0
 357 549 362 549 370 548 c 1
 370 406 l 1
 351 409 341 410 326 410 c 0
 244 410 203 369 203 287 c 2
 203 0 l 1
 63 0 l 1
 63 540 l 1xe0
EndSplineSet
Ligature: 0 0 'liga' r uni0327
EndChar
StartChar: umacron
Encoding: 382 363 276
Width: 611
Flags: W
HStem: -23 119<239 288> 520 20G<58 198 401 541> 640 79<150 449>
VStem: 58 140<164 540> 401 140<0 540>
Fore
449 719 m 1
 449 640 l 1
 150 640 l 1
 150 719 l 1
 449 719 l 1
541 0 m 1
 401 0 l 1
 401 64 l 1
 361 4 312 -23 239 -23 c 0
 124 -23 58 45 58 164 c 2
 58 540 l 1
 198 540 l 1
 198 193 l 2
 198 128 228 96 288 96 c 0
 356 96 401 138 401 202 c 2
 401 540 l 1
 541 540 l 1
 541 0 l 1
EndSplineSet
Ligature: 0 0 'liga' u uni0304
EndChar
StartChar: uogonek
Encoding: 383 371 277
Width: 611
Flags: W
HStem: -233 51<487 508> -23 119<239 288> 520 20G<58 198 401 541>
VStem: 58 140<164 540> 340 90<-140 -127> 401 140<-1 540>
Fore
465 0 m 1xf8
 401 0 l 1
 401 64 l 1
 361 4 312 -23 239 -23 c 0
 124 -23 58 45 58 164 c 2
 58 540 l 1
 198 540 l 1
 198 193 l 2
 198 128 228 96 288 96 c 0
 356 96 401 138 401 202 c 2
 401 540 l 1
 541 540 l 1
 541 0 l 1xf4
 468 -37 430 -82 430 -129 c 0
 430 -165 454 -182 506 -182 c 0
 526 -182 545 -180 564 -177 c 1
 564 -224 l 1
 536 -231 516 -233 489 -233 c 0
 395 -233 340 -198 340 -138 c 0
 340 -95 370 -49 419 -21 c 0
 433 -12 441 -9 465 0 c 1xf8
EndSplineSet
Ligature: 0 0 'liga' u uni0328
EndChar
StartChar: rcaron
Encoding: 384 345 278
Width: 389
Flags: W
HStem: 0 21G<63 203> 410 139<326 353>
VStem: 63 140<0 305 0 540>
Fore
264 607 m 1
 157 607 l 1
 54 757 l 1
 132 757 l 1
 214 660 l 1
 296 757 l 1
 372 757 l 1
 264 607 l 1
63 540 m 1
 203 540 l 1
 203 434 l 1
 233 507 289 549 353 549 c 0
 357 549 362 549 370 548 c 1
 370 406 l 1
 351 409 341 410 326 410 c 0
 244 410 203 369 203 287 c 2
 203 0 l 1
 63 0 l 1
 63 540 l 1
EndSplineSet
Ligature: 0 0 'liga' r uni030C
EndChar
StartChar: scedilla
Encoding: 385 351 279
Width: 556
Flags: W
HStem: -220 50<235 254> -94 181<245 276> -23 110<283 300.83> 439 110<252 285>
VStem: 48 140<369 389> 296 86<-131 -123> 380 140<140 160>
DStem: 239 -22 283 -23 196 -106 264 -63
Fore
283 -23 m 1xba
 264 -63 l 1
 279 -58 291 -56 306 -56 c 0
 353 -56 382 -83 382 -127 c 0
 382 -187 336 -220 254 -220 c 0
 209 -220 180 -214 115 -192 c 1
 134 -140 l 1
 187 -163 211 -170 239 -170 c 0
 271 -170 296 -152 296 -129 c 0
 296 -108 276 -94 245 -94 c 0
 225 -94 215 -97 196 -106 c 1
 239 -22 l 1
 96 -5 34 48 29 157 c 1
 166 157 l 1
 172 128 178 117 193 106 c 0
 211 94 240 87 276 87 c 0xdc
 341 87 380 107 380 140 c 0
 380 162 368 173 333 184 c 2
 166 236 l 2
 114 253 97 262 78 281 c 0
 59 302 48 333 48 369 c 0
 48 480 133 549 270 549 c 0
 415 549 503 480 505 366 c 1
 370 366 l 1
 369 415 336 439 269 439 c 0
 220 439 188 419 188 389 c 0
 188 367 198 359 237 347 c 2
 414 296 l 2
 485 275 520 230 520 160 c 0
 520 52 430 -23 301 -23 c 2
 283 -23 l 1xba
EndSplineSet
Ligature: 0 0 'liga' s uni0327
EndChar
StartChar: gcommaaccent
Encoding: 386 291 280
Width: 611
Flags: W
HStem: -218 90<273 307> -23 117<255 286> 432 117<258 288> 718 21G<298 365>
VStem: 34 140<245 279> 243 55<709 727> 408 133<-18 55 245 540>
Fore
365 606 m 1
 243 606 l 1
 243 709 l 2
 243 791 294 851 365 853 c 1
 365 807 l 1
 319 798 297 768 298 718 c 1
 365 718 l 1
 365 606 l 1
408 540 m 1
 541 540 l 1
 541 -18 l 2
 541 -145 447 -218 284 -218 c 0
 201 -218 141 -201 98 -166 c 0
 62 -136 46 -107 45 -65 c 1
 190 -65 l 1
 201 -106 236 -128 289 -128 c 0
 359 -128 408 -83 408 -18 c 2
 408 55 l 1
 356 -4 318 -23 255 -23 c 0
 122 -23 34 89 34 257 c 0
 34 424 130 549 258 549 c 0
 320 549 366 521 408 457 c 1
 408 540 l 1
288 432 m 0
 220 432 174 361 174 259 c 0
 174 161 220 94 286 94 c 0
 359 94 410 161 410 259 c 0
 410 359 358 432 288 432 c 0
EndSplineSet
Ligature: 0 0 'liga' g uni0327
EndChar
StartChar: iogonek
Encoding: 387 303 281
Width: 278
Flags: W
HStem: -233 51<168 189> -20 20G<67 144> 520 20G<67 207> 604 125<67 207>
VStem: 67 140<-1 540 604 729>
Fore
207 540 m 1
 207 0 l 1
 153 -38 124 -83 124 -128 c 0
 124 -150 129 -161 146 -171 c 0
 158 -178 172 -182 187 -182 c 0
 198 -182 208 -181 231 -177 c 1
 231 -224 l 1
 200 -231 188 -233 168 -233 c 0
 85 -233 34 -196 34 -136 c 0
 34 -87 69 -44 144 0 c 1
 67 0 l 1
 67 540 l 1
 207 540 l 1
207 729 m 1
 207 604 l 1
 67 604 l 1
 67 729 l 1
 207 729 l 1
EndSplineSet
Ligature: 0 0 'liga' i uni0328
EndChar
StartChar: Scommaaccent
Encoding: 388 536 282
Width: 667
Flags: W
HStem: -23 120<319 355> 621 120<303 336>
VStem: 45 143<515 533> 282 122<-173 -60> 349 55<-180 -163> 489 144<193 213>
Fore
282 -60 m 1xf4
 404 -60 l 1
 404 -163 l 2
 404 -245 353 -305 282 -307 c 1
 282 -261 l 1xf4
 328 -252 350 -222 349 -172 c 1xec
 282 -172 l 1
 282 -60 l 1xf4
607 507 m 1
 467 507 l 1
 462 581 409 621 314 621 c 0
 237 621 188 586 188 531 c 0
 188 478 219 457 326 436 c 2
 440 414 l 2
 575 388 633 328 633 213 c 0
 633 65 522 -23 334 -23 c 0
 148 -23 41 62 32 218 c 1
 178 218 l 1
 183 140 240 97 342 97 c 0
 433 97 489 134 489 195 c 0
 489 254 452 282 352 301 c 2
 250 321 l 2
 102 349 45 404 45 517 c 0
 45 659 146 741 321 741 c 0
 426 741 507 712 556 658 c 0
 592 618 607 574 607 507 c 1
EndSplineSet
Ligature: 0 0 'liga' S uni0326
EndChar
StartChar: Eth
Encoding: 389 208 283
Width: 722
Flags: W
HStem: 0 125<227 385> 339 80<0 77 227 377> 604 125<77 385>
VStem: 77 150<0 339 419 604> 537 144<335 385>
Fore
77 339 m 1
 0 339 l 1
 0 419 l 1
 77 419 l 1
 77 729 l 1
 362 729 l 2
 477 729 544 704 593 645 c 1
 648 576 681 472 681 365 c 0
 681 257 648 154 593 85 c 0
 545 25 476 0 362 0 c 2
 77 0 l 1
 77 339 l 1
227 339 m 1
 227 125 l 1
 362 125 l 2
 427 125 465 141 491 179 c 0
 522 223 537 285 537 364 c 0
 537 444 522 506 491 550 c 0
 465 588 427 604 362 604 c 2
 227 604 l 1
 227 419 l 1
 377 419 l 1
 377 339 l 1
 227 339 l 1
EndSplineSet
EndChar
StartChar: Dcroat
Encoding: 390 272 284
Width: 722
Flags: W
HStem: 0 125<227 385> 339 80<0 77 227 377> 604 125<77 385>
VStem: 77 150<0 339 419 604> 537 144<335 385>
Fore
77 339 m 1
 0 339 l 1
 0 419 l 1
 77 419 l 1
 77 729 l 1
 362 729 l 2
 477 729 544 704 593 645 c 1
 648 576 681 472 681 365 c 0
 681 257 648 154 593 85 c 0
 545 25 476 0 362 0 c 2
 77 0 l 1
 77 339 l 1
227 339 m 1
 227 125 l 1
 362 125 l 2
 427 125 465 141 491 179 c 0
 522 223 537 285 537 364 c 0
 537 444 522 506 491 550 c 0
 465 588 427 604 362 604 c 2
 227 604 l 1
 227 419 l 1
 377 419 l 1
 377 339 l 1
 227 339 l 1
EndSplineSet
EndChar
StartChar: Thorn
Encoding: 391 222 285
Width: 667
Flags: W
HStem: 0 21G<76 226> 140 125<226 413> 484 125<226 381> 709 20G<76 226>
VStem: 76 150<0 140 0 484 0 729> 483 150<367 384>
Fore
226 140 m 1
 226 0 l 1
 76 0 l 1
 76 729 l 1
 226 729 l 1
 226 609 l 1
 398 609 l 2
 480 609 531 592 571 553 c 0
 613 512 633 456 633 382 c 0
 633 233 548 140 413 140 c 2
 226 140 l 1
226 265 m 1
 366 265 l 2
 446 265 483 300 483 374 c 0
 483 449 446 484 366 484 c 2
 226 484 l 1
 226 265 l 1
EndSplineSet
EndChar
StartChar: dcroat
Encoding: 392 273 286
Width: 611
Flags: W
HStem: -23 117<256 287> 432 117<256 287> 596 67<272 405 545 605> 709 20G<405 545>
VStem: 29 140<262 282> 405 140<0 596 663 729>
Fore
405 596 m 1
 272 596 l 1
 272 663 l 1
 405 663 l 1
 405 729 l 1
 545 729 l 1
 545 663 l 1
 605 663 l 1
 605 596 l 1
 545 596 l 1
 545 0 l 1
 405 0 l 1
 405 55 l 1
 370 2 323 -23 256 -23 c 0
 127 -23 29 100 29 262 c 0
 29 425 127 549 256 549 c 0
 324 549 370 524 405 470 c 1
 405 596 l 1
287 432 m 0
 218 432 169 362 169 262 c 0
 169 163 217 94 287 94 c 0
 357 94 405 162 405 260 c 0
 405 363 358 432 287 432 c 0
EndSplineSet
EndChar
StartChar: eth
Encoding: 393 240 287
Width: 611
Flags: W
HStem: -23 113<302 308> 429 105<274 302>
VStem: 35 141<248 282> 428 141<248 282>
DStem: 215 646 264 611 145 602 187 565 381 744 432 710 294 692 348 660
Fore
432 710 m 1
 348 660 l 1
 499 558 569 435 569 269 c 0
 569 85 470 -23 302 -23 c 0
 135 -23 35 85 35 265 c 0
 35 375 72 452 148 497 c 0
 187 521 231 534 274 534 c 0
 300 534 320 530 359 515 c 1
 332 558 302 589 264 611 c 1
 187 565 l 1
 145 602 l 1
 215 646 l 1
 188 662 174 670 125 694 c 1
 192 741 l 1
 229 727 232 725 279 699 c 0
 280 698 286 695 294 692 c 1
 381 744 l 1
 432 710 l 1
302 429 m 0
 226 429 176 362 176 260 c 0
 176 157 226 90 302 90 c 0
 378 90 428 157 428 257 c 0
 428 362 379 429 302 429 c 0
EndSplineSet
EndChar
StartChar: thorn
Encoding: 394 254 288
Width: 611
Flags: W
HStem: -23 117<316 348> 432 117<316 348> 709 20G<58 198>
VStem: 58 140<-218 64 -218 279 -218 729> 434 140<245 279>
Fore
198 729 m 1
 198 460 l 1
 232 520 280 549 348 549 c 0
 478 549 574 427 574 262 c 0
 574 99 478 -23 348 -23 c 0
 280 -23 232 5 198 64 c 1
 198 -218 l 1
 58 -218 l 1
 58 729 l 1
 198 729 l 1
316 432 m 0
 246 432 198 363 198 262 c 0
 198 162 246 94 316 94 c 0
 385 94 434 162 434 260 c 0
 434 363 387 432 316 432 c 0
EndSplineSet
EndChar
StartChar: Euro
Encoding: 395 8364 289
Width: 556
Flags: W
HStem: -23 131<341 366> 250 68<29 78 210 402> 386 68<29 69 224 451> 594 130<341 366>
VStem: 68 140<328 362>
Fore
30 318 m 1
 70 318 l 1
 68 332 68 341 68 353 c 0
 68 365 68 374 69 386 c 1
 6 386 l 1
 30 454 l 1
 78 454 l 1
 115 625 220 724 364 724 c 0
 434 724 474 709 546 656 c 1
 501 527 l 1
 438 577 400 594 355 594 c 0
 293 594 248 546 224 454 c 1
 475 454 l 1
 451 386 l 1
 211 386 l 1
 209 370 208 359 208 345 c 0
 208 335 208 328 210 318 c 1
 427 318 l 1
 402 250 l 1
 221 250 l 1
 247 159 295 108 355 108 c 0
 395 108 423 118 501 160 c 1
 501 11 l 1
 422 -15 388 -23 349 -23 c 0
 270 -23 187 21 142 88 c 0
 111 134 91 186 78 250 c 1
 6 250 l 1
 30 318 l 1
EndSplineSet
EndChar
StartChar: onesuperior
Encoding: 396 185 290
Width: 351
Flags: W
HStem: 573 61<40 65.6683> 689 20G<178 242>
VStem: 147 95<284 709>
Fore
147 573 m 1
 40 573 l 1
 40 634 l 1
 118 634 164 659 178 709 c 1
 242 709 l 1
 242 284 l 1
 147 284 l 1
 147 573 l 1
EndSplineSet
EndChar
StartChar: twosuperior
Encoding: 397 178 291
Width: 351
Flags: W
HStem: 284 81<139 326> 557 21G<22 114> 644 74<159 179>
VStem: 21 91<571 589> 233 95<571 589>
Fore
326 365 m 1
 326 284 l 1
 16 284 l 1
 19 365 42 403 120 453 c 1
 219 519 233 535 233 580 c 0
 233 620 210 644 172 644 c 0
 134 644 112 618 112 573 c 0
 112 571 113 564 114 557 c 1
 22 557 l 1
 21 565 21 572 21 575 c 0
 21 667 77 718 177 718 c 0
 274 718 328 670 328 584 c 0
 328 524 306 493 226 438 c 0
 195 416 173 400 167 395 c 0
 159 389 153 382 139 365 c 1
 326 365 l 1
EndSplineSet
EndChar
StartChar: threesuperior
Encoding: 398 179 292
Width: 351
Flags: W
HStem: 271 77<158 176> 645 73<158 176>
VStem: 220 95<589 603> 234 95<398 416>
Fore
134 471 m 1xd0
 134 533 l 1
 145 533 l 2
 194 533 220 553 220 591 c 0
 220 624 199 645 167 645 c 0
 143 645 124 634 117 617 c 0
 112 607 110 596 110 571 c 1
 22 571 l 1
 24 621 31 645 50 669 c 0
 75 700 118 718 170 718 c 0
 258 718 315 672 315 601 c 0xe0
 315 563 297 533 263 512 c 1
 307 491 329 456 329 409 c 0
 329 325 266 271 170 271 c 0
 72 271 16 323 15 414 c 1
 107 414 l 1
 110 369 130 348 172 348 c 0
 208 348 234 373 234 408 c 0
 234 449 205 470 150 471 c 2
 134 471 l 1xd0
EndSplineSet
EndChar
StartChar: degree
Encoding: 399 176 293
Width: 606
Flags: W
HStem: 383 63<301 312> 623 63<303 312>
VStem: 151 63<526 544> 391 63<535 544>
Fore
303 686 m 0
 386 686 454 618 454 535 c 0
 454 450 386 383 301 383 c 0
 219 383 151 452 151 535 c 0
 151 618 219 686 303 686 c 0
303 623 m 0
 254 623 214 583 214 534 c 0
 214 487 254 446 301 446 c 0
 351 446 391 485 391 535 c 0
 391 583 351 623 303 623 c 0
EndSplineSet
EndChar
StartChar: minus
Encoding: 400 8722 294
Width: 584
Flags: W
HStem: 172 119<40 544>
Fore
544 291 m 1
 544 172 l 1
 40 172 l 1
 40 291 l 1
 544 291 l 1
EndSplineSet
EndChar
StartChar: multiply
Encoding: 401 215 295
Width: 584
Flags: W
DStem: 79 359 163 444 208 231 292 315 208 231 292 147 80 103 164 19 292 147 376 231 420 18 504 102 421 444 505 360 292 315 376 231
Fore
421 444 m 1
 505 360 l 1
 376 231 l 1
 504 102 l 1
 420 18 l 1
 292 147 l 1
 164 19 l 1
 80 103 l 1
 208 231 l 1
 79 359 l 1
 163 444 l 1
 292 315 l 1
 421 444 l 1
EndSplineSet
EndChar
StartChar: divide
Encoding: 402 247 296
Width: 584
Flags: W
HStem: -11 123<230 354> 172 119<50 534> 351 123<230 354>
VStem: 230 124<-11 112 351 474>
CounterMasks: 1 00
Fore
534 291 m 1
 534 172 l 1
 50 172 l 1
 50 291 l 1
 534 291 l 1
230 474 m 1
 354 474 l 1
 354 351 l 1
 230 351 l 1
 230 474 l 1
230 112 m 1
 354 112 l 1
 354 -11 l 1
 230 -11 l 1
 230 112 l 1
EndSplineSet
EndChar
StartChar: trademark
Encoding: 403 8482 297
Width: 1000
Flags: W
HStem: 651 78<71 208 71 436>
VStem: 208 95<273 651> 485 91<273 622> 838 91<273 729>
DStem: 576 622 622 729 661 273 708 379 792 729 838 622 708 379 755 273
Fore
303 651 m 1
 303 273 l 1
 208 273 l 1
 208 651 l 1
 71 651 l 1
 71 729 l 1
 436 729 l 1
 436 651 l 1
 303 651 l 1
755 273 m 1
 661 273 l 1
 576 622 l 1
 576 273 l 1
 485 273 l 1
 485 729 l 1
 622 729 l 1
 708 379 l 1
 792 729 l 1
 929 729 l 1
 929 273 l 1
 838 273 l 1
 838 622 l 1
 755 273 l 1
EndSplineSet
Ligature: 0 1 'liga' T M
EndChar
StartChar: plusminus
Encoding: 404 177 298
Width: 584
Flags: W
HStem: -16 119<56 527> 313 119<56 232 351 527>
VStem: 232 119<137 313 432 608>
Fore
527 103 m 1
 527 -16 l 1
 56 -16 l 1
 56 103 l 1
 527 103 l 1
527 432 m 1
 527 313 l 1
 351 313 l 1
 351 137 l 1
 232 137 l 1
 232 313 l 1
 56 313 l 1
 56 432 l 1
 232 432 l 1
 232 608 l 1
 351 608 l 1
 351 432 l 1
 527 432 l 1
EndSplineSet
EndChar
StartChar: onehalf
Encoding: 405 189 299
Width: 869
Flags: W
HStem: 0 81<657 844> 360 74<679 697> 573 61<40 65.6683> 689 20G<178 242>
VStem: 147 95<284 709> 539 91<282 302> 751 95<282 302>
DStem: 587 715 674 715 164 -20 251 -20
Fore
147 573 m 1
 40 573 l 1
 40 634 l 1
 118 634 164 659 178 709 c 1
 242 709 l 1
 242 284 l 1
 147 284 l 1
 147 573 l 1
587 715 m 1
 674 715 l 1
 251 -20 l 1
 164 -20 l 1
 587 715 l 1
844 81 m 1
 844 0 l 1
 534 0 l 1
 537 81 560 119 638 169 c 1
 737 235 751 251 751 296 c 0
 751 336 728 360 690 360 c 0
 652 360 630 334 630 289 c 0
 630 287 631 280 632 273 c 1
 540 273 l 1
 539 281 539 288 539 291 c 0
 539 383 595 434 695 434 c 0
 792 434 846 386 846 300 c 0
 846 240 824 209 744 154 c 0
 714 133 691 116 685 111 c 0
 677 105 671 98 657 81 c 1
 844 81 l 1
EndSplineSet
Ligature: 0 1 'frac' one slash two
Ligature: 0 1 'frac' one fraction two
EndChar
StartChar: onequarter
Encoding: 406 188 300
Width: 869
Flags: W
HStem: -20 21G<170 257> 93 75<603 709 804 850> 573 61<40 65.6683> 689 20G<178 242>
VStem: 147 95<284 709> 709 95<0 93 168 425>
DStem: 593 715 680 715 170 -20 257 -20 695 425 709 332 530 167 603 168
Fore
147 573 m 1
 40 573 l 1
 40 634 l 1
 118 634 164 659 178 709 c 1
 242 709 l 1
 242 284 l 1
 147 284 l 1
 147 573 l 1
593 715 m 1
 680 715 l 1
 257 -20 l 1
 170 -20 l 1
 593 715 l 1
850 168 m 1
 850 93 l 1
 804 93 l 1
 804 0 l 1
 709 0 l 1
 709 93 l 1
 530 93 l 1
 530 167 l 1
 695 425 l 1
 804 425 l 1
 804 168 l 1
 850 168 l 1
709 168 m 1
 709 332 l 1
 603 168 l 1
 709 168 l 1
EndSplineSet
Ligature: 0 1 'frac' one slash four
Ligature: 0 1 'frac' one fraction four
EndChar
StartChar: threequarters
Encoding: 407 190 301
Width: 869
Flags: W
HStem: -20 21G<202 289> 93 75<603 709 804 850> 271 77<158 176> 645 73<158 176>
VStem: 220 95<587 603> 234 95<396.346 417> 709 95<0 93 168 425>
DStem: 625 715 712 715 202 -20 289 -20 695 425 709 332 530 167 603 168
Fore
134 471 m 1xf6
 134 533 l 1
 145 533 l 2
 194 533 220 553 220 591 c 0
 220 624 199 645 167 645 c 0
 143 645 124 634 117 617 c 0
 112 607 110 596 110 571 c 1
 22 571 l 1
 24 621 31 645 50 669 c 0
 75 700 118 718 170 718 c 0
 258 718 315 672 315 601 c 0xfa
 315 563 297 533 263 512 c 1
 307 491 329 456 329 409 c 0
 329 325 266 271 170 271 c 0
 72 271 16 323 15 414 c 1
 107 414 l 1
 110 369 130 348 172 348 c 0
 208 348 234 373 234 408 c 0
 234 449 205 470 150 471 c 2
 134 471 l 1xf6
625 715 m 1
 712 715 l 1
 289 -20 l 1
 202 -20 l 1
 625 715 l 1
850 168 m 1
 850 93 l 1
 804 93 l 1
 804 0 l 1
 709 0 l 1
 709 93 l 1
 530 93 l 1
 530 167 l 1
 695 425 l 1
 804 425 l 1
 804 168 l 1
 850 168 l 1
709 168 m 1
 709 332 l 1
 603 168 l 1
 709 168 l 1
EndSplineSet
Ligature: 0 1 'frac' three slash four
Ligature: 0 1 'frac' three fraction four
EndChar
StartChar: commaaccent
Encoding: 408 63171 302
Width: 333
Flags: W
Fore
112 -60 m 1
 234 -60 l 1
 234 -163 l 2
 234 -245 183 -305 112 -307 c 1
 112 -261 l 1
 158 -252 180 -222 179 -172 c 1
 112 -172 l 1
 112 -60 l 1
EndSplineSet
EndChar
StartChar: copyright
Encoding: 409 169 303
Width: 737
Flags: W
HStem: -22 72<353 387> 128 83<353 372> 509 83<353 387> 671 72<353 387>
VStem: -14 78<361 379> 163 92<345 379> 673 78<361 379>
Fore
552 431 m 1
 462 431 l 1
 451 485 422 509 369 509 c 0
 298 509 255 453 255 359 c 0
 255 266 296 211 366 211 c 0
 423 211 457 241 462 297 c 1
 554 297 l 1
 549 192 476 128 364 128 c 0
 241 128 163 218 163 360 c 0
 163 503 241 592 367 592 c 0
 433 592 488 567 522 522 c 0
 541 496 549 472 552 431 c 1
369 743 m 0
 579 743 751 572 751 361 c 0
 751 147 580 -22 364 -22 c 0
 158 -22 -14 152 -14 361 c 0
 -14 571 158 743 369 743 c 0
368 671 m 0
 201 671 64 532 64 361 c 0
 64 192 201 50 365 50 c 0
 537 50 673 188 673 361 c 0
 673 532 536 671 368 671 c 0
EndSplineSet
EndChar
StartChar: registered
Encoding: 410 174 304
Width: 737
Flags: W
HStem: -22 72<353 391> 313 81<288 393> 502 81<192 403> 671 72<353 393>
VStem: -14 78<361 379> 192 96<140 313 140 502> 440 98<185 223> 455 96<446 464> 673 78<361 379>
Fore
288 313 m 1xfe80
 288 140 l 1
 192 140 l 1
 192 583 l 1
 430 583 l 2
 506 583 551 538 551 462 c 0xfd80
 551 412 530 378 481 354 c 1
 533 330 535 323 538 195 c 0
 538 176 542 169 557 161 c 1
 557 140 l 1
 454 140 l 1
 442 163 440 177 440 221 c 0
 440 229 440 237 441 247 c 1
 441 264 l 2
 441 298 422 313 380 313 c 2
 288 313 l 1xfe80
288 394 m 1
 391 394 l 2
 439 394 455 407 455 448 c 0
 455 489 439 502 391 502 c 2
 288 502 l 1
 288 394 l 1
369 743 m 0
 579 743 751 572 751 361 c 0
 751 147 580 -22 364 -22 c 0
 158 -22 -14 152 -14 361 c 0
 -14 571 158 743 369 743 c 0
368 671 m 0
 201 671 64 532 64 361 c 0
 64 192 201 50 365 50 c 0
 537 50 673 188 673 361 c 0
 673 532 536 671 368 671 c 0
EndSplineSet
EndChar
StartChar: lozenge
Encoding: 411 9674 305
Width: 489
Flags: W
HStem: 0 21G<208 270> 724 20G<208 270>
DStem: 16 372 79 372 208 0 240 60 208 744 240 684 16 372 79 372 240 684 270 744 400 372 462 372 400 372 462 372 240 60 270 0
Fore
270 744 m 1
 462 372 l 1
 270 0 l 1
 208 0 l 1
 16 372 l 1
 208 744 l 1
 270 744 l 1
240 60 m 1
 400 372 l 1
 240 684 l 1
 79 372 l 1
 240 60 l 1
EndSplineSet
EndChar
StartChar: Delta
Encoding: 412 8710 306
Width: 729
Flags: W
HStem: 0 125<205 721> 709 20G<268 461>
Fore
8 0 m 1
 268 729 l 1
 461 729 l 1
 721 0 l 1
 8 0 l 1
205 125 m 1
 524 125 l 1
 364 614 l 1
 205 125 l 1
EndSplineSet
EndChar
StartChar: notequal
Encoding: 413 8800 307
Width: 548
Flags: W
HStem: 52 119<50 123 316 534> 292 119<50 255 450 534>
DStem: 255 292 384 292 187 171 316 171
Fore
123 52 m 1
 50 52 l 1
 50 171 l 1
 187 171 l 1
 255 292 l 1
 50 292 l 1
 50 411 l 1
 322 411 l 1
 387 528 l 1
 485 472 l 1
 450 411 l 1
 534 411 l 1
 534 292 l 1
 384 292 l 1
 316 171 l 1
 534 171 l 1
 534 52 l 1
 249 52 l 1
 181 -69 l 1
 84 -13 l 1
 123 52 l 1
EndSplineSet
Ligature: 0 1 'liga' equal uni0338
EndChar
StartChar: radical
Encoding: 414 8730 308
Width: 542
Flags: W
DStem: 119 461 155 521 360 -36 348 125 155 521 119 461 7 448 25 415 476 913 512 908 348 125 360 -36
Fore
476 913 m 1
 512 908 l 1
 360 -36 l 1
 119 461 l 1
 25 415 l 1
 7 448 l 1
 155 521 l 1
 348 125 l 1
 476 913 l 1
EndSplineSet
EndChar
StartChar: lessequal
Encoding: 415 8804 309
Width: 584
Flags: W
HStem: -10 91<45 534>
DStem: 45 337 152 397 534 155 534 266 534 639 534 530 45 457 152 397
Fore
534 81 m 1
 534 -10 l 1
 45 -10 l 1
 45 81 l 1
 534 81 l 1
534 639 m 1
 534 530 l 1
 152 397 l 1
 534 266 l 1
 534 155 l 1
 45 337 l 1
 45 457 l 1
 534 639 l 1
EndSplineSet
EndChar
StartChar: greaterequal
Encoding: 416 8805 310
Width: 584
Flags: W
HStem: -10 91<45 534>
DStem: 427 397 534 336 45 264 45 155
Fore
534 81 m 1
 534 -10 l 1
 45 -10 l 1
 45 81 l 1
 534 81 l 1
45 155 m 1
 45 264 l 1
 427 397 l 1
 45 528 l 1
 45 639 l 1
 534 457 l 1
 534 336 l 1
 45 155 l 1
EndSplineSet
EndChar
StartChar: logicalnot
Encoding: 417 172 311
Width: 584
Flags: W
HStem: 298 77<40 467>
VStem: 467 77<86 375>
Fore
40 375 m 1
 544 375 l 1
 544 86 l 1
 467 86 l 1
 467 298 l 1
 40 298 l 1
 40 375 l 1
EndSplineSet
EndChar
StartChar: summation
Encoding: 418 8721 312
Width: 711
Flags: W
HStem: -87 105<171 571> 593 160<130 623> 707 46<130 482>
DStem: 17 760 192 707 362 309 461 352 362 309 461 352 17 -91 171 18
Fore
616 753 m 1xc0
 623 593 l 1
 601 593 l 1xc0
 576 686 548 707 453 707 c 2
 192 707 l 1xa0
 461 352 l 1
 171 18 l 1
 513 18 l 2
 575 18 597 23 617 40 c 0
 637 56 643 66 664 117 c 0
 665 118 667 123 670 130 c 1
 694 130 l 1
 672 48 663 3 651 -96 c 1
 630 -90 602 -87 571 -87 c 2
 92 -87 l 2
 51 -87 51 -87 17 -91 c 1
 362 309 l 1
 17 760 l 1
 58 755 89 753 130 753 c 2
 616 753 l 1xc0
EndSplineSet
EndChar
StartChar: partialdiff
Encoding: 419 8706 313
Width: 490
Flags: W
HStem: -15 31<192 212> 367 41<218 256> 703 47<192 216>
VStem: 22 88<155 179> 379 79<405 455>
Fore
102 670 m 1
 62 722 l 1
 102 740 149 750 194 750 c 0
 347 750 458 605 458 405 c 0
 458 302 429 171 392 103 c 0
 349 26 287 -15 212 -15 c 0
 105 -15 22 70 22 179 c 0
 22 244 50 311 96 358 c 0
 130 392 169 408 218 408 c 0
 271 408 299 396 368 343 c 1
 377 403 379 427 379 455 c 0
 379 529 358 604 324 651 c 0
 300 685 261 703 214 703 c 0
 178 703 169 700 110 674 c 2
 102 670 l 1
361 304 m 1
 336 345 299 367 256 367 c 0
 176 367 110 271 110 155 c 0
 110 68 143 16 199 16 c 0
 253 16 299 60 326 139 c 0
 340 182 347 215 361 304 c 1
EndSplineSet
EndChar
StartChar: brokenbar
Encoding: 420 166 314
Width: 280
Flags: W
HStem: 709 20G<100 180>
VStem: 100 80<-200 189 340 729>
Fore
180 729 m 1
 180 340 l 1
 100 340 l 1
 100 729 l 1
 180 729 l 1
180 189 m 1
 180 -200 l 1
 100 -200 l 1
 100 189 l 1
 180 189 l 1
EndSplineSet
EndChar
StartChar: mu
Encoding: 421 181 315
Width: 611
Flags: W
HStem: -23 119<280 294> 520 20G<58 198 383 523>
VStem: 58 134<-220 15> 383 140<195 540>
Fore
192 -220 m 1
 58 -220 l 1
 58 540 l 1
 198 540 l 1
 198 206 l 2
 198 167 202 149 216 129 c 0
 230 108 254 96 282 96 c 0
 341 96 383 140 383 202 c 2
 383 540 l 1
 523 540 l 1
 523 150 l 2
 523 92 529 77 553 77 c 0
 559 77 563 78 573 81 c 1
 573 -6 l 1
 550 -18 531 -23 503 -23 c 0
 456 -23 432 -9 408 31 c 1
 369 -9 338 -23 292 -23 c 0
 251 -23 220 -12 192 15 c 1
 192 -220 l 1
EndSplineSet
EndChar
StartChar: afii10017
Encoding: 422 1040 316
Width: 722
Flags: W
HStem: 0 21G<26 179 552 703> 147 125<270 502> 709 20G<285 451>
DStem: 285 729 365 557 26 0 270 272 285 729 228 147 26 0 179 0 365 557 451 729 460 272 703 0 502 147 451 729 552 0 703 0
Fore
502 147 m 5
 228 147 l 5
 179 0 l 5
 26 0 l 5
 285 729 l 5
 451 729 l 5
 703 0 l 5
 552 0 l 5
 502 147 l 5
460 272 m 5
 365 557 l 5
 270 272 l 5
 460 272 l 5
EndSplineSet
EndChar
StartChar: afii10018
Encoding: 423 1041 317
Width: 722
Flags: W
HStem: 0 125<232 419> 338 125<232 419> 604 125<82 594>
VStem: 82 150<0 338 0 604> 522 144<223 241>
Fore
395 463 m 2
 618 463 666 328 666 226 c 0
 666 168 638 90 594 53 c 0
 550 16 494 0 410 0 c 2
 82 0 l 1
 82 729 l 1
 594 729 l 1
 594 604 l 1
 232 604 l 1
 232 463 l 1
 395 463 l 2
232 338 m 1
 232 125 l 1
 411 125 l 2
 484 125 522 170 522 231 c 0
 522 293 484 338 411 338 c 2
 232 338 l 1
EndSplineSet
EndChar
StartChar: afii10019
Encoding: 424 1042 318
Width: 722
Flags: W
HStem: 0 125<232 419> 314 125<232 413> 604 125<82 413>
VStem: 82 150<0 314 0 604> 501 144<519 537> 522 144<207 225>
Fore
82 0 m 1xf4
 82 729 l 1
 407 729 l 2
 485 729 536 713 579 676 c 0
 620 640 645 587 645 537 c 0xf8
 645 475 612 414 545 387 c 1
 627 363 666 282 666 210 c 0
 666 152 638 90 594 53 c 0
 550 16 494 0 410 0 c 2
 82 0 l 1xf4
232 604 m 1
 232 439 l 1
 395 439 l 2
 464 439 501 468 501 521 c 0
 501 575 464 604 395 604 c 2
 232 604 l 1
232 314 m 1
 232 125 l 1
 411 125 l 2
 484 125 522 158 522 219 c 0xf4
 522 281 484 314 411 314 c 2
 232 314 l 1
EndSplineSet
EndChar
StartChar: afii10020
Encoding: 425 1043 319
Width: 611
Flags: W
HStem: 0 21G<82 232> 604 125<82 594>
VStem: 82 150<0 604>
Fore
232 0 m 5
 82 0 l 1
 82 729 l 5
 594 729 l 5
 594 604 l 5
 232 604 l 5
 232 0 l 5
EndSplineSet
EndChar
StartChar: afii10021
Encoding: 426 1044 320
Width: 900
Flags: W
HStem: 0 125<333 735> 604 125<230 600>
VStem: 35 130<-150 0> 230 150<409 603> 600 150<125 729> 735 130<-150 108>
Fore
139 108 m 2xf4
 192 108 230 255 230 461 c 2
 230 729 l 1
 750 729 l 1
 750 108 l 1xf8
 865 108 l 1
 865 -150 l 1
 735 -150 l 1
 735 0 l 1
 165 0 l 1
 165 -150 l 1
 35 -150 l 1
 35 108 l 1
 139 108 l 2xf4
333 125 m 1
 600 125 l 1
 600 604 l 1
 380 604 l 1
 380 414 l 2
 380 319 373 209 333 125 c 1
EndSplineSet
EndChar
StartChar: afii10022
Encoding: 427 1045 321
Width: 709
Flags: W
HStem: 0 125<232 627> 314 125<232 581> 604 125<82 609>
VStem: 82 150<0 314 0 604>
Fore
232 314 m 1
 232 125 l 1
 627 125 l 1
 627 0 l 1
 82 0 l 1
 82 729 l 1
 609 729 l 1
 609 604 l 1
 232 604 l 1
 232 439 l 1
 581 439 l 1
 581 314 l 1
 232 314 l 1
EndSplineSet
EndChar
StartChar: afii10023
Encoding: 428 1025 322
Width: 709
Flags: W
HStem: 0 125<232 627> 314 125<232 581> 604 125<82 609> 800 122<200 310 386 496>
VStem: 82 150<0 314 0 604> 200 110<800 922> 386 110<800 922>
Fore
232 314 m 1xfa
 232 125 l 1
 627 125 l 1
 627 0 l 1
 82 0 l 1
 82 729 l 1
 609 729 l 1
 609 604 l 1
 232 604 l 1
 232 439 l 1
 581 439 l 1
 581 314 l 1
 232 314 l 1xfa
310 922 m 1xf6
 310 800 l 1
 200 800 l 1
 200 922 l 1
 310 922 l 1xf6
496 922 m 1
 496 800 l 1
 386 800 l 1
 386 922 l 1
 496 922 l 1
EndSplineSet
Ligature: 0 1 'liga' afii10022 uni0308
EndChar
StartChar: afii10024
Encoding: 429 1046 323
Width: 1093
Flags: W
HStem: 0 21G<22 206 475 625 894 1078> 709 20G<66 230 475 625 870 1034>
VStem: 475 150<0 285 450 729>
DStem: 66 729 230 729 379 378 475 450 379 378 475 285 22 0 206 0 625 285 721 378 894 0 1078 0 870 729 1034 729 625 450 721 378
Fore
475 285 m 1
 206 0 l 1
 22 0 l 1
 379 378 l 1
 66 729 l 1
 230 729 l 1
 475 450 l 1
 475 729 l 1
 625 729 l 1
 625 450 l 1
 870 729 l 1
 1034 729 l 1
 721 378 l 1
 1078 0 l 1
 894 0 l 1
 625 285 l 1
 625 0 l 1
 475 0 l 1
 475 285 l 1
EndSplineSet
EndChar
StartChar: afii10025
Encoding: 430 1047 324
Width: 672
Flags: W
HStem: -23 120<319 354> 621 120<319 354>
VStem: 464 143<515 538> 489 144<193 213>
Fore
250 428 m 1xd0
 326 428 l 2
 435 428 464 478 464 531 c 0
 464 586 415 621 338 621 c 0
 243 621 190 581 185 507 c 1
 45 507 l 1
 45 574 60 618 96 658 c 0
 145 712 226 741 331 741 c 0
 506 741 607 659 607 517 c 0xe0
 607 453 587 409 544 377 c 1
 606 343 633 293 633 213 c 0
 633 65 522 -23 334 -23 c 0
 148 -23 41 62 32 218 c 1
 178 218 l 1
 183 140 240 97 342 97 c 0
 433 97 489 134 489 195 c 0
 489 254 454 308 352 308 c 2
 250 308 l 1
 250 428 l 1xd0
EndSplineSet
EndChar
StartChar: afii10026
Encoding: 431 1048 325
Width: 757
Flags: W
HStem: 0 21G<82 232 525 675> 709 20G<82 232 521 675>
VStem: 82 150<0 729> 525 150<0 729>
DStem: 521 729 525 504 232 233 232 0
Fore
232 0 m 1
 82 0 l 1
 82 729 l 1
 232 729 l 1
 232 233 l 1
 521 729 l 1
 675 729 l 1
 675 0 l 1
 525 0 l 1
 525 504 l 1
 232 0 l 1
EndSplineSet
EndChar
StartChar: afii10027
Encoding: 432 1049 326
Width: 757
Flags: W
HStem: 0 21G<82 232 525 675> 709 20G<82 232 521 675> 784 77<369 387>
VStem: 82 150<0 729> 525 150<0 729>
DStem: 521 729 525 504 232 233 232 0
Fore
507 927 m 1
 507 916 l 2
 507 841 450 784 375 784 c 0
 300 784 243 841 243 917 c 2
 243 927 l 1
 299 927 l 1
 305 883 330 861 376 861 c 0
 420 861 442 881 451 927 c 1
 507 927 l 1
232 0 m 1
 82 0 l 1
 82 729 l 1
 232 729 l 1
 232 233 l 1
 521 729 l 1
 675 729 l 1
 675 0 l 1
 525 0 l 1
 525 504 l 1
 232 0 l 1
EndSplineSet
Ligature: 0 1 'liga' afii10026 uni0306
EndChar
StartChar: afii10028
Encoding: 433 1050 327
Width: 750
Flags: W
HStem: 0 21G<82 232 525 725> 709 20G<82 232 517 694>
VStem: 82 150<0 285 0 729>
DStem: 232 285 328 378 525 0 725 0 517 729 694 729 232 450 328 378
Fore
232 0 m 1
 82 0 l 1
 82 729 l 1
 232 729 l 1
 232 450 l 1
 517 729 l 1
 694 729 l 1
 328 378 l 1
 725 0 l 1
 525 0 l 1
 232 285 l 1
 232 0 l 1
EndSplineSet
EndChar
StartChar: afii10029
Encoding: 434 1051 328
Width: 729
Flags: W
HStem: -12 145<36 48.8969> 604 125<125 497>
VStem: 125 150<371 604> 497 150<0 729>
Fore
497 604 m 1
 275 604 l 1
 275 400 l 2
 275 223 248 -12 36 -12 c 1
 36 133 l 1
 107 132 125 228 125 447 c 2
 125 729 l 1
 647 729 l 1
 647 0 l 1
 497 0 l 1
 497 604 l 1
EndSplineSet
EndChar
StartChar: afii10030
Encoding: 435 1052 329
Width: 874
Flags: W
HStem: 0 21G<82 232 363 513 642 792> 709 20G<82 306 566 792>
VStem: 82 150<0 568> 642 150<0 729>
DStem: 232 568 306 729 363 0 438 149 566 729 642 568 438 149 513 0
Fore
232 568 m 1
 232 0 l 1
 82 0 l 1
 82 729 l 1
 306 729 l 1
 438 149 l 1
 566 729 l 1
 792 729 l 1
 792 0 l 1
 642 0 l 1
 642 568 l 1
 513 0 l 1
 363 0 l 1
 232 568 l 1
EndSplineSet
EndChar
StartChar: afii10031
Encoding: 436 1053 330
Width: 753
Flags: W
HStem: 0 21G<82 232 521 671> 331 125<232 521> 709 20G<82 232 520 671>
VStem: 82 150<0 331 0 729> 521 150<0 729>
Fore
521 331 m 1
 232 331 l 1
 232 0 l 1
 82 0 l 1
 82 729 l 1
 232 729 l 1
 232 456 l 1
 520 456 l 1
 520 729 l 1
 671 729 l 1
 671 0 l 1
 521 0 l 1
 521 331 l 1
EndSplineSet
EndChar
StartChar: afii10032
Encoding: 437 1054 331
Width: 778
Flags: W
HStem: -23 128<391 409> 613 128<375 409>
VStem: 40 150<359 378> 592 150<328 378>
Fore
390 741 m 0
 495 741 576 709 640 640 c 0
 705 570 742 468 742 354 c 0
 742 251 703 145 640 78 c 0
 577 10 495 -23 391 -23 c 0
 287 -23 205 10 142 78 c 0
 77 147 40 250 40 359 c 0
 40 468 77 570 142 640 c 0
 204 707 288 741 390 741 c 0
391 613 m 0
 270 613 190 512 190 359 c 0
 190 206 270 105 391 105 c 0
 511 105 592 206 592 355 c 0
 592 513 514 613 391 613 c 0
EndSplineSet
EndChar
StartChar: afii10033
Encoding: 438 1055 332
Width: 753
Flags: W
HStem: 0 21G<82 232 521 671> 604 125<82 521>
VStem: 82 150<0 604> 521 150<0 729>
Fore
521 604 m 1
 232 604 l 1
 232 0 l 1
 82 0 l 1
 82 729 l 1
 671 729 l 1
 671 0 l 1
 521 0 l 1
 521 604 l 1
EndSplineSet
EndChar
StartChar: afii10034
Encoding: 439 1056 333
Width: 671
Flags: W
HStem: 0 21G<82 232> 260 125<232 419> 604 125<82 387>
VStem: 82 150<0 260 0 604> 489 150<479 513>
Fore
232 260 m 1
 232 0 l 1
 82 0 l 1
 82 729 l 1
 404 729 l 2
 556 729 639 649 639 503 c 0
 639 355 553 260 419 260 c 2
 232 260 l 1
232 385 m 1
 372 385 l 2
 452 385 489 420 489 494 c 0
 489 569 452 604 372 604 c 2
 232 604 l 1
 232 385 l 1
EndSplineSet
EndChar
StartChar: afii10035
Encoding: 440 1057 334
Width: 722
Flags: W
HStem: -23 126<363 397> 613 128<363 397>
VStem: 44 150<328 378>
Fore
682 482 m 1
 539 482 l 1
 530 521 522 540 506 560 c 0
 478 595 435 613 383 613 c 0
 265 613 194 517 194 356 c 0
 194 197 262 103 378 103 c 0
 471 103 530 156 539 249 c 1
 685 249 l 1
 676 82 555 -23 374 -23 c 0
 171 -23 44 124 44 358 c 0
 44 594 172 741 378 741 c 0
 487 741 577 700 633 626 c 0
 664 585 677 545 682 482 c 1
EndSplineSet
EndChar
StartChar: afii10036
Encoding: 441 1058 335
Width: 611
Flags: W
HStem: 0 21G<235 385> 604 125<14 235 14 598>
VStem: 235 150<0 604>
Fore
385 604 m 5
 385 0 l 1
 235 0 l 1
 235 604 l 5
 14 604 l 5
 14 729 l 5
 598 729 l 5
 598 604 l 5
 385 604 l 5
EndSplineSet
EndChar
StartChar: afii10037
Encoding: 442 1059 336
Width: 718
Flags: W
HStem: 0 21G<154 328> 709 20G<15 178 522 696>
DStem: 15 729 178 729 268 226 350 384 268 226 696 729 154 0 328 0 522 729 696 729 350 384 328 0
Fore
328 0 m 1
 154 0 l 1
 268 226 l 1
 15 729 l 1
 178 729 l 1
 350 384 l 1
 522 729 l 1
 696 729 l 1
 328 0 l 1
EndSplineSet
EndChar
StartChar: afii10038
Encoding: 443 1060 337
Width: 892
Flags: W
HStem: 0 21G<371 521> 94 94<371 371 521 588.056> 540 98<371 371 521 570.889> 709 20G<371 521>
VStem: 30 134<351 385> 371 150<0 94 188 540 637 729> 728 134<351 385>
CounterMasks: 1 00
Fore
371 0 m 1
 371 94 l 1
 306 94 30 72 30 374 c 0
 30 652 282 638 371 638 c 1
 371 729 l 1
 521 729 l 1
 521 638 l 1
 610 638 862 652 862 374 c 0
 862 72 586 94 521 94 c 1
 521 0 l 1
 371 0 l 1
371 188 m 1
 371 540 l 1
 314 540 164 548 164 370 c 0
 164 170 309 188 371 188 c 1
521 188 m 1
 583 188 728 170 728 370 c 0
 728 548 578 540 521 540 c 1
 521 188 l 1
EndSplineSet
EndChar
StartChar: afii10039
Encoding: 444 1061 338
Width: 667
Flags: W
HStem: 0 21G<22 196 483 654> 709 20G<30 208 470 644>
DStem: 30 729 208 729 252 367 340 503 252 367 338 241 22 0 196 0 338 241 429 372 483 0 654 0 470 729 644 729 340 503 429 372
Fore
429 372 m 5
 654 0 l 5
 483 0 l 5
 338 241 l 5
 196 0 l 5
 22 0 l 5
 252 367 l 5
 30 729 l 5
 208 729 l 5
 340 503 l 5
 470 729 l 5
 644 729 l 5
 429 372 l 5
EndSplineSet
EndChar
StartChar: afii10040
Encoding: 445 1062 339
Width: 816
Flags: W
HStem: 0 125<231 651> 709 20G<82 232 521 671>
VStem: 82 150<0 729> 521 150<125 729> 651 130<-150 108>
Fore
521 125 m 1xf0
 521 729 l 1
 671 729 l 1
 671 108 l 1xf0
 781 108 l 1
 781 -150 l 1
 651 -150 l 1
 651 0 l 1xe8
 82 0 l 1
 82 729 l 1
 232 729 l 1
 232 125 l 1
 521 125 l 1xf0
EndSplineSet
EndChar
StartChar: afii10041
Encoding: 446 1063 340
Width: 685
Flags: W
HStem: 0 21G<474 624> 225 125<314 473> 709 20G<68 218 473 624>
VStem: 68 150<445 729> 474 150<0 729>
Fore
474 225 m 1
 316 225 l 2
 168 225 68 321 68 447 c 6
 68 729 l 1
 218 729 l 1
 218 453 l 6
 218 387 270 350 328 350 c 2
 473 350 l 1
 473 729 l 1
 624 729 l 1
 624 0 l 1
 474 0 l 1
 474 225 l 1
EndSplineSet
EndChar
StartChar: afii10042
Encoding: 447 1064 341
Width: 1057
Flags: W
HStem: 0 125<217 967> 709 20G<68 218 437 587 817 967>
VStem: 68 150<0 729> 437 150<125 729> 817 150<125 729>
Fore
967 0 m 1
 68 0 l 1
 68 729 l 1
 218 729 l 1
 218 125 l 1
 437 125 l 1
 437 729 l 1
 587 729 l 1
 587 125 l 1
 817 125 l 1
 817 729 l 1
 967 729 l 1
 967 0 l 1
EndSplineSet
EndChar
StartChar: afii10043
Encoding: 448 1065 342
Width: 1183
Flags: W
HStem: 0 125<217 962> 709 20G<68 218 447 597 827 977>
VStem: 68 150<0 729> 447 150<125 729> 827 150<125 729> 962 135<-150 108>
Fore
962 0 m 1xf4
 68 0 l 1
 68 729 l 1
 218 729 l 1
 218 125 l 1
 447 125 l 1
 447 729 l 1
 597 729 l 1
 597 125 l 1
 827 125 l 1
 827 729 l 1
 977 729 l 1
 977 108 l 1xf8
 1097 108 l 1
 1097 -150 l 1
 962 -150 l 1
 962 0 l 1xf4
EndSplineSet
EndChar
StartChar: afii10044
Encoding: 449 1066 343
Width: 833
Flags: W
HStem: 0 125<394 566> 344 125<394 543> 604 125<14 244>
VStem: 244 150<0 344 0 729> 651 150<223 241>
Fore
394 469 m 1
 581 469 l 2
 715 469 801 374 801 226 c 0
 801 80 718 0 566 0 c 2
 244 0 l 1
 244 604 l 1
 14 604 l 1
 14 729 l 1
 394 729 l 1
 394 469 l 1
394 344 m 1
 394 125 l 1
 534 125 l 2
 614 125 651 160 651 235 c 0
 651 309 614 344 534 344 c 2
 394 344 l 1
EndSplineSet
EndChar
StartChar: afii10045
Encoding: 450 1067 344
Width: 949
Flags: W
HStem: 0 125<218 390> 344 125<218 373> 709 20G<68 218 734 884>
VStem: 68 150<0 344 0 729> 475 150<223 241> 734 150<0 729>
Fore
884 729 m 1
 884 0 l 1
 734 0 l 1
 734 729 l 1
 884 729 l 1
218 469 m 1
 405 469 l 2
 539 469 625 374 625 226 c 0
 625 80 542 0 390 0 c 2
 68 0 l 1
 68 729 l 1
 218 729 l 1
 218 469 l 1
218 344 m 1
 218 125 l 1
 358 125 l 2
 438 125 475 160 475 235 c 0
 475 309 438 344 358 344 c 2
 218 344 l 1
EndSplineSet
EndChar
StartChar: afii10046
Encoding: 451 1068 345
Width: 687
Flags: W
HStem: 0 125<226 398> 344 125<226 381> 709 20G<76 226>
VStem: 76 150<0 344 0 729> 483 150<223 241>
Fore
226 469 m 5
 413 469 l 6
 547 469 633 374 633 226 c 4
 633 80 550 0 398 0 c 6
 76 0 l 5
 76 729 l 5
 226 729 l 5
 226 469 l 5
226 344 m 5
 226 125 l 5
 366 125 l 6
 446 125 483 160 483 235 c 4
 483 309 446 344 366 344 c 6
 226 344 l 5
EndSplineSet
EndChar
StartChar: afii10047
Encoding: 452 1069 346
Width: 722
Flags: W
HStem: -23 126<331 365> 311 125<241 533> 613 128<331 365>
Fore
241 311 m 5
 241 436 l 5
 532 436 l 5
 512 548 443 613 346 613 c 0
 294 613 251 595 223 560 c 0
 207 540 199 521 190 482 c 1
 47 482 l 1
 52 545 65 585 96 626 c 0
 152 700 242 741 351 741 c 0
 557 741 685 594 685 358 c 0
 685 124 558 -23 355 -23 c 0
 174 -23 53 82 44 249 c 1
 190 249 l 1
 199 156 258 103 351 103 c 0
 456 103 521 179 533 311 c 5
 241 311 l 5
EndSplineSet
EndChar
StartChar: afii10048
Encoding: 453 1070 347
Width: 1099
Flags: W
HStem: -23 128<692 709> 311 125<218 354> 613 128<675 709>
VStem: 68 150<0 311 0 729> 883 150<328 378>
Fore
357 436 m 5
 370 515 404 587 453 640 c 4
 515 707 589 741 691 741 c 4
 796 741 867 709 931 640 c 4
 996 570 1033 468 1033 354 c 4
 1033 251 994 145 931 78 c 4
 868 10 796 -23 692 -23 c 4
 588 -23 516 10 453 78 c 4
 398 137 363 220 354 311 c 5
 218 311 l 5
 218 0 l 5
 68 0 l 5
 68 729 l 5
 218 729 l 5
 218 436 l 5
 357 436 l 5
692 613 m 4
 571 613 501 512 501 359 c 4
 501 206 571 105 692 105 c 4
 812 105 883 206 883 355 c 4
 883 513 815 613 692 613 c 4
EndSplineSet
EndChar
StartChar: afii10049
Encoding: 454 1071 348
Width: 698
Flags: W
HStem: 0 21G<22 201 483 633> 260 125<343 483> 604 125<311 483>
VStem: 76 150<479 513> 483 150<0 729>
DStem: 242 265 422 260 22 0 201 0
Fore
422 260 m 5
 201 0 l 5
 22 0 l 5
 242 265 l 5
 154 282 76 364 76 503 c 4
 76 649 159 729 311 729 c 6
 633 729 l 5
 633 0 l 5
 483 0 l 5
 483 260 l 5
 422 260 l 5
483 385 m 5
 483 604 l 5
 343 604 l 6
 263 604 226 569 226 494 c 4
 226 420 263 385 343 385 c 6
 483 385 l 5
EndSplineSet
EndChar
StartChar: afii10065
Encoding: 455 1072 349
Width: 556
Flags: W
HStem: -23 113<192 244> 436 113<248 285>
VStem: 28 140<139 157> 355 137<200 394>
Fore
524 17 m 5
 524 0 l 5
 372 0 l 5
 359 16 356 26 356 54 c 5
 307 3 252 -23 192 -23 c 4
 144 -23 97 -4 66 28 c 4
 41 55 28 93 28 139 c 4
 28 236 82 290 187 309 c 6
 243 319 l 6
 310 331 312 330 331 340 c 4
 346 348 355 364 355 382 c 4
 355 418 328 436 274 436 c 4
 205 436 182 418 175 362 c 5
 40 362 l 5
 49 487 125 549 271 549 c 4
 417 549 492 493 492 383 c 6
 492 83 l 6
 492 55 499 40 524 17 c 5
355 217 m 6
 355 255 l 5
 339 247 333 245 296 238 c 6
 248 229 l 6
 192 218 168 197 168 155 c 4
 168 115 197 90 244 90 c 4
 315 90 355 136 355 217 c 6
EndSplineSet
EndChar
StartChar: afii10066
Encoding: 456 1073 350
Width: 606
Flags: W
HStem: -23 117<303 309> 432 117<307 338>
VStem: 50 139<260 292> 425 140<248 282>
Fore
438 776 m 5
 542 777 l 5
 542 736 542 690 509 666 c 4
 426 606 334 642 253 592 c 4
 204 562 170 516 169 462 c 5
 204 532 271 549 338 549 c 4
 404 549 470 515 507 462 c 4
 543 410 565 336 565 263 c 4
 565 100 476 -23 305 -23 c 4
 143 -23 50 50 50 292 c 4
 50 428 62 589 190 670 c 4
 235 698 322 716 386 724 c 4
 434 730 438 776 438 776 c 5
307 432 m 4
 237 432 189 363 189 265 c 4
 189 162 236 94 307 94 c 4
 376 94 425 164 425 262 c 4
 425 362 376 432 307 432 c 4
EndSplineSet
EndChar
StartChar: afii10067
Encoding: 457 1074 351
Width: 572
Flags: W
HStem: 0 110<200 329> 223 110<200 317> 430 110<60 317>
VStem: 60 140<0 223 0 430> 368 135<380 398> 379 139<155 172>
Fore
60 0 m 1xf4
 60 540 l 1
 326 540 l 2
 384 540 422 529 454 501 c 0
 484 475 503 435 503 398 c 0xf8
 503 352 474 300 429 286 c 1
 490 268 518 208 518 155 c 0
 518 112 498 66 465 39 c 0
 432 11 391 0 329 0 c 2
 60 0 l 1xf4
200 430 m 1
 200 333 l 1
 294 333 l 2
 345 333 368 341 368 380 c 0
 368 420 345 430 294 430 c 2
 200 430 l 1
200 223 m 1
 200 110 l 1
 300 110 l 2
 354 110 379 125 379 170 c 0xf4
 379 216 354 223 300 223 c 2
 200 223 l 1
EndSplineSet
EndChar
StartChar: afii10068
Encoding: 458 1075 352
Width: 454
Flags: W
HStem: 0 21G<60 200> 427 113<60 408>
VStem: 60 140<0 427>
Fore
408 540 m 5
 408 427 l 5
 200 427 l 5
 200 0 l 5
 60 0 l 1
 60 540 l 5
 408 540 l 5
EndSplineSet
EndChar
StartChar: afii10069
Encoding: 459 1076 353
Width: 685
Flags: W
HStem: 0 113<263 552> 427 113<162 440>
VStem: 23 110<-125 0> 162 140<354 427> 440 140<113 540> 552 110<-125 101>
Fore
580 101 m 1xf8
 662 101 l 1
 662 -125 l 1
 552 -125 l 1
 552 0 l 1xf4
 133 0 l 1
 133 -125 l 1
 23 -125 l 1
 23 101 l 1
 85 101 l 2
 134 101 162 252 162 388 c 2
 162 540 l 1
 580 540 l 1
 580 101 l 1xf8
263 113 m 1
 440 113 l 1
 440 427 l 1xf8
 302 427 l 1
 302 376 l 2
 302 259 290 174 263 113 c 1
EndSplineSet
EndChar
StartChar: afii10070
Encoding: 460 1077 354
Width: 556
Flags: W
HStem: -23 107<261 279> 226 93<164 524> 442 107<261 279>
Fore
524 226 m 1
 162 226 l 1
 164 175 169 151 182 131 c 0
 202 101 234 84 274 84 c 0
 325 84 364 109 381 152 c 1
 519 152 l 1
 488 46 390 -23 269 -23 c 0
 116 -23 22 83 22 256 c 0
 22 437 117 549 272 549 c 0
 381 549 468 490 504 392 c 0
 517 354 525 304 525 250 c 0
 525 243 525 238 524 226 c 1
164 319 m 1
 379 319 l 1
 376 356 370 377 357 397 c 0
 337 425 305 442 270 442 c 0
 208 442 173 401 164 319 c 1
EndSplineSet
EndChar
StartChar: afii10071
Encoding: 461 1105 355
Width: 556
Flags: W
HStem: -23 107<261 279> 226 93<164 524> 442 107<261 279> 621 122<132 242 318 428>
VStem: 132 110<621 743> 318 110<621 743>
Fore
242 743 m 1
 242 621 l 1
 132 621 l 1
 132 743 l 1
 242 743 l 1
428 743 m 1
 428 621 l 1
 318 621 l 1
 318 743 l 1
 428 743 l 1
524 226 m 1
 162 226 l 1
 164 175 169 151 182 131 c 0
 202 101 234 84 274 84 c 0
 325 84 364 109 381 152 c 1
 519 152 l 1
 488 46 390 -23 269 -23 c 0
 116 -23 22 83 22 256 c 0
 22 437 117 549 272 549 c 0
 381 549 468 490 504 392 c 0
 517 354 525 304 525 250 c 0
 525 243 525 238 524 226 c 1
164 319 m 1
 379 319 l 1
 376 356 370 377 357 397 c 0
 337 425 305 442 270 442 c 0
 208 442 173 401 164 319 c 1
EndSplineSet
Ligature: 0 1 'liga' afii10070 uni0308
EndChar
StartChar: afii10072
Encoding: 462 1078 356
Width: 809
Flags: W
HStem: 0 21G<16 195 332 472 609 788> 520 20G<52 200 332 472 604 752>
VStem: 332 140<0 198 351 540>
DStem: 52 540 200 540 229 296 332 351 229 296 332 198 16 0 195 0 472 198 575 296 609 0 788 0 604 540 752 540 472 351 575 296
Fore
332 198 m 1
 195 0 l 1
 16 0 l 1
 229 296 l 1
 52 540 l 1
 200 540 l 1
 332 351 l 1
 332 540 l 1
 472 540 l 1
 472 351 l 1
 604 540 l 1
 752 540 l 1
 575 296 l 1
 788 0 l 1
 609 0 l 1
 472 198 l 1
 472 0 l 1
 332 0 l 1
 332 198 l 1
EndSplineSet
EndChar
StartChar: afii10073
Encoding: 463 1079 357
Width: 546
Flags: W
HStem: -23 110<268 300> 439 110<268 302>
VStem: 365 140<360 389> 380 140<140 160>
Fore
206 208 m 1xd0
 206 318 l 1
 300 318 l 2
 372 318 365 367 365 389 c 0
 365 419 333 439 284 439 c 0
 217 439 184 415 183 366 c 1
 48 366 l 1
 50 480 138 549 283 549 c 0
 420 549 505 480 505 369 c 0xe0
 505 333 494 302 475 281 c 0
 471 277 465 274 461 271 c 1
 501 246 520 213 520 160 c 0
 520 107 496 57 456 25 c 0
 416 -7 359 -23 284 -23 c 0
 120 -23 33 39 29 157 c 1
 166 157 l 1
 172 128 178 117 193 106 c 0
 211 94 240 87 276 87 c 0
 341 87 380 107 380 140 c 0
 380 162 382 208 298 208 c 2
 206 208 l 1xd0
EndSplineSet
EndChar
StartChar: afii10074
Encoding: 464 1080 358
Width: 615
Flags: W
HStem: 0 21G<60 220 415 555> 520 20G<60 200 395 555>
VStem: 60 140<0 540> 415 140<0 540>
DStem: 395 540 415 338 200 202 220 0
Fore
60 540 m 1
 200 540 l 1
 200 202 l 1
 395 540 l 1
 555 540 l 1
 555 0 l 1
 415 0 l 1
 415 338 l 1
 220 0 l 1
 60 0 l 1
 60 540 l 1
EndSplineSet
EndChar
StartChar: afii10075
Encoding: 465 1081 359
Width: 615
Flags: W
HStem: 0 21G<60 220 415 555> 520 20G<60 200 395 555> 580 77<299 317> 703 20G<176 232 384 440>
VStem: 60 140<0 540> 415 140<0 540>
DStem: 395 540 415 338 200 202 220 0
Fore
60 540 m 1
 200 540 l 1
 200 202 l 1
 395 540 l 1
 555 540 l 1
 555 0 l 1
 415 0 l 1
 415 338 l 1
 220 0 l 1
 60 0 l 1
 60 540 l 1
440 723 m 1
 440 712 l 2
 440 637 383 580 308 580 c 0
 233 580 176 637 176 713 c 2
 176 723 l 1
 232 723 l 1
 238 679 263 657 309 657 c 0
 353 657 376 677 384 723 c 1
 440 723 l 1
EndSplineSet
Ligature: 0 1 'liga' afii10074 uni0306
EndChar
StartChar: afii10076
Encoding: 466 1082 360
Width: 573
Flags: W
HStem: 0 21G<60 200 367 549> 520 20G<60 200 362 510>
VStem: 60 140<0 198 0 540>
DStem: 200 198 296 296 367 0 549 0 362 540 510 540 200 351 296 296
Fore
200 351 m 1
 362 540 l 1
 510 540 l 1
 296 296 l 1
 549 0 l 1
 367 0 l 1
 200 198 l 1
 200 0 l 1
 60 0 l 1
 60 540 l 1
 200 540 l 1
 200 351 l 1
EndSplineSet
EndChar
StartChar: afii10077
Encoding: 467 1083 361
Width: 577
Flags: W
HStem: 0 21G<377 517> 427 113<104 377>
VStem: 104 140<325 427> 377 140<0 540>
Fore
104 540 m 1
 517 540 l 1
 517 0 l 1
 377 0 l 1
 377 427 l 1
 244 427 l 1
 244 366 l 2
 244 102 182 -10 29 -10 c 1
 29 125 l 1
 102 126 104 242 104 378 c 2
 104 540 l 1
EndSplineSet
EndChar
StartChar: afii10078
Encoding: 468 1084 362
Width: 666
Flags: W
HStem: 0 21G<60 200 297 369 466 606> 520 20G<60 235 431 606>
VStem: 60 140<0 297> 466 140<0 540>
DStem: 200 297 235 540 297 0 333 213 431 540 466 297 333 213 369 0
Fore
369 0 m 1
 297 0 l 1
 200 297 l 1
 200 0 l 1
 60 0 l 1
 60 540 l 1
 235 540 l 1
 333 213 l 1
 431 540 l 1
 606 540 l 1
 606 0 l 1
 466 0 l 1
 466 297 l 1
 369 0 l 1
EndSplineSet
EndChar
StartChar: afii10079
Encoding: 469 1085 363
Width: 603
Flags: W
HStem: 207 113<200 403> 520 20G<60 200 403 543>
VStem: 60 140<0 207 0 540> 403 140<0 540>
Fore
60 540 m 1
 200 540 l 1
 200 320 l 1
 403 320 l 1
 403 540 l 1
 543 540 l 1
 543 0 l 1
 403 0 l 1
 403 207 l 1
 200 207 l 1
 200 0 l 1
 60 0 l 1
 60 540 l 1
EndSplineSet
EndChar
StartChar: afii10080
Encoding: 470 1086 364
Width: 611
Flags: W
HStem: -23 113<302 308> 436 113<290 308>
VStem: 35 140<263 282> 429 140<248 282>
Fore
301 549 m 0
 470 549 569 442 569 259 c 0
 569 86 466 -23 302 -23 c 0
 136 -23 35 85 35 263 c 0
 35 440 136 549 301 549 c 0
302 436 m 0
 226 436 175 366 175 263 c 0
 175 160 226 90 302 90 c 0
 377 90 429 160 429 261 c 0
 429 367 379 436 302 436 c 0
EndSplineSet
EndChar
StartChar: afii10081
Encoding: 471 1087 365
Width: 603
Flags: W
HStem: 0 21G<60 200 403 543> 427 113<60 403>
VStem: 60 140<0 427> 403 140<0 540>
Fore
60 540 m 1
 543 540 l 1
 543 0 l 1
 403 0 l 1
 403 427 l 1
 200 427 l 1
 200 0 l 1
 60 0 l 1
 60 540 l 1
EndSplineSet
EndChar
